<svg version="1.2" xmlns="http://www.w3.org/2000/svg" viewBox="0 0 1156 704" width="1156" height="704">
	<defs>
		<clipPath clipPathUnits="userSpaceOnUse" id="cp1">
			<path d="m-626 0h4000v8361h-4000z"/>
		</clipPath>
		<clipPath clipPathUnits="userSpaceOnUse" id="cp2">
			<path d="m886.03 1.37c0 46.27-17.65 92.54-52.96 127.85-70.61 70.6-185.09 70.61-255.7 0-35.3-35.31-52.96-81.58-52.96-127.85z"/>
		</clipPath>
	</defs>
	<style>
		.s021 { fill: #4f4c4b } 
	</style>
	<g id="Page 1" clip-path="url(#cp1)">
		<g id="-e- circle-2" clip-path="url(#cp2)">
			<path id="Path 13" class="s021" d="m2.8 401.3l-2.8-2.7 850.8-850.8 2.8 2.8zm27.5 27.5l-2.8-2.8 850.8-850.8 2.7 2.8zm27.5 27.5l-2.7-2.8 850.7-850.8 2.8 2.8zm27.5 27.5l-2.8-2.8 850.8-850.8 2.8 2.8zm27.5 27.5l-2.8-2.8 850.8-850.7 2.7 2.7zm27.5 27.5l-2.7-2.7 850.7-850.8 2.8 2.7zm27.5 27.5l-2.8-2.7 850.8-850.8 2.8 2.7zm27.4 27.5l-2.7-2.7 850.8-850.8 2.7 2.7zm27.5 27.5l-2.7-2.7 850.8-850.8 2.7 2.8zm27.5 27.4l-2.8-2.7 850.8-850.8 2.8 2.8zm27.4 27.5l-2.7-2.8 850.8-850.8 2.7 2.8zm27.5 27.5l-2.7-2.8 850.7-850.8 2.8 2.8z"/>
		</g>
	</g>
</svg>