<svg version="1.2" xmlns="http://www.w3.org/2000/svg" viewBox="0 0 2233 3149" width="2233" height="3149">
	<defs>
		<clipPath clipPathUnits="userSpaceOnUse" id="cp1">
			<path d="m-1767-4170h4000v8361h-4000z"/>
		</clipPath>
		<clipPath clipPathUnits="userSpaceOnUse" id="cp2">
			<path d="m1920.64 743.65c110.91 0 221.81 37.24 312.36 111.72v761.37c-193.42 159.1-479.76 148.26-660.52-32.51-192.32-192.3-192.31-504.06 0-696.35 96.14-96.15 222.15-144.23 348.16-144.23z"/>
		</clipPath>
	</defs>
	<style>
		.s024 { fill: #9e7f6b } 
	</style>
	<g id="Page 1" clip-path="url(#cp1)">
		<g id="-e- circle-4" clip-path="url(#cp2)">
			<path id="Path 92" class="s024" d="m7.7 2325.3l-7.5-7.5 2316.9-2316.9 7.5 7.5zm74.9 74.8l-7.5-7.4 2317-2317 7.4 7.5zm74.9 74.9l-7.5-7.5 2317-2317 7.4 7.5zm74.9 74.8l-7.5-7.4 2317-2317 7.5 7.5zm74.8 74.9l-7.5-7.5 2317-2317 7.5 7.5zm74.8 74.9l-7.5-7.5 2317-2316.9 7.5 7.4zm74.8 74.9l-7.4-7.5 2316.9-2316.9 7.5 7.4zm74.9 74.9l-7.5-7.5 2316.9-2316.9 7.5 7.5zm74.9 74.8l-7.5-7.5 2317-2316.9 7.4 7.5zm74.9 74.8l-7.5-7.4 2316.9-2317 7.5 7.5zm74.9 74.9l-7.5-7.6 2317-2316.9 7.4 7.5zm74.9 74.9l-7.5-7.5 2317-2317 7.4 7.5z"/>
		</g>
	</g>
</svg>