<svg version="1.2" xmlns="http://www.w3.org/2000/svg" viewBox="0 0 1642 2563" width="1642" height="2563">
	<defs>
		<clipPath clipPathUnits="userSpaceOnUse" id="cp1">
			<path d="m-2358-405h4000v8361h-4000z"/>
		</clipPath>
		<clipPath clipPathUnits="userSpaceOnUse" id="cp2">
			<path d="m1563.34 604.88c26.36 0 52.72 2.59 78.66 7.75v786.05c-126.91 25.27-263.68-11.27-362.05-109.63-156.51-156.52-156.51-410.28 0-566.78 78.26-78.26 180.83-117.39 283.39-117.39z"/>
		</clipPath>
	</defs>
	<style>
		.s055 { fill: #efe4d7 } 
	</style>
	<g id="Page 1" clip-path="url(#cp1)">
		<g id="-e- circle-3" clip-path="url(#cp2)">
			<path id="Path 10" class="s055" d="m6.3 1892.2l-6.1-6.1 1885.9-1885.8 6.1 6.1zm60.9 60.9l-6.1-6 1885.8-1885.9 6.1 6.1zm61 61l-6.1-6.1 1885.8-1885.9 6.1 6.1zm60.9 60.9l-6.1-6.1 1885.8-1885.8 6.1 6.1zm61 61l-6.2-6.1 1885.9-1885.9 6.1 6.1zm60.9 61l-6.1-6.1 1885.8-1885.8 6.1 6zm60.9 61l-6.1-6.1 1885.9-1885.8 6.1 6zm60.9 61l-6.1-6.1 1885.8-1885.8 6.1 6.1zm61 60.9l-6.1-6.1 1885.8-1885.8 6.1 6.1zm60.9 60.9l-6.1-6.1 1885.9-1885.8 6.1 6.1zm60.9 60.9l-6.1-6.1 1885.8-1885.8 6.1 6.1zm60.9 60.9l-6-6.1 1885.8-1885.8 6.1 6.1z"/>
		</g>
	</g>
</svg>