<svg version="1.2" xmlns="http://www.w3.org/2000/svg" viewBox="0 0 810 2076" width="810" height="2076">
	<defs>
		<clipPath clipPathUnits="userSpaceOnUse" id="cp1">
			<path d="m0-169h4000v8361h-4000z"/>
		</clipPath>
		<clipPath clipPathUnits="userSpaceOnUse" id="cp2">
			<path d="m2 490.13c82.42 0.51 164.68 32.21 227.57 95.09 126.8 126.79 126.8 332.35 0 459.15-62.88 62.88-145.15 94.57-227.57 95.08z"/>
		</clipPath>
	</defs>
	<style>
		.s044 { fill: #eac7ac } 
	</style>
	<g id="Page 1" clip-path="url(#cp1)">
		<g id="-e- circle-1" clip-path="url(#cp2)">
			<path id="Path 21" class="s044" d="m-1261.3 1533l-5-4.9 1527.7-1527.7 5 4.9zm49.3 49.4l-4.9-4.9 1527.7-1527.7 4.9 4.9zm49.4 49.4l-5-5 1527.7-1527.7 5 5zm49.3 49.3l-4.9-4.9 1527.7-1527.7 4.9 4.9zm49.4 49.4l-5-4.9 1527.7-1527.7 5 4.9zm49.3 49.4l-4.9-5 1527.7-1527.7 4.9 5zm49.4 49.3l-5-4.9 1527.7-1527.7 5 5zm49.3 49.3l-4.9-4.9 1527.7-1527.7 4.9 4.9zm49.4 49.4l-5-4.9 1527.7-1527.7 4.9 4.9zm49.4 49.3l-4.9-4.9 1527.7-1527.7 4.9 5zm49.4 49.3l-5-4.9 1527.7-1527.7 4.9 5zm49.4 49.3l-4.9-4.9 1527.7-1527.7 4.9 4.9z"/>
		</g>
	</g>
</svg>