<svg version="1.2" xmlns="http://www.w3.org/2000/svg" viewBox="0 0 241 349" width="241" height="349"><defs><clipPath clipPathUnits="userSpaceOnUse" id="cp1"><path d="m-147-8012h4000v8361h-4000z"/></clipPath></defs><g clip-path="url(#cp1)"><path class="a" d="m12.8 26c-6.9 0-12.6-5.7-12.6-12.6 0-6.9 5.7-12.6 12.6-12.6 6.9 0 12.6 5.7 12.6 12.6 0 6.9-5.7 12.6-12.6 12.6zm107.5 0c-6.9 0-12.5-5.7-12.5-12.6 0-6.9 5.6-12.6 12.5-12.6 7 0 12.6 5.7 12.6 12.6 0 6.9-5.6 12.6-12.6 12.6zm107.6 0c-7 0-12.6-5.7-12.6-12.6 0-6.9 5.6-12.6 12.6-12.6 6.9 0 12.5 5.7 12.5 12.6 0 6.9-5.6 12.6-12.5 12.6zm-215.1 107.5c-6.9 0-12.6-5.6-12.6-12.6 0-6.9 5.7-12.5 12.6-12.5 6.9 0 12.6 5.6 12.6 12.5 0 7-5.7 12.6-12.6 12.6zm107.5 0c-6.9 0-12.5-5.6-12.5-12.6 0-6.9 5.6-12.5 12.5-12.5 7 0 12.6 5.6 12.6 12.5 0 7-5.6 12.6-12.6 12.6zm107.6 0c-7 0-12.6-5.6-12.6-12.6 0-6.9 5.6-12.5 12.6-12.5 6.9 0 12.5 5.6 12.5 12.5 0 7-5.6 12.6-12.5 12.6zm-215.1 107.5c-6.9 0-12.6-5.6-12.6-12.5 0-7 5.7-12.6 12.6-12.6 6.9 0 12.6 5.6 12.6 12.6 0 6.9-5.7 12.5-12.6 12.5zm107.5 0c-6.9 0-12.5-5.6-12.5-12.5 0-7 5.6-12.6 12.5-12.6 7 0 12.6 5.6 12.6 12.6 0 6.9-5.6 12.5-12.6 12.5zm107.6 0c-7 0-12.6-5.6-12.6-12.5 0-7 5.6-12.6 12.6-12.6 6.9 0 12.5 5.6 12.5 12.6 0 6.9-5.6 12.5-12.5 12.5zm-215.1 107.6c-6.9 0-12.6-5.7-12.6-12.6 0-6.9 5.7-12.6 12.6-12.6 6.9 0 12.6 5.7 12.6 12.6 0 6.9-5.7 12.6-12.6 12.6zm107.5 0c-6.9 0-12.5-5.7-12.5-12.6 0-6.9 5.6-12.6 12.5-12.6 7 0 12.6 5.7 12.6 12.6 0 6.9-5.6 12.6-12.6 12.6zm107.6 0c-7 0-12.6-5.7-12.6-12.6 0-6.9 5.6-12.6 12.6-12.6 6.9 0 12.5 5.7 12.5 12.6 0 6.9-5.6 12.6-12.5 12.6z"/></g></svg>