<svg version="1.2" xmlns="http://www.w3.org/2000/svg" viewBox="0 0 160 160" width="160" height="160"><defs><clipPath clipPathUnits="userSpaceOnUse" id="cp1"><path d="m-99-48h4000v8361h-4000z"/></clipPath><clipPath clipPathUnits="userSpaceOnUse" id="cp2"><path d="m-97-46.63h3998v2000h-3998z"/></clipPath></defs><g clip-path="url(#cp1)"><g clip-path="url(#cp2)"><path class="a" d="m142.7 151.3c0-4.6 3.7-8.3 8.3-8.3 4.6 0 8.3 3.7 8.3 8.3 0 4.5-3.7 8.3-8.3 8.3-4.6 0-8.3-3.8-8.3-8.3zm-71.1 0c0-4.6 3.8-8.3 8.3-8.3 4.6 0 8.3 3.7 8.3 8.3 0 4.5-3.7 8.3-8.3 8.3-4.5 0-8.3-3.8-8.3-8.3zm-71 0c0-4.6 3.7-8.3 8.3-8.3 4.5 0 8.3 3.7 8.3 8.3 0 4.5-3.8 8.3-8.3 8.3-4.6 0-8.3-3.8-8.3-8.3zm142.1-71.1c0-4.6 3.7-8.3 8.3-8.3 4.6 0 8.3 3.7 8.3 8.3 0 4.5-3.7 8.3-8.3 8.3-4.6 0-8.3-3.8-8.3-8.3zm-71.1 0c0-4.6 3.8-8.3 8.3-8.3 4.6 0 8.3 3.7 8.3 8.3 0 4.5-3.7 8.3-8.3 8.3-4.5 0-8.3-3.8-8.3-8.3zm-71 0c0-4.6 3.7-8.3 8.3-8.3 4.5 0 8.3 3.7 8.3 8.3 0 4.5-3.8 8.3-8.3 8.3-4.6 0-8.3-3.8-8.3-8.3zm142.1-71.1c0-4.6 3.7-8.3 8.3-8.3 4.6 0 8.3 3.7 8.3 8.3 0 4.6-3.7 8.3-8.3 8.3-4.6 0-8.3-3.7-8.3-8.3zm-71.1 0c0-4.6 3.8-8.3 8.3-8.3 4.6 0 8.3 3.7 8.3 8.3 0 4.6-3.7 8.3-8.3 8.3-4.5 0-8.3-3.7-8.3-8.3zm-71 0c0-4.6 3.7-8.3 8.3-8.3 4.5 0 8.3 3.7 8.3 8.3 0 4.6-3.8 8.3-8.3 8.3-4.6 0-8.3-3.7-8.3-8.3z"/></g></g></svg>