<svg version="1.2" xmlns="http://www.w3.org/2000/svg" viewBox="0 0 3853 578" width="3853" height="578"><defs><clipPath clipPathUnits="userSpaceOnUse" id="cp1"><path d="m-147-7783h4000v8361h-4000z"/></clipPath></defs><style>.a{fill:#eac7ac}</style><g clip-path="url(#cp1)"><path class="a" d="m3840.9 25.4c-7 0-12.6-5.6-12.6-12.5 0-7 5.6-12.6 12.6-12.6 6.9 0 12.5 5.6 12.5 12.6 0 6.9-5.6 12.5-12.5 12.5zm0 107.6c-7 0-12.6-5.7-12.6-12.6 0-6.9 5.6-12.6 12.6-12.6 6.9 0 12.5 5.7 12.5 12.6 0 6.9-5.6 12.6-12.5 12.6zm0 107.5c-7 0-12.6-5.6-12.6-12.6 0-6.9 5.6-12.5 12.6-12.5 6.9 0 12.5 5.6 12.5 12.5 0 7-5.6 12.6-12.5 12.6zm-322.6-215.1c-7 0-12.6-5.6-12.6-12.5 0-7 5.6-12.6 12.6-12.6 6.9 0 12.5 5.6 12.5 12.6 0 6.9-5.6 12.5-12.5 12.5zm0 107.6c-7 0-12.6-5.7-12.6-12.6 0-6.9 5.6-12.6 12.6-12.6 6.9 0 12.5 5.7 12.5 12.6 0 6.9-5.6 12.6-12.5 12.6zm0 107.5c-7 0-12.6-5.6-12.6-12.6 0-6.9 5.6-12.5 12.6-12.5 6.9 0 12.5 5.6 12.5 12.5 0 7-5.6 12.6-12.5 12.6zm-107.5-215.1c-7 0-12.6-5.6-12.6-12.5 0-7 5.6-12.6 12.6-12.6 6.9 0 12.5 5.6 12.5 12.6 0 6.9-5.6 12.5-12.5 12.5zm0 107.6c-7 0-12.6-5.7-12.6-12.6 0-6.9 5.6-12.6 12.6-12.6 6.9 0 12.5 5.7 12.5 12.6 0 6.9-5.6 12.6-12.5 12.6zm0 107.5c-7 0-12.6-5.6-12.6-12.6 0-6.9 5.6-12.5 12.6-12.5 6.9 0 12.5 5.6 12.5 12.5 0 7-5.6 12.6-12.5 12.6zm322.5-215.1c-6.9 0-12.5-5.6-12.5-12.5 0-7 5.6-12.6 12.5-12.6 7 0 12.6 5.6 12.6 12.6 0 6.9-5.6 12.5-12.6 12.5zm0 107.6c-6.9 0-12.5-5.7-12.5-12.6 0-6.9 5.6-12.6 12.5-12.6 7 0 12.6 5.7 12.6 12.6 0 6.9-5.6 12.6-12.6 12.6zm0 107.5c-6.9 0-12.5-5.6-12.5-12.6 0-6.9 5.6-12.5 12.5-12.5 7 0 12.6 5.6 12.6 12.5 0 7-5.6 12.6-12.6 12.6zm-107.5-215.1c-6.9 0-12.6-5.6-12.6-12.5 0-7 5.7-12.6 12.6-12.6 6.9 0 12.6 5.6 12.6 12.6 0 6.9-5.7 12.5-12.6 12.5zm0 107.6c-6.9 0-12.6-5.7-12.6-12.6 0-6.9 5.7-12.6 12.6-12.6 6.9 0 12.6 5.7 12.6 12.6 0 6.9-5.7 12.6-12.6 12.6zm0 107.5c-6.9 0-12.6-5.6-12.6-12.6 0-6.9 5.7-12.5 12.6-12.5 6.9 0 12.6 5.6 12.6 12.5 0 7-5.7 12.6-12.6 12.6zm-3600.4 1.9c0 6.9-5.7 12.6-12.6 12.6-6.9 0-12.6-5.7-12.6-12.6 0-6.9 5.7-12.6 12.6-12.6 6.9 0 12.6 5.7 12.6 12.6zm107.5 0c0 6.9-5.6 12.6-12.6 12.6-6.9 0-12.5-5.7-12.5-12.6 0-6.9 5.6-12.6 12.5-12.6 7 0 12.6 5.7 12.6 12.6zm107.5 0c0 6.9-5.6 12.6-12.6 12.6-6.9 0-12.5-5.7-12.5-12.6 0-6.9 5.6-12.6 12.5-12.6 7 0 12.6 5.7 12.6 12.6zm-215 107.5c0 7-5.7 12.6-12.6 12.6-6.9 0-12.6-5.6-12.6-12.6 0-6.9 5.7-12.5 12.6-12.5 6.9 0 12.6 5.6 12.6 12.5zm107.5 0c0 7-5.6 12.6-12.6 12.6-6.9 0-12.5-5.6-12.5-12.6 0-6.9 5.6-12.5 12.5-12.5 7 0 12.6 5.6 12.6 12.5zm107.5 0c0 7-5.6 12.6-12.6 12.6-6.9 0-12.5-5.6-12.5-12.6 0-6.9 5.6-12.5 12.5-12.5 7 0 12.6 5.6 12.6 12.5zm-215 107.6c0 6.9-5.7 12.5-12.6 12.5-6.9 0-12.6-5.6-12.6-12.5 0-7 5.7-12.6 12.6-12.6 6.9 0 12.6 5.6 12.6 12.6zm107.5 0c0 6.9-5.6 12.5-12.6 12.5-6.9 0-12.5-5.6-12.5-12.5 0-7 5.6-12.6 12.5-12.6 7 0 12.6 5.6 12.6 12.6zm107.5 0c0 6.9-5.6 12.5-12.6 12.5-6.9 0-12.5-5.6-12.5-12.5 0-7 5.6-12.6 12.5-12.6 7 0 12.6 5.6 12.6 12.6zm-215 107.5c0 6.9-5.7 12.6-12.6 12.6-6.9 0-12.6-5.7-12.6-12.6 0-6.9 5.7-12.6 12.6-12.6 6.9 0 12.6 5.7 12.6 12.6zm107.5 0c0 6.9-5.6 12.6-12.6 12.6-6.9 0-12.5-5.7-12.5-12.6 0-6.9 5.6-12.6 12.5-12.6 7 0 12.6 5.7 12.6 12.6zm107.5 0c0 6.9-5.6 12.6-12.6 12.6-6.9 0-12.5-5.7-12.5-12.6 0-6.9 5.6-12.6 12.5-12.6 7 0 12.6 5.7 12.6 12.6z"/></g></svg>