<svg version="1.2" xmlns="http://www.w3.org/2000/svg" viewBox="0 0 1386 444" width="1386" height="444">
	<defs>
		<clipPath clipPathUnits="userSpaceOnUse" id="cp1">
			<path d="m-243-260h4000v8361h-4000z"/>
		</clipPath>
	</defs>

	<g id="Page 1" clip-path="url(#cp1)">
		<path id="-e- logo" fill-rule="evenodd" class="s0" d="m340.5 192c-0.5 0.5-0.5 0.5-0.9 0.9-2.6 5.6-5.2 12-0.9 18.5 8.6 4.2 24.5-3.1 33.1-6.5 21-8.6 40.3-20.6 63.5-37.8 4.7-3.4 10.7-6.8 15-10.3 2.2-1.2 5.2-3.4 8.2-4.3 3.4-1.2 9.9 1.3 8.6 5.6l-0.9 1.3c0 0-0.8 0.9-1.3 1.3l-5.6 4.3-1.7 1.3-13.7 9.4c-12.5 8.6-27 18.5-43.4 27.1-11.1 6-25.3 12.8-37.3 15.8-6.4 1.8-13.7 2.6-20.6 2.2-8.2-0.9-16.3-5.6-18.9-13.7-1.2-5.4 0.5-11.5 3-16.8q-1.5 1.1-3.1 2.2l-20.6 13.3c-7.7 5.1-16.3 10.3-24.9 13.7-6 2.6-14.1 4.3-20.1 0.9-5.2-3-6.5-7.8-5.6-13.3 0.8-5.2 3.4-10.3 5.6-15.1l9-18c3-5.6 6.4-11.6 8.6-17.6-6.9 4.3-12.1 9.5-18.1 15.5-6.8 6.8-13.3 13.7-19.3 21-10.7 12.4-20.6 26.2-32.6 37.3-2.2 2.6-6 2.2-8.6 0.5-1.7-0.9-3.9-2.6-3.4-5.2 4.3-17.6 12.4-33.9 20.6-50.2l24.4-47.6c16.4-30.5 34-58.4 55.8-87.6 5.2-6.4 11.6-12.5 20.7-12.5 5.1 0 9.8 4.3 6.8 7.3l-3 2.2c-0.8 0.4-2.1 0.4-3 0h-0.4l-1.3 0.8-2.2 1.8c-6 6.4-9 10.7-22.3 28.7-4.7 6.5-9.4 13.3-13.7 20.2-14.2 22.3-25.8 45.5-37.8 68.7-6.4 12.8-13.3 25.7-19.7 39 7.7-8.6 15.4-17.6 23.2-26.2q9-9.6 19.3-18c5.5-4.3 12-8.1 18.9-9.4 3-0.9 8.5 0 9.8 3.8 1.3 3.5 0.5 7.8-0.8 11.2-1.3 4.7-3.5 9.4-5.6 13.7-6 11.6-12.9 22.8-16.8 34.8l-1.7 6c6 1.7 40.4-21 50.3-27.9 32.1-23.2 39.4-27.9 45.9-33q0.5-0.5 1.2-0.7 3.4-2.4 7-4.5c6.9-4.3 18-8.6 26.2-2.6 6.9 5.6 3 14.2-1.3 20.2-4.3 6-9.9 11.2-16.3 15.9-6 4.3-13.7 9-21 11.6-4.3 2.1-11.2 3-16.3 0.8zm-127.2-150.6c1.3 2.6-0.4 5.6-1.3 8.1-2.1 5.2-5.1 9.9-8.1 14.6-2.6 4.3-6 8.6-9 12.9-3 5.2-6.5 10.3-9.9 15-12.9 20.2-25.8 39.9-38.2 60.1l-21.5 35.6-21.4 35.2c-13.3 23.2-25.8 47.3-35.2 72.6-1.7 4.3-9 3-12 0.4-2.6-2.1-4.8-4.7-4.3-8.6 0.4-2.1 2.1-3.8 2.5-5.1q1.3-2.6 3.9-2.6c15-36.1 35.6-70.4 56.2-103.4l21.9-35.7c7.3-12 15-24 22.8-35.6l23.1-35.6c3.5-5.6 7.3-10.3 10.8-15.9 1.3-2.6 3-5.2 4.3-8.2l1.7-4.3c0.4-0.8 0.4-1.7 1.3-2.1 0.4-0.4 0.8-0.9 0.8-0.9 0.5-1.2 2.2-1.7 3.5-1.7 3.4 0 6.8 1.7 8.1 5.2zm248.5-27.5c-3.4 2.6-7.7 3.4-12 4.7-3 1.3-7.7-0.4-9.8-3q-1.3-1.3-1.3-2.6c-4.3-0.4-8.6-0.8-12.9-0.8-2.6 0-5.6 0-8.2-0.4h-6.4c-5.2 0-10.3-0.5-15.5-0.5-23.1 0-45.9 1.3-69.1 2.2-26.6 1.3-52.8 3-79.4 5.1-26.6 2.2-53.2 4.3-79.8 7.3-27.5 2.6-54.5 6-82 9-13.3 1.3-27 2.2-40.3 4.3-10.8 1.3-21.9 3.5-33.1 3.5-3.8-0.5-8.6-1.8-10.7-5.6-1.7-3.4 1.7-6 5.1-6 9.5 0.4 19.3-1.3 28.8-2.6 10.7-1.7 21.9-2.6 32.6-3.9 24.1-2.1 47.7-5.1 71.7-8.1 52.8-6 106-10.3 159.2-13.3 27.5-1.7 55-3 82.5-3 24.4-0.5 49.3 0 73.8 3.4 3.4 0.4 7.3 2.2 8.6 5.2 0.8 2.1 0.4 4.2-1.8 5.1zm-76.3 141.2c0 0 1.7-3 1.3-6-3.9 0.9-7.7 3-12 6-9.9 6.9-18.9 16.3-27.9 26.6l-2.2 3c-1.7 2.6 26.7-8.1 40.8-29.6zm999 103.9c-2.9 3.9-6.2 6.3-10.6 10.1-3.3 2.9-6.7 6.3-10.6 9.2-7.7 5.8-11 9.1-19.2 14.9-11.6 8.2-23.6 15.9-36.6 23.1-17.4 9.2-28.4 14.5-47.7 17.4-3.8 0.4-8.2 0.9-12 0.9q-0.8 2.2-1.5 4.4c-1.9 8.1-9.6 8.1-16.8 5.3-3.4-2-6.3-4.9-8.7-7.8-14.5-15.4-23-21-26.4-28.4-11.9 6.2-26.1 12.9-38.3 15.9-7.3 2-15.4 2.9-23.1 2.4-9.2-0.9-18.3-6.2-21.2-15.4-1-4.4-0.3-9.1 1.3-13.7-9 6.6-18.3 13.2-28.1 19.5l-4.8 2.9c-5.8 3.4-10.6 6.3-19.7 10.1-14.5 5.8-38.1 12-36.2-11.5 0.5-4.4 0.5-5.8 1-8.2 1.9-11.1 6.7-22.7 11.1-32.8 4-8.8 8.5-17.8 13.4-26.7-2.5 0.6-5.1 1.6-7.7 2.6q-8 3.7-14.5 7.3l-4.8 2.4-9.2 5.3-5.3 3.3-11.5 6.8-8.7 6.7-12 11.6-11.1 10.1-11.1 12.5c-2.4 4.3-3.3 5.8-6.7 10.6-0.5 1-1 1.9-1.5 2.4-0.9 1.9-6.7 0.5-8.6 0-2.4-0.9-5.3-5.3-4.4-7.2l5.8-8.7c9.2-13.9 10.1-14.9 14.5-23.1l2.9-5.8 1.2-2.2c-5.9 4.6-12 9.1-18.5 13.3-8.2 5.3-12.1 8.2-18.3 11.6-19.3 10.6-26 13.4-33.3 14.9-11.5 1.4-26.4 0-32.7-10.6-3.9-5.8-2.9-13.5-1-20.2-4.3 5.3-9.1 9.6-14.4 14.4-4.8 4.4-9.2 10.1-14 13.5-3.8 3.4-8.2 5.8-13.5 7.7-5.7 2.4-12.5 2.4-18.7-1.9-4.4-3.4-6.3-9.2-6.3-14.5 0.2-4.6 1.4-8.9 3.1-12.9l-14 9.1c-8.7 5.8-18.3 11.5-28 15.4-6.7 2.9-15.8 4.8-22.6 1-5.8-3.4-7.2-8.7-6.2-15 0.9-5.7 3.8-11.5 6.2-16.8l10.1-20.3c3.4-6.2 7.2-13 9.7-19.7-7.7 4.8-13.5 10.6-20.3 17.3-7.7 7.7-14.9 15.4-21.6 23.6-12.1 14-23.1 29.4-36.6 41.9-2.4 2.9-6.8 2.4-9.7 0.5-1.9-1-4.3-2.9-3.8-5.8 4.8-19.7 14-38 23.1-56.3l2.4-4.7c-3.9 2.7-7.7 5.5-11.6 8.5-22.1 15.9-44.3 33.3-66.4 49.6-25.6 18.8-51.1 37.1-77.6 54-22.1 14.4-45.7 28.4-71.2 36.6-17.8 5.8-41.4 8.2-55.4-7.3-7.2-8.1-9.1-18.7-9.6-28.8-1.5-19.3 1.9-39 8.2-57.3 13-41 37-77.6 63.5-110.8 23.1-28.4 48.7-55.4 76.1-79.9 21.2-18.8 44.3-36.1 68.9-51.1 14.4-8.6 29.8-16.8 46.2-21.2 13.5-3.8 30.8-4.8 42.4 5.3 13.4 10.1 13.9 26.5 8.6 41.9q-4.3 13-10.1 26c-1.4 3.4-3.4 6.8-5.3 10.1-0.9 1.5-2.4 3.9-4.3 4.9-3.4 1.9-8.2 0.9-11.1-1.5-5.3-4.3 0.5-7.7 2.4-12 2.4-4.8 4.8-9.2 6.8-14 3.8-10.1 8.1-20.7 9.6-31.3 0-63.1-130.5 40.9-139.7 50.1-5.7 4.8-11.5 10.1-16.8 15.4-13.5 13-26.5 26.5-39 40.9-27.9 31.3-54.4 66.5-71.8 104.5-8.6 17.8-14.9 37.1-17.8 56.8-5.8 50.6 11.1 64.6 60.7 40 12-5.8 24.1-12.5 36.1-19.7 26.5-16.4 52-34.7 77.1-53 23.5-17.3 46.2-34.7 69.3-52 8.7-6.3 16.8-12.5 26-18.3 4-2.9 10.9-7.6 17.5-9.2l13.3-26c18.3-34.1 38.1-65.4 62.6-98.2 5.8-7.2 13-14 23.2-14 5.7 0 11 4.9 7.7 8.2l-3.4 2.4c-1 0.5-2.4 0.5-3.4 0h-0.5l-1.4 1-2.4 1.9c-6.8 7.3-10.1 12.1-25.1 32.3-5.2 7.2-10.5 14.9-15.4 22.6-15.9 25.1-28.9 51.1-42.3 77.1-7.3 14.4-15 28.9-22.2 43.8 8.7-9.6 17.3-19.8 26-29.4q10.1-10.8 21.7-20.2c6.2-4.8 13.5-9.2 21.2-10.6 3.3-1 9.6 0 11 4.3 1.5 3.9 0.5 8.7-0.9 12.6-1.5 5.2-3.9 10.5-6.3 15.4-6.7 13-14.4 25.5-18.8 39l-1.9 6.7c6.8 1.9 45.4-23.5 56.4-31.3 10.7-7.6 19.3-13.7 26.3-18.5q5.7-5.3 12-9.9c5.4-3.9 11.3-7.1 18.1-9.8q1.3-0.8 2.5-1 2.4-0.9 5-1.7c3.3-1 8.1-2 12-1.5 4.3 1.5 10.6 4.8 8.2 10.1-1.5 3.4-5.3 3.4-8.2 2-1.9-1.5-5.3-0.5-6.7 0-7.8 3.3-15 7.7-21.7 12.5-5.8 4.8-13 11.1-18.8 18.3-5.8 6.7-12 14-14.9 23.1-1.5 3.9-2.4 8.2-1 12 0.5 0 1 0 1.5-0.4 10.1-5.3 18.7-13 27.4-23.2l27.9-29.8 15-13.5 0.4-0.5c3.4-4.3 7.7-8.2 10.6-12.5 3.4-3.8 14.5-0.5 14.5 4.8v0.5c0 4.8-14.9 19.3-19.3 25.5-1.4 2.4-3.3 4.8-4.3 7.2-2.9 5.8-5.8 12.1-7.2 17.4-4.9 13.5 2.4 21.2 13.9 17.8 9.7-2.9 17.8-7.7 28-13 23.6-12.5 42.8-30.3 63-48.2q0.6-0.3 1.2-0.5c1.5-2.2 3-4 4.6-5.2 3.3-1.5 8.2-0.5 10.6 1.9 2.9 2.9-6.3 18.8-10.6 25.5 12.5-8.7 26.5-18.3 41.9-26.5l2.9-1.4 4.3-1.9c6.7-2.9 14-5.3 20.7-6.3 0 0 0.5 0 3.8-0.5 1.4 0 2.9 0 4.1 0.1 7.3-12.4 15-24.3 22.5-35.2 20.7-28.9 43.4-60.2 74.2-82.9 11.6-9.6 19.3-7.7 25-1.4 4.8 10.1-10.6 30.3-17.3 40.4l-2.9 4.4c-13.5 18.8-28.9 38-44.8 54.9-9.6 10.1-25.5 24.5-36.6 34.2l-4.3 3.8c-4.8 4.3-11.1 9.6-16.4 13v-0.5l-6.2 13.5c-5.3 11.1-10.6 23.6-11.6 38.1v1.9c0 4.8 17.8-3.9 21.2-5.3 17.3-8.7 27-15.9 40-25.1 3.8-2.4 7.7-5.7 12-8.6 8.7-6.3 17.3-13.5 25.5-20.7q1.3-1.2 2.6-2.3c6.2-6.2 14.2-12.8 23.2-18 7.7-4.8 20.2-9.6 29.4-2.8 7.7 6.2 3.4 15.9-1.5 22.6-4.8 6.7-11 12.5-18.3 17.8-6.7 4.8-15.4 10.1-23.6 13-4.8 2.4-12.5 3.4-18.3 1-0.4 0.5-0.4 0.5-0.9 0.9-2.9 6.3-5.8 13.5-1 20.7 9.7 4.9 27.5-3.3 37.1-7.2 23.6-9.6 45.3-23.1 71.3-42.4 5.3-3.8 12-7.7 16.8-11.5 2.4-1.4 5.8-3.8 9.1-4.8 6.8-8.4 15.2-15.2 25.8-18.8 4.3-1 10.1 1 12 4.8 2.4 4.3-4.8 6.3-14.4 12-1.5 1-10.6 8.7-17.3 22.2l-1.5 2.9-2.9 6.2-4.8 13.5c-3.8 10.1-6.7 22.2-9.1 30.8 8.6 0 17.8-3.3 26.9-6.2 8.7-2.9 10.6-3.9 12.5-4.8 10.2-5.3 13-7.2 21.7-12.5 10.1-6.3 18.3-12.6 27.9-19.8l15.9-12.5c5.8-4.3 12.1-11.1 18.3-15.4 2.9-1.9 6.8-1 9.7 0.9 1.9 1.5 2.4 3.4 0.9 5.8zm-221-130.5l-5.3 4.4c-15.4 13-29.8 29.3-41.9 44.7-15.4 19.3-29.8 39-42.4 59.8l1-0.5c10.1-9.2 21.2-19.8 30.8-30.4 20.2-23.6 43.4-49.6 57.8-78zm-25.7 154.1l-2.4 3.4c-2 2.9 29.8-9.2 45.7-33.2 0 0 1.9-3.4 1.5-6.8-4.4 1-8.7 3.4-13.5 6.8q-1.7 1.1-3.4 2.4-0.1 0.2-0.3 0.5c-4.4 3.6-8.8 7.8-13.2 11.4-4.9 4.8-9.6 10.1-14.4 15.5zm108.8-6.7c-12.3 8.4-26.4 18-42 26.7 1.9 1.4 3.5 3.5 5.6 5.5 6.3 6.3 13.5 12.6 24.1 15 4.4-16.8 8-32.8 14.6-48.8zm-434.2 130.1l-4.5 4.3q-4.6-4.9-10.4-4.9-4.9 0-8.2 3.3-3.4 3.4-3.4 8.2 0 3.4 1.5 6.1 1.5 2.6 4.2 4.1 2.7 1.5 6 1.5 2.8 0 5.1-1.1 2.4-1 5.2-3.8l4.4 4.6q-3.8 3.7-7.1 5.1-3.4 1.4-7.7 1.4-7.9 0-13-5-5-5-5-12.8 0-5.1 2.3-9.1 2.3-3.9 6.6-6.3 4.3-2.4 9.2-2.4 4.2 0 8.1 1.8 3.9 1.7 6.7 5zm30.1 17.2h-20.2q0.4 2.7 2.3 4.3 1.9 1.6 4.8 1.6 3.6 0 6.1-2.5l5.3 2.5q-2 2.8-4.8 4.2-2.7 1.3-6.5 1.3-5.9 0-9.6-3.7-3.7-3.7-3.7-9.3 0-5.8 3.7-9.5 3.7-3.8 9.3-3.8 5.9 0 9.6 3.7 3.7 3.8 3.7 10zm-6.2-4.9q-0.7-2.1-2.5-3.4-1.8-1.2-4.3-1.2-2.6 0-4.6 1.4-1.2 0.9-2.3 3.2zm30-19.1h6.3v34.8h-6.3v-2.7q-1.9 1.8-3.7 2.5-1.9 0.8-4.1 0.8-4.8 0-8.4-3.8-3.5-3.7-3.5-9.3 0-5.8 3.4-9.5 3.4-3.7 8.4-3.7 2.2 0 4.2 0.8 2 0.9 3.7 2.6zm-6.6 14.8q-3 0-4.9 2.1-1.9 2-1.9 5.3 0 3.2 1.9 5.3 2 2.1 4.9 2.1 2.9 0 4.9-2.1 2-2 2-5.4 0-3.2-2-5.3-2-2-4.9-2zm37.8-5.1h6.3v25.1h-6.3v-2.7q-1.8 1.7-3.7 2.5-1.9 0.8-4 0.8-4.9 0-8.5-3.8-3.5-3.7-3.5-9.3 0-5.8 3.4-9.6 3.5-3.7 8.4-3.7 2.2 0 4.2 0.9 2 0.8 3.7 2.5zm-6.6 5.2q-3 0-4.9 2-1.9 2.1-1.9 5.3 0 3.3 1.9 5.4 2 2.1 4.9 2.1 3 0 4.9-2.1 2-2.1 2-5.4 0-3.3-2-5.3-1.9-2-4.9-2zm17.8-5.2h5.4v3.2q0.9-1.9 2.3-2.8 1.5-1 3.2-1 1.2 0 2.5 0.6l-1.9 5.5q-1.1-0.6-1.8-0.6-1.5 0-2.5 1.8-1 1.8-1 7.1l0.1 1.2v10.1h-6.3zm61.7-2.9l-4.5 4.3q-4.6-4.8-10.4-4.8-4.9 0-8.2 3.3-3.4 3.3-3.4 8.2 0 3.4 1.5 6 1.5 2.6 4.2 4.1 2.7 1.5 6 1.5 2.8 0 5.2-1 2.3-1.1 5.1-3.8l4.4 4.6q-3.8 3.6-7.1 5.1-3.4 1.4-7.7 1.4-7.9 0-13-5-5-5.1-5-12.9 0-5.1 2.3-9 2.3-4 6.6-6.4 4.3-2.4 9.2-2.4 4.2 0 8.1 1.8 3.9 1.8 6.7 5zm16.8 2.3q3.5 0 6.7 1.8 3.1 1.8 4.9 4.8 1.7 3 1.7 6.6 0 3.5-1.7 6.6-1.8 3.1-4.9 4.8-3 1.7-6.7 1.8-5.4 0-9.2-3.9-3.9-3.8-3.9-9.3 0-5.9 4.4-9.8 3.8-3.4 8.7-3.4zm0.1 5.9q-3 0-4.9 2.1-2 2-2 5.2 0 3.2 2 5.3 1.9 2 4.9 2 2.9 0 4.9-2.1 1.9-2 1.9-5.2 0-3.3-1.9-5.3-1.9-2-4.9-2zm19.1-14.5h6.3v9.2h3.7v5.5h-3.7v19.6h-6.3v-19.6h-3.2v-5.5h3.2zm14.2 0h6.3v9.3h3.7v5.4h-3.7v19.7h-6.3v-19.7h-3.2v-5.4h3.2zm32 9.3h6.3v25.1h-6.3v-2.7q-1.9 1.7-3.7 2.5-1.9 0.8-4 0.8-4.9 0-8.5-3.8-3.5-3.7-3.5-9.3 0-5.8 3.4-9.5 3.5-3.8 8.4-3.8 2.2 0 4.2 0.9 2 0.8 3.7 2.5zm-6.6 5.2q-3 0-4.9 2-1.9 2.1-1.9 5.3 0 3.3 1.9 5.4 2 2.1 4.9 2.1 3 0 4.9-2.1 2-2 2-5.4 0-3.3-2-5.3-1.9-2-4.9-2zm37.9-5.2h6.2v21.5q0 6.4-2.6 9.4-3.4 4-10.3 4-3.7 0-6.3-0.9-2.5-0.9-4.2-2.7-1.8-1.8-2.6-4.4h7q0.9 1.1 2.4 1.6 1.4 0.6 3.4 0.6 2.6 0 4.1-0.8 1.6-0.8 2.2-2 0.7-1.3 0.7-4.3-1.7 1.7-3.5 2.4-1.9 0.7-4.2 0.7-5.1 0-8.6-3.6-3.5-3.7-3.5-9.2 0-6 3.7-9.6 3.4-3.3 8.1-3.3 2.1 0 4.1 0.8 1.9 0.8 3.9 2.6zm-6.6 5.3q-3 0-5 2-1.9 2-1.9 5 0 3.1 2 5.1 2 2 5 2 2.9 0 4.8-2 1.9-1.9 1.9-5.1 0-3.1-1.9-5-1.9-2-4.9-2zm44.3 9h-20.2q0.4 2.7 2.3 4.3 1.9 1.6 4.8 1.6 3.5 0 6.1-2.5l5.3 2.5q-2 2.8-4.8 4.2-2.7 1.3-6.5 1.3-5.9 0-9.6-3.7-3.7-3.7-3.7-9.3 0-5.7 3.7-9.5 3.7-3.8 9.3-3.8 5.9 0 9.6 3.8 3.7 3.8 3.7 10zm-6.3-5q-0.6-2-2.4-3.3-1.9-1.3-4.3-1.3-2.6 0-4.6 1.5-1.3 0.8-2.3 3.1zm-595.9 0.8h240.1v4.9h-240.1zm622.2 0h240.1v4.9h-240.1z"/>
	</g>
</svg>