<?xml version="1.0" encoding="UTF-8"?>
<!DOCTYPE svg PUBLIC "-//W3C//DTD SVG 1.1//EN" "http://www.w3.org/Graphics/SVG/1.1/DTD/svg11.dtd">
<!-- Creator: CorelDRAW X8 -->
<svg xmlns="http://www.w3.org/2000/svg" xml:space="preserve" width="344.124mm" height="110.278mm" version="1.1" style="shape-rendering:geometricPrecision; text-rendering:geometricPrecision; image-rendering:optimizeQuality; fill-rule:evenodd; clip-rule:evenodd"
viewBox="0 0 33062 10595"
 xmlns:xlink="http://www.w3.org/1999/xlink">
 <defs>
  <style type="text/css">
   <![CDATA[
    .fil0 {fill:#EFE4D7;fill-rule:nonzero}
   ]]>
  </style>
 </defs>
 <g id="Layer_x0020_1">
  <metadata id="CorelCorpID_0Corel-Layer"/>
  <g id="_2299270046096">
   <path class="fil0" d="M8212 4411l52 -72c215,-246 430,-472 666,-636 102,-71 195,-123 287,-143 10,72 -31,143 -31,143 -338,513 -1015,769 -974,708zm-3332 -3547c-31,0 -72,11 -82,41l10 -10 -10 10c0,0 -11,11 -21,21 -20,10 -20,30 -31,51l-41 103c-30,71 -71,133 -102,194 -82,133 -174,246 -256,379l-554 851c-184,277 -369,564 -543,851l-523 851c-492,789 -984,1609 -1343,2470 -41,0 -71,20 -92,61 -10,31 -51,72 -61,123 -11,93 41,154 102,205 72,62 246,93 287,-10 226,-605 523,-1179 841,-1732l512 -841 513 -850c297,-482 604,-954 912,-1435 82,-113 164,-236 236,-359 71,-103 153,-205 215,-308 72,-112 143,-225 195,-348 20,-62 61,-133 30,-195 -30,-82 -112,-123 -194,-123zm6170 -656c-31,-71 -123,-112 -205,-123 -584,-82 -1179,-92 -1763,-82 -656,0 -1312,31 -1968,72 -1271,72 -2542,174 -3803,318 -574,71 -1137,143 -1711,195 -257,30 -523,51 -779,92 -226,30 -462,71 -687,61 -82,0 -164,62 -123,144 51,92 164,123 256,133 267,0 533,-51 789,-82 318,-51 646,-72 964,-102 656,-72 1302,-154 1958,-216 635,-71 1271,-123 1906,-174 636,-51 1261,-92 1896,-123 554,-21 1097,-51 1650,-51 123,0 246,10 369,10l93 0 10 0 10 0 41 0c62,10 133,10 195,10 102,0 205,10 307,21 0,20 11,41 31,61 51,62 164,103 236,72 102,-31 205,-51 287,-113 51,-20 61,-72 41,-123zm-2550 4356c174,-61 358,-174 502,-276 153,-113 287,-236 389,-380 103,-143 195,-348 31,-481 -195,-144 -461,-41 -625,61 -58,34 -114,70 -167,107 -11,4 -21,9 -30,16 -154,123 -328,236 -1097,789 -235,164 -1055,708 -1199,667l41 -144c93,-287 257,-553 400,-830 51,-103 103,-215 133,-328 31,-82 52,-185 21,-267 -31,-92 -164,-112 -236,-92 -164,31 -318,123 -451,226 -164,133 -318,276 -461,430 -185,205 -369,420 -554,625 154,-317 318,-625 472,-932 287,-554 564,-1107 902,-1640 102,-164 215,-328 328,-482 318,-431 389,-533 533,-687l51 -41 31 -20 10 0c21,10 51,10 72,0l72 -51c71,-72 -41,-175 -165,-175 -215,0 -368,144 -491,297 -523,697 -943,1364 -1333,2091l-584 1138c-195,390 -390,779 -492,1199 -10,62 41,103 82,123 61,41 154,52 205,-10 287,-266 523,-594 779,-892 143,-174 297,-338 461,-502 144,-143 267,-266 430,-369 -51,144 -133,287 -204,420l-216 431c-51,113 -112,236 -133,359 -20,133 10,246 133,317 144,82 338,41 482,-20 205,-82 410,-205 595,-328l491 -318c25,-17 50,-34 74,-52 -59,128 -100,272 -72,401 62,194 257,307 451,328 164,10 339,-11 492,-52 287,-71 625,-235 892,-379 389,-205 738,-441 1035,-646l328 -225 41 -31 133 -102c11,-11 31,-31 31,-31l21 -31c30,-102 -123,-164 -205,-133 -72,20 -144,72 -195,102 -103,82 -246,164 -359,246 -553,410 -1015,697 -1517,902 -205,82 -584,257 -789,154 -102,-154 -41,-307 21,-441 10,-10 10,-10 20,-20 123,51 287,31 390,-21z"/>
   <path class="fil0" d="M29802 6550c-156,380 -242,762 -348,1164 -253,-58 -425,-207 -575,-357 -49,-49 -88,-98 -134,-131 374,-209 711,-437 1003,-639l54 -37zm-3418 -1619c-230,253 -494,506 -736,725l-23 11c299,-494 644,-966 1012,-1426 288,-368 633,-759 1001,-1069l126 -104c-345,679 -897,1300 -1380,1863zm1110 1446c106,-85 211,-187 316,-273 3,-4 5,-7 7,-11 27,-20 53,-39 80,-58 115,-81 218,-138 322,-161 11,80 -35,161 -35,161 -379,575 -1138,862 -1092,793l58 -80c114,-131 228,-256 344,-371zm5525 -330c-69,-46 -161,-70 -230,-24 -150,104 -299,265 -437,368l-380 299c-230,173 -425,322 -667,472 -207,126 -276,172 -517,299 -46,23 -92,46 -299,115 -218,69 -437,149 -644,149 58,-207 127,-494 219,-736l115 -322 69 -149 34 -69c161,-322 380,-506 414,-529 230,-138 402,-184 345,-287 -46,-92 -184,-138 -287,-115 -253,86 -455,249 -617,449 -79,23 -159,80 -216,114 -115,92 -276,184 -403,276 -621,460 -1138,782 -1702,1012 -230,92 -655,287 -885,172 -115,-172 -46,-345 23,-494 12,-12 12,-12 23,-23 138,57 322,34 437,-23 196,-69 402,-196 563,-311 173,-126 322,-264 437,-425 115,-161 219,-391 35,-540 -219,-161 -518,-46 -702,68 -214,124 -406,281 -554,428 -21,18 -41,37 -61,55 -196,173 -403,345 -610,495 -103,69 -195,149 -287,207 -311,218 -541,391 -955,598 -80,34 -506,241 -506,126l0 -46c23,-345 150,-644 276,-908l150 -322 0 11c126,-80 276,-207 391,-310l103 -92c265,-230 644,-575 874,-816 380,-403 748,-863 1070,-1311l69 -104c161,-241 528,-724 413,-966 -138,-149 -321,-195 -597,35 -736,540 -1277,1288 -1771,1978 -181,260 -365,545 -538,840 -30,-1 -65,-1 -97,-1 -81,11 -92,11 -92,11 -161,24 -334,81 -495,150l-103 46 -69 34c-368,196 -702,426 -1001,633 104,-161 322,-541 253,-610 -57,-57 -172,-80 -253,-45 -36,29 -73,72 -108,124 -10,4 -19,8 -28,14 -483,425 -943,850 -1507,1149 -241,127 -437,242 -667,311 -276,80 -448,-104 -333,-426 34,-126 103,-276 172,-414 23,-57 69,-115 104,-172 103,-150 460,-494 460,-610l0 -11c0,-127 -265,-207 -345,-115 -69,104 -173,195 -253,299l-12 11 -356 322 -667 713c-207,242 -414,426 -655,552 -12,12 -23,12 -35,12 -34,-92 -11,-196 23,-288 69,-218 218,-391 356,-552 138,-172 311,-322 449,-437 161,-115 333,-218 517,-299 35,-11 115,-34 161,0 69,35 161,35 196,-45 57,-127 -92,-208 -196,-242 -92,-12 -207,12 -287,34 -41,14 -80,28 -119,42 -18,4 -38,11 -59,24 -163,65 -304,140 -432,233 -101,73 -197,152 -287,236 -168,116 -373,260 -629,443 -262,187 -1184,793 -1345,747l46 -161c103,-322 287,-621 448,-931 58,-115 115,-242 150,-368 34,-92 57,-207 23,-299 -35,-104 -184,-126 -265,-104 -184,35 -356,138 -506,253 -184,150 -356,311 -517,483 -207,230 -414,472 -621,702 172,-357 356,-702 529,-1047 322,-621 632,-1241 1012,-1839 115,-184 241,-368 368,-541 356,-483 437,-598 598,-770l57 -46 35 -23 11 0c23,11 58,11 81,0l80 -58c81,-80 -46,-195 -184,-195 -241,0 -414,161 -552,333 -586,782 -1058,1530 -1495,2346l-317 619c-159,39 -324,152 -419,220 -219,138 -414,288 -621,437 -552,414 -1093,828 -1656,1242 -598,437 -1207,874 -1840,1265 -287,173 -575,334 -862,472 -1185,586 -1587,253 -1449,-955 69,-471 218,-931 425,-1357 414,-908 1047,-1747 1714,-2495 299,-345 609,-667 931,-977 127,-127 265,-253 403,-368 218,-219 3334,-2702 3334,-1196 -34,253 -138,506 -230,747 -46,115 -103,219 -161,334 -46,103 -184,184 -57,287 69,58 184,81 264,35 46,-23 81,-81 104,-115 46,-81 92,-161 126,-242 92,-207 173,-414 242,-621 126,-368 115,-759 -207,-1000 -276,-241 -690,-218 -1012,-126 -391,103 -759,298 -1104,505 -587,357 -1138,771 -1644,1219 -656,587 -1265,1231 -1817,1909 -633,793 -1208,1667 -1518,2645 -149,437 -230,908 -195,1368 11,242 57,495 229,690 334,368 897,310 1323,172 609,-195 1173,-528 1702,-873 632,-403 1241,-840 1851,-1288 529,-391 1058,-805 1587,-1185 91,-72 183,-140 277,-205l-58 113c-219,437 -437,874 -552,1346 -12,69 46,115 92,138 69,46 172,57 230,-12 322,-299 586,-667 874,-1000 161,-196 333,-380 517,-564 161,-161 299,-299 483,-414 -57,161 -149,322 -230,472l-241 483c-58,126 -127,264 -150,402 -23,150 12,276 150,357 161,92 379,46 540,-23 230,-92 460,-230 667,-368l336 -217c-42,96 -70,198 -75,309 0,126 46,264 150,345 149,103 310,103 448,46 127,-46 230,-104 322,-184 115,-81 218,-219 333,-322 127,-115 242,-219 345,-345 -46,161 -69,345 23,483 150,253 506,287 782,253 173,-35 334,-104 794,-357 149,-80 241,-149 437,-276 156,-101 302,-207 442,-318l-29 54 -69 138c-104,195 -127,218 -345,552l-138 207c-23,46 46,149 103,172 46,12 184,46 207,0 12,-11 23,-34 35,-57 80,-115 103,-150 161,-253l264 -299 264 -242 288 -276 207 -161 276 -161 126 -80 219 -127 115 -57c103,-58 218,-115 345,-172 64,-26 125,-48 184,-63 -116,212 -224,426 -320,637 -103,242 -218,518 -264,782 -12,58 -12,92 -23,196 -46,563 517,414 862,276 219,-92 334,-161 472,-242l115 -69c234,-150 456,-307 670,-465 -37,109 -55,223 -31,327 69,219 287,345 506,368 183,12 379,-11 551,-57 293,-73 632,-231 916,-380 80,177 284,311 630,679 58,69 127,138 207,184 173,69 357,69 403,-127 11,-34 23,-69 34,-103 92,0 196,-12 288,-23 460,-69 724,-196 1138,-414 310,-173 598,-357 874,-552 195,-138 276,-219 460,-357 92,-69 172,-149 253,-218 103,-92 184,-150 253,-242 34,-57 23,-103 -23,-137z"/>
   <path class="fil0" d="M19381 9693l-108 102c-74,-77 -156,-116 -248,-116 -78,0 -143,27 -197,80 -53,52 -79,118 -79,195 0,54 12,102 35,144 24,42 57,75 100,99 43,24 91,35 143,35 45,0 86,-8 123,-24 38,-17 78,-48 123,-92l105 110c-60,58 -117,99 -170,121 -53,23 -114,35 -183,35 -126,0 -229,-40 -309,-120 -81,-80 -121,-183 -121,-308 0,-80 18,-152 55,-215 37,-63 89,-113 157,-152 68,-38 142,-57 221,-57 66,0 131,14 193,42 62,29 115,69 160,121z"/>
   <path class="fil0" d="M19950 9986c-10,-32 -29,-59 -59,-80 -29,-20 -63,-30 -102,-30 -42,0 -78,11 -110,34 -20,15 -38,40 -55,76l326 0zm150 118l-483 0c7,42 26,77 56,102 30,25 68,38 115,38 56,0 104,-20 144,-59l127 59c-32,45 -70,78 -114,100 -44,21 -96,32 -156,32 -94,0 -170,-30 -229,-89 -59,-59 -89,-133 -89,-222 0,-91 30,-167 89,-228 59,-60 132,-90 221,-90 95,0 172,30 231,90 59,60 88,140 88,238l0 29z"/>
   <path class="fil0" d="M20508 9885c-47,0 -86,16 -116,49 -31,33 -46,75 -46,126 0,52 15,95 47,128 31,33 70,50 116,50 47,0 86,-16 117,-49 31,-33 47,-76 47,-129 0,-52 -16,-95 -47,-127 -31,-32 -70,-48 -118,-48zm158 -355l150 0 0 831 -150 0 0 -64c-29,28 -59,48 -88,60 -30,13 -62,19 -96,19 -78,0 -145,-30 -202,-90 -56,-60 -85,-134 -85,-223 0,-93 28,-169 83,-228 54,-59 121,-88 199,-88 36,0 70,7 102,20 31,14 60,34 87,61l0 -298z"/>
   <path class="fil0" d="M21253 9885c-46,0 -85,16 -116,49 -31,33 -46,75 -46,126 0,52 16,95 47,128 32,33 70,50 116,50 47,0 87,-16 118,-49 31,-33 47,-76 47,-129 0,-52 -16,-95 -47,-127 -31,-32 -71,-48 -119,-48zm159 -123l150 0 0 599 -150 0 0 -64c-30,28 -59,48 -89,60 -29,13 -61,19 -96,19 -78,0 -145,-30 -201,-90 -57,-60 -85,-134 -85,-223 0,-93 27,-169 82,-228 55,-59 121,-88 200,-88 36,0 69,7 101,20 32,13 61,34 88,60l0 -65z"/>
   <path class="fil0" d="M21678 9762l130 0 0 76c14,-30 33,-52 56,-68 23,-15 48,-23 75,-23 20,0 40,5 61,15l-46 130c-18,-9 -32,-13 -44,-13 -23,0 -42,14 -58,43 -16,29 -24,85 -24,168l1 29 0 242 -151 0 0 -599z"/>
   <path class="fil0" d="M23153 9693l-108 102c-74,-77 -157,-116 -249,-116 -77,0 -143,27 -196,80 -53,52 -80,118 -80,195 0,54 12,102 36,144 23,42 57,75 100,99 43,24 91,35 143,35 45,0 86,-8 123,-24 37,-17 78,-48 123,-92l104 110c-59,58 -116,99 -169,121 -54,23 -115,35 -183,35 -126,0 -229,-40 -310,-120 -80,-80 -120,-183 -120,-308 0,-80 18,-152 55,-215 36,-63 89,-113 157,-152 68,-38 142,-57 220,-57 67,0 132,14 194,42 62,29 115,69 160,121z"/>
   <path class="fil0" d="M23556 9888c-47,0 -86,16 -117,49 -31,32 -47,74 -47,124 0,52 16,94 46,126 31,33 70,49 117,49 47,0 86,-17 118,-49 31,-33 47,-75 47,-126 0,-51 -16,-93 -47,-125 -30,-32 -70,-48 -117,-48zm-3 -141c57,0 110,14 160,42 50,29 89,67 117,115 28,49 42,101 42,157 0,56 -14,109 -42,158 -28,49 -67,88 -115,115 -49,28 -102,42 -161,42 -86,0 -160,-31 -221,-92 -61,-61 -91,-135 -91,-222 0,-94 34,-171 103,-234 61,-54 130,-81 208,-81z"/>
   <polygon class="fil0" points="24012,9540 24162,9540 24162,9762 24252,9762 24252,9891 24162,9891 24162,10361 24012,10361 24012,9891 23935,9891 23935,9762 24012,9762 "/>
   <polygon class="fil0" points="24351,9540 24501,9540 24501,9762 24590,9762 24590,9891 24501,9891 24501,10361 24351,10361 24351,9891 24274,9891 24274,9762 24351,9762 "/>
   <path class="fil0" d="M24957 9885c-47,0 -86,16 -116,49 -31,33 -47,75 -47,126 0,52 16,95 48,128 31,33 70,50 115,50 48,0 87,-16 118,-49 31,-33 47,-76 47,-129 0,-52 -16,-95 -47,-127 -31,-32 -70,-48 -118,-48zm158 -123l150 0 0 599 -150 0 0 -64c-29,28 -59,48 -88,60 -30,13 -62,19 -96,19 -78,0 -145,-30 -202,-90 -56,-60 -85,-134 -85,-223 0,-93 28,-169 83,-228 54,-59 121,-88 199,-88 36,0 70,7 101,20 32,13 61,34 88,60l0 -65z"/>
   <path class="fil0" d="M25704 9888c-47,0 -87,16 -118,47 -31,32 -46,72 -46,120 0,49 16,90 48,122 31,32 71,48 119,48 47,0 86,-16 116,-47 30,-31 46,-72 46,-122 0,-50 -16,-90 -46,-121 -31,-31 -70,-47 -119,-47zm158 -126l149 0 0 513c0,101 -21,175 -61,223 -55,65 -138,97 -248,97 -59,0 -109,-7 -149,-22 -40,-15 -74,-36 -101,-65 -28,-28 -48,-63 -62,-104l167 0c15,17 34,30 57,38 23,9 51,13 82,13 41,0 74,-6 98,-19 25,-12 42,-28 53,-48 10,-19 15,-53 15,-101 -27,26 -55,45 -84,57 -29,11 -62,17 -99,17 -80,0 -149,-29 -205,-87 -55,-58 -83,-131 -83,-220 0,-95 29,-171 88,-229 54,-52 118,-78 192,-78 35,0 67,6 98,19 31,13 62,33 93,62l0 -66z"/>
   <path class="fil0" d="M26613 9986c-10,-32 -30,-59 -59,-80 -29,-20 -63,-30 -102,-30 -42,0 -78,11 -110,34 -20,15 -38,40 -55,76l326 0zm150 118l-483 0c7,42 25,77 56,102 30,25 68,38 115,38 56,0 104,-20 144,-59l126 59c-31,45 -69,78 -113,100 -44,21 -96,32 -156,32 -94,0 -170,-30 -229,-89 -59,-59 -89,-133 -89,-222 0,-91 30,-167 89,-228 59,-60 132,-90 221,-90 95,0 171,30 231,90 59,60 88,140 88,238l0 29z"/>
   <polygon class="fil0" points="12384,10004 18118,10004 18118,10121 12384,10121 "/>
   <polygon class="fil0" points="27241,10004 32975,10004 32975,10121 27241,10121 "/>
  </g>
 </g>
</svg>
