<?xml version="1.0" encoding="UTF-8"?>
<!DOCTYPE svg PUBLIC "-//W3C//DTD SVG 1.1//EN" "http://www.w3.org/Graphics/SVG/1.1/DTD/svg11.dtd">
<!-- Creator: CorelDRAW X8 -->
<svg xmlns="http://www.w3.org/2000/svg" xml:space="preserve" width="17.656in" height="14.1614in" version="1.1" style="shape-rendering:geometricPrecision; text-rendering:geometricPrecision; image-rendering:optimizeQuality; fill-rule:evenodd; clip-rule:evenodd"
viewBox="0 0 17686 14186"
 xmlns:xlink="http://www.w3.org/1999/xlink">
 <defs>
  <style type="text/css">
   <![CDATA[
    .str1 {stroke:black;stroke-width:3.33644}
    .str0 {stroke:#373435;stroke-width:6.95288}
    .fil1 {fill:none}
    .fil0 {fill:#F0E6D8}
    .fil2 {fill:#373435;fill-rule:nonzero}
   ]]>
  </style>
 </defs>
 <g id="Layer_x0020_1">
  <metadata id="CorelCorpID_0Corel-Layer"/>
  <g id="plan_b">
   <g>
    <rect class="fil0 str0" x="2715" y="9341" width="2020" height="4841"/>
    <path class="fil1 str0" d="M3319 14182c-16,-262 -162,-442 -468,-477l0 477"/>
    <g>
     <polygon class="fil2" points="3457,11181 3436,11181 3373,11212 3373,11248 3423,11223 3423,11390 3457,11390 "/>
     <path id="1" class="fil2" d="M3545 11298l13 0c22,0 38,13 38,33 0,19 -15,32 -36,32 -25,0 -38,-15 -41,-36l-34 0c2,39 32,66 75,66 43,0 69,-27 69,-63 0,-19 -10,-38 -31,-47 17,-7 27,-25 27,-47 0,-34 -24,-59 -65,-59 -40,0 -66,27 -70,64l34 0c2,-19 14,-33 36,-33 20,0 32,13 32,30 0,20 -15,30 -35,30l-12 0 0 30z"/>
     <polygon id="2" class="fil2" points="3762,11181 3727,11181 3648,11322 3648,11346 3742,11346 3742,11390 3775,11390 3775,11346 3810,11346 3810,11317 3775,11317 3775,11268 3742,11268 3742,11317 3686,11317 "/>
     <path id="3" class="fil2" d="M3885 11298l13 0c23,0 38,13 38,33 0,19 -15,32 -36,32 -24,0 -38,-15 -40,-36l-35 0c3,39 32,66 75,66 44,0 70,-27 70,-63 0,-19 -10,-38 -32,-47 17,-7 28,-25 28,-47 0,-34 -25,-59 -66,-59 -39,0 -65,27 -70,64l35 0c1,-19 13,-33 35,-33 21,0 33,13 33,30 0,20 -15,30 -36,30l-12 0 0 30z"/>
     <polygon id="4" class="fil2" points="3156,11562 3156,11724 3262,11724 3262,11700 3183,11700 3183,11653 3255,11653 3255,11629 3183,11629 3183,11586 3262,11586 3262,11562 "/>
     <path id="5" class="fil2" d="M3421 11606c0,14 -15,28 -31,47l-49 53 0 18 109 0 0 -24 -71 0 35 -39c17,-18 33,-35 33,-55 0,-29 -19,-47 -51,-47 -31,0 -52,21 -55,51l28 0c2,-15 10,-27 27,-27 15,0 25,10 25,23z"/>
     <polygon id="6" class="fil2" points="3528,11562 3512,11562 3463,11586 3463,11614 3501,11595 3501,11724 3528,11724 "/>
     <path id="7" class="fil2" d="M3554 11691c3,22 22,36 50,36 26,0 46,-14 46,-38 0,-17 -10,-28 -31,-33l-24 -6c-9,-2 -13,-5 -13,-11 0,-9 10,-13 19,-13 12,0 19,5 22,13l26 0c-4,-22 -20,-35 -48,-35 -25,0 -44,16 -44,37 0,19 12,28 29,32l24 6c10,2 14,6 14,12 0,10 -8,14 -20,14 -12,0 -20,-5 -23,-14l-27 0z"/>
     <path id="8" class="fil2" d="M3682 11693c0,23 15,34 36,34 8,0 15,-1 20,-4l0 -24c-4,2 -10,4 -15,4 -9,0 -15,-4 -15,-13l0 -61 27 0 0 -22 -27 0 0 -32 -26 0 0 32 -19 0 0 22 19 0 0 64z"/>
     <path id="9" class="fil2" d="M3875 11562l-63 162 28 0 17 -45 62 0 17 45 28 0 -62 -162 -27 0zm13 33l22 61 -44 0 22 -61z"/>
     <polygon id="10" class="fil2" points="4040,11724 4085,11607 4057,11607 4027,11693 3996,11607 3968,11607 4012,11724 "/>
     <path id="11" class="fil2" d="M4176 11688c-3,11 -12,17 -25,17 -17,0 -29,-13 -30,-33l81 0 0 -10c0,-34 -19,-58 -52,-58 -32,0 -55,27 -55,62 0,36 23,61 56,61 28,0 46,-16 49,-39l-24 0zm-25 -62c16,0 24,12 24,26l-53 0c3,-17 14,-26 29,-26z"/>
     <path id="12" class="fil2" d="M3352 12033c43,0 71,-23 71,-65 0,-44 -28,-66 -71,-66l-81 0 0 209 35 0 0 -78 46 0zm36 -65c0,20 -13,34 -37,34l-45 0 0 -69 45 0c24,0 37,14 37,35z"/>
     <polygon id="13" class="fil2" points="3489,11890 3455,11890 3455,12111 3489,12111 "/>
     <path id="14" class="fil2" d="M3648 12111l0 -99c0,-34 -22,-56 -61,-56 -31,0 -55,20 -59,46l33 0c3,-11 12,-17 26,-17 19,0 29,12 29,28l0 12c-7,-4 -22,-9 -36,-9 -33,0 -59,20 -59,49 0,31 26,49 57,49 17,0 32,-6 38,-11l0 8 32 0zm-32 -40c-4,10 -18,15 -31,15 -16,0 -32,-6 -32,-21 0,-16 16,-22 32,-22 13,0 27,6 31,15l0 13z"/>
     <path id="15" class="fil2" d="M3688 12111l35 0 0 -99c3,-15 17,-25 31,-25 20,0 29,13 29,31l0 93 34 0 0 -98c0,-34 -19,-57 -53,-57 -18,0 -33,9 -41,18l0 -14 -35 0 0 151z"/>
     <path id="16" class="fil2" d="M4052 12003c16,-5 27,-22 27,-44 0,-38 -27,-57 -71,-57l-73 0 0 209 80 0c44,0 71,-21 71,-60 0,-22 -14,-41 -34,-48zm-83 -13l0 -57 39 0c24,0 37,8 37,28 0,20 -13,29 -37,29l-39 0zm0 29l46 0c23,0 36,12 36,31 0,19 -13,31 -36,31l-46 0 0 -62z"/>
     <polygon id="17" class="fil2" points="3371,12283 3354,12283 3305,12308 3305,12335 3344,12316 3344,12446 3371,12446 "/>
     <path id="18" class="fil2" d="M3439 12374l10 0c17,0 29,10 29,26 0,15 -11,25 -28,25 -19,0 -29,-12 -31,-28l-27 0c2,30 25,51 59,51 33,0 53,-21 53,-49 0,-15 -7,-30 -24,-37 13,-5 21,-19 21,-36 0,-27 -19,-46 -51,-46 -30,0 -51,21 -54,50l27 0c1,-15 10,-26 28,-26 15,0 24,10 24,23 0,16 -11,24 -27,24l-9 0 0 23z"/>
     <path id="19" class="fil2" d="M3607 12335c0,19 -12,32 -31,32 -18,0 -30,-13 -30,-32 0,-19 12,-32 30,-32 19,0 31,13 31,32zm-85 72c7,26 23,41 53,41 37,0 60,-37 60,-87 0,-20 -2,-35 -9,-49 -11,-22 -30,-32 -50,-32 -35,0 -55,26 -55,55 0,29 20,54 53,54 17,0 31,-8 37,-20l0 2c0,28 -14,55 -36,55 -14,0 -22,-7 -25,-19l-28 0z"/>
     <polygon id="20" class="fil2" points="3754,12304 3754,12283 3646,12283 3646,12307 3725,12307 3670,12446 3697,12446 "/>
     <path id="21" class="fil2" d="M3769 12412c4,23 23,36 51,36 26,0 45,-14 45,-37 0,-18 -10,-29 -30,-34l-25 -6c-8,-2 -12,-5 -12,-10 0,-10 10,-14 19,-14 12,0 19,5 21,13l26 0c-4,-21 -19,-35 -47,-35 -26,0 -44,16 -44,37 0,20 12,29 29,33l24 5c10,3 14,6 14,13 0,9 -8,14 -20,14 -12,0 -21,-5 -24,-15l-27 0z"/>
     <path id="22" class="fil2" d="M3884 12429c0,11 8,19 18,19 10,0 18,-8 18,-19 0,-10 -8,-18 -18,-18 -10,0 -18,8 -18,18z"/>
     <path id="23" class="fil2" d="M4002 12274c-5,-2 -10,-3 -18,-3 -22,0 -39,13 -39,39l0 18 -20 0 0 22 20 0 0 96 26 0 0 -96 26 0 0 -22 -26 0 0 -16c0,-12 7,-19 18,-19 4,0 9,2 13,4l0 -23z"/>
     <path id="24" class="fil2" d="M4002 12429c0,11 8,19 18,19 10,0 18,-8 18,-19 0,-10 -8,-18 -18,-18 -10,0 -18,8 -18,18z"/>
     <line class="fil1 str1" x1="3185" y1="12187" x2="4172" y2= "12187" />
    </g>
   </g>
   <g>
    <rect class="fil0 str0" x="4745" y="9341" width="2021" height="4841"/>
    <path class="fil1 str0" d="M6166 14182c16,-262 162,-442 468,-477l0 477"/>
    <g>
     <polygon class="fil2" points="5543,11181 5523,11181 5460,11212 5460,11248 5509,11223 5509,11390 5543,11390 "/>
     <path id="1" class="fil2" d="M5631 11298l13 0c22,0 38,13 38,33 0,19 -15,32 -36,32 -24,0 -38,-15 -40,-36l-35 0c2,39 32,66 75,66 44,0 70,-27 70,-63 0,-19 -10,-38 -32,-47 17,-7 27,-25 27,-47 0,-34 -24,-59 -65,-59 -39,0 -66,27 -70,64l35 0c1,-19 13,-33 35,-33 20,0 32,13 32,30 0,20 -15,30 -35,30l-12 0 0 30z"/>
     <polygon id="2" class="fil2" points="5849,11181 5813,11181 5734,11322 5734,11346 5829,11346 5829,11390 5861,11390 5861,11346 5896,11346 5896,11317 5861,11317 5861,11268 5829,11268 5829,11317 5773,11317 "/>
     <path id="3" class="fil2" d="M5989 11282c23,0 37,17 37,40 0,24 -14,41 -36,41 -24,0 -36,-15 -39,-36l-35 0c4,40 32,66 74,66 40,0 69,-29 69,-71 0,-41 -27,-70 -66,-70 -16,0 -29,6 -36,11l0 -51 89 0 0 -31 -118 0 0 118 27 0c7,-9 19,-17 34,-17z"/>
     <polygon id="4" class="fil2" points="5243,11562 5243,11724 5350,11724 5350,11700 5270,11700 5270,11653 5342,11653 5342,11629 5270,11629 5270,11586 5350,11586 5350,11562 "/>
     <path id="5" class="fil2" d="M5508 11606c0,14 -14,28 -31,47l-48 53 0 18 108 0 0 -24 -70 0 35 -39c16,-19 33,-35 33,-55 0,-29 -19,-47 -52,-47 -30,0 -51,21 -54,51l28 0c1,-15 10,-27 26,-27 15,0 25,10 25,23z"/>
     <polygon id="6" class="fil2" points="5616,11562 5599,11562 5550,11586 5550,11614 5589,11595 5589,11724 5616,11724 "/>
     <path id="7" class="fil2" d="M5641 11690c4,23 23,37 50,37 27,0 46,-14 46,-38 0,-17 -10,-28 -30,-33l-25 -6c-9,-2 -12,-5 -12,-11 0,-9 9,-13 19,-13 12,0 19,5 21,13l26 0c-4,-22 -19,-35 -47,-35 -26,0 -45,16 -45,37 0,19 13,28 29,32l25 6c10,2 14,6 14,12 0,10 -8,14 -20,14 -12,0 -21,-5 -24,-15l-27 0z"/>
     <path id="8" class="fil2" d="M5769 11693c0,23 15,34 36,34 8,0 16,-2 20,-4l0 -24c-4,2 -10,4 -15,4 -9,0 -14,-4 -14,-13l0 -61 27 0 0 -22 -27 0 0 -32 -27 0 0 32 -18 0 0 22 18 0 0 64z"/>
     <path id="9" class="fil2" d="M5963 11562l-63 162 28 0 16 -45 63 0 17 45 28 0 -63 -162 -26 0zm13 33l22 60 -45 0 23 -60z"/>
     <polygon id="10" class="fil2" points="6127,11724 6172,11607 6144,11607 6114,11693 6084,11607 6055,11607 6100,11724 "/>
     <path id="11" class="fil2" d="M6264 11688c-3,11 -13,17 -26,17 -17,0 -29,-13 -29,-33l80 0 0 -10c0,-34 -18,-58 -51,-58 -32,0 -56,27 -56,62 0,36 23,61 56,61 29,0 46,-16 50,-39l-24 0zm-26 -62c16,0 24,12 25,26l-54 0c4,-17 14,-26 29,-26z"/>
     <path id="12" class="fil2" d="M5439 12033c43,0 72,-23 72,-65 0,-44 -29,-66 -72,-66l-81 0 0 209 36 0 0 -78 45 0zm37 -65c0,20 -13,34 -38,34l-44 0 0 -69 44 0c25,0 38,14 38,35z"/>
     <polygon id="13" class="fil2" points="5576,11890 5542,11890 5542,12111 5576,12111 "/>
     <path id="14" class="fil2" d="M5736 12111l0 -99c0,-34 -23,-56 -61,-56 -31,0 -55,20 -60,46l33 0c4,-11 12,-17 26,-17 20,0 29,12 29,28l0 12c-6,-4 -21,-9 -35,-9 -34,0 -59,20 -59,48 0,32 25,50 57,50 17,0 32,-6 37,-11l0 8 33 0zm-33 -40c-4,10 -17,15 -31,15 -15,0 -31,-6 -31,-22 0,-15 16,-21 31,-21 14,0 27,6 31,15l0 13z"/>
     <path id="15" class="fil2" d="M5776 12111l34 0 0 -99c4,-15 17,-25 32,-25 19,0 28,13 28,31l0 93 35 0 0 -98c0,-34 -20,-57 -54,-57 -18,0 -33,9 -41,18l0 -14 -34 0 0 151z"/>
     <path id="16" class="fil2" d="M6140 12003c15,-5 27,-22 27,-44 0,-38 -27,-57 -71,-57l-74 0 0 209 81 0c43,0 71,-21 71,-60 0,-22 -15,-41 -34,-48zm-83 -13l0 -57 39 0c24,0 37,8 37,28 0,20 -13,29 -37,29l-39 0zm0 29l45 0c24,0 37,12 37,31 0,19 -13,31 -37,31l-45 0 0 -62z"/>
     <polygon id="17" class="fil2" points="5449,12283 5433,12283 5384,12308 5384,12335 5422,12316 5422,12446 5449,12446 "/>
     <path id="18" class="fil2" d="M5517 12374l10 0c17,0 30,10 30,26 0,15 -12,25 -29,25 -18,0 -29,-12 -31,-28l-27 0c2,30 25,51 59,51 33,0 54,-21 54,-49 0,-15 -8,-30 -25,-37 13,-5 21,-19 21,-36 0,-27 -18,-46 -51,-46 -30,0 -51,21 -54,50l27 0c1,-15 10,-26 28,-26 15,0 25,10 25,23 0,16 -12,24 -28,24l-9 0 0 23z"/>
     <path id="19" class="fil2" d="M5685 12335c0,19 -12,32 -31,32 -18,0 -30,-13 -30,-32 0,-19 12,-32 30,-32 19,0 31,13 31,32zm-85 72c7,26 23,41 53,41 37,0 61,-37 61,-87 0,-20 -3,-35 -10,-49 -11,-22 -29,-32 -49,-32 -36,0 -56,26 -56,55 0,29 20,54 53,54 17,0 31,-8 37,-20l0 2c0,28 -14,55 -36,55 -14,0 -21,-7 -25,-19l-28 0z"/>
     <path id="20" class="fil2" d="M5762 12394c0,-20 12,-33 31,-33 18,0 30,13 30,33 0,19 -12,31 -30,31 -19,0 -31,-12 -31,-31zm85 -72c-6,-27 -23,-42 -52,-42 -38,0 -61,37 -61,88 0,20 3,35 10,49 11,22 29,31 49,31 35,0 56,-25 56,-55 0,-29 -20,-54 -53,-54 -18,0 -32,9 -38,21l0 -3c0,-27 15,-54 37,-54 13,0 21,7 25,19l27 0z"/>
     <path id="21" class="fil2" d="M5866 12412c4,23 23,36 50,36 27,0 46,-14 46,-37 0,-18 -10,-29 -30,-34l-25 -6c-9,-2 -12,-5 -12,-10 0,-10 9,-14 19,-14 12,0 19,5 21,13l26 0c-4,-21 -19,-35 -47,-35 -26,0 -45,16 -45,37 0,20 13,29 29,33l25 5c10,3 14,6 14,13 0,9 -8,14 -20,14 -12,0 -21,-5 -24,-15l-27 0z"/>
     <path id="22" class="fil2" d="M5980 12429c0,11 8,19 18,19 10,0 18,-8 18,-19 0,-10 -8,-18 -18,-18 -10,0 -18,8 -18,18z"/>
     <path id="23" class="fil2" d="M6099 12274c-5,-2 -10,-3 -18,-3 -22,0 -39,13 -39,39l0 18 -20 0 0 22 20 0 0 96 26 0 0 -96 26 0 0 -22 -26 0 0 -16c0,-12 7,-19 18,-19 4,0 9,2 13,4l0 -23z"/>
     <path id="24" class="fil2" d="M6099 12429c0,11 8,19 18,19 10,0 18,-8 18,-19 0,-10 -8,-18 -18,-18 -10,0 -18,8 -18,18z"/>
     <line class="fil1 str1" x1="5273" y1="12187" x2="6260" y2= "12187" />
    </g>
   </g>
   <g>
    <rect class="fil0 str0" x="6770" y="9341" width="2020" height="4841"/>
    <path class="fil1 str0" d="M7375 14182c-17,-262 -163,-442 -469,-477l0 477"/>
    <g>
     <polygon class="fil2" points="7563,11181 7542,11181 7479,11212 7479,11248 7528,11223 7528,11390 7563,11390 "/>
     <path id="1" class="fil2" d="M7650 11298l14 0c22,0 38,13 38,33 0,19 -15,32 -37,32 -24,0 -37,-15 -40,-36l-34 0c2,39 32,66 75,66 43,0 69,-27 69,-63 0,-19 -10,-38 -31,-47 16,-7 27,-25 27,-47 0,-34 -24,-59 -66,-59 -39,0 -65,27 -70,64l35 0c2,-19 14,-33 36,-33 20,0 32,13 32,30 0,20 -15,30 -35,30l-13 0 0 30z"/>
     <polygon id="2" class="fil2" points="7868,11181 7832,11181 7754,11322 7754,11346 7848,11346 7848,11390 7881,11390 7881,11346 7915,11346 7915,11317 7881,11317 7881,11268 7848,11268 7848,11317 7792,11317 "/>
     <polygon id="3" class="fil2" points="8061,11208 8061,11181 7923,11181 7923,11212 8025,11212 7953,11390 7989,11390 "/>
     <polygon id="4" class="fil2" points="7254,11562 7254,11724 7361,11724 7361,11700 7281,11700 7281,11653 7353,11653 7353,11629 7281,11629 7281,11586 7361,11586 7361,11562 "/>
     <path id="5" class="fil2" d="M7519 11606c0,14 -14,28 -31,47l-48 53 0 18 108 0 0 -24 -71 0 35 -39c17,-19 34,-35 34,-55 0,-29 -20,-47 -52,-47 -31,0 -52,21 -55,51l29 0c1,-15 9,-27 26,-27 15,0 25,10 25,23z"/>
     <polygon id="6" class="fil2" points="7626,11562 7610,11562 7561,11586 7561,11614 7599,11595 7599,11724 7626,11724 "/>
     <path id="7" class="fil2" d="M7652 11690c3,23 22,37 50,37 27,0 46,-14 46,-38 0,-17 -10,-28 -30,-33l-25 -6c-9,-2 -13,-5 -13,-11 0,-9 10,-13 19,-13 13,0 19,5 22,13l26 0c-4,-22 -20,-35 -47,-35 -26,0 -45,16 -45,37 0,19 12,28 29,32l25 6c9,2 13,6 13,12 0,10 -8,14 -20,14 -11,0 -20,-5 -23,-15l-27 0z"/>
     <path id="8" class="fil2" d="M7780 11693c0,23 15,34 36,34 8,0 15,-2 20,-4l0 -24c-4,2 -10,4 -15,4 -9,0 -14,-4 -14,-13l0 -61 26 0 0 -22 -26 0 0 -32 -27 0 0 32 -19 0 0 22 19 0 0 64z"/>
     <path id="9" class="fil2" d="M7973 11562l-62 162 27 0 17 -45 63 0 16 45 28 0 -62 -162 -27 0zm13 33l23 60 -45 0 22 -60z"/>
     <polygon id="10" class="fil2" points="8138,11724 8183,11607 8155,11607 8125,11693 8094,11607 8066,11607 8111,11724 "/>
     <path id="11" class="fil2" d="M8274 11688c-3,11 -12,17 -25,17 -17,0 -29,-13 -30,-33l81 0 0 -10c0,-34 -18,-58 -52,-58 -32,0 -55,27 -55,62 0,36 23,61 56,61 28,0 46,-16 50,-39l-25 0zm-25 -62c16,0 24,12 24,26l-53 0c3,-17 14,-26 29,-26z"/>
     <path id="12" class="fil2" d="M7450 12033c43,0 71,-23 71,-65 0,-44 -28,-66 -71,-66l-81 0 0 209 35 0 0 -78 46 0zm36 -65c0,20 -12,34 -37,34l-45 0 0 -69 45 0c25,0 37,14 37,35z"/>
     <polygon id="13" class="fil2" points="7587,11890 7553,11890 7553,12111 7587,12111 "/>
     <path id="14" class="fil2" d="M7746 12111l0 -99c0,-34 -22,-56 -61,-56 -31,0 -55,20 -59,46l33 0c4,-11 12,-17 26,-17 19,0 29,12 29,28l0 12c-6,-4 -22,-9 -35,-9 -34,0 -59,20 -59,48 0,32 25,50 56,50 17,0 33,-6 38,-11l0 8 32 0zm-32 -40c-4,10 -18,15 -31,15 -16,0 -32,-6 -32,-22 0,-15 16,-21 32,-21 13,0 27,6 31,15l0 13z"/>
     <path id="15" class="fil2" d="M7787 12111l34 0 0 -99c3,-15 17,-25 31,-25 20,0 29,13 29,31l0 93 34 0 0 -98c0,-34 -19,-57 -53,-57 -18,0 -33,9 -41,18l0 -14 -34 0 0 151z"/>
     <path id="16" class="fil2" d="M8150 12003c16,-5 28,-22 28,-44 0,-38 -28,-57 -71,-57l-74 0 0 209 80 0c44,0 71,-21 71,-60 0,-22 -14,-41 -34,-48zm-82 -13l0 -57 38 0c25,0 37,8 37,28 0,20 -12,29 -37,29l-38 0zm0 29l45 0c24,0 37,12 37,31 0,19 -13,31 -37,31l-45 0 0 -62z"/>
     <polygon id="17" class="fil2" points="7459,12283 7443,12283 7394,12308 7394,12335 7433,12316 7433,12446 7459,12446 "/>
     <path id="18" class="fil2" d="M7527 12374l11 0c17,0 29,10 29,26 0,15 -11,25 -28,25 -19,0 -29,-12 -31,-28l-27 0c2,30 25,51 58,51 34,0 54,-21 54,-49 0,-15 -7,-30 -24,-37 13,-5 21,-19 21,-36 0,-27 -19,-46 -51,-46 -30,0 -51,21 -54,50l27 0c1,-15 10,-26 27,-26 16,0 25,10 25,23 0,16 -11,24 -27,24l-10 0 0 23z"/>
     <path id="19" class="fil2" d="M7696 12335c0,19 -12,32 -31,32 -18,0 -30,-13 -30,-32 0,-19 12,-32 30,-32 19,0 31,13 31,32zm-85 72c6,26 23,41 52,41 38,0 61,-37 61,-87 0,-20 -3,-35 -10,-49 -10,-22 -29,-32 -49,-32 -35,0 -55,26 -55,55 0,29 19,54 52,54 18,0 32,-8 38,-20l0 2c0,28 -14,55 -37,55 -13,0 -21,-7 -25,-19l-27 0z"/>
     <path id="20" class="fil2" d="M7773 12394c0,-20 12,-33 31,-33 18,0 30,13 30,33 0,19 -12,31 -30,31 -19,0 -31,-12 -31,-31zm85 -72c-7,-27 -23,-42 -53,-42 -37,0 -61,37 -61,88 0,20 3,35 10,49 11,22 30,31 49,31 36,0 56,-25 56,-55 0,-29 -20,-54 -53,-54 -17,0 -31,9 -37,21l0 -3c0,-27 14,-54 36,-54 14,0 22,7 25,19l28 0z"/>
     <path id="21" class="fil2" d="M7877 12412c3,23 22,36 50,36 27,0 46,-14 46,-37 0,-18 -10,-29 -30,-34l-25 -6c-9,-2 -13,-5 -13,-10 0,-10 10,-14 19,-14 13,0 19,5 22,13l26 0c-4,-21 -20,-35 -47,-35 -26,0 -45,16 -45,37 0,20 12,29 29,33l25 5c9,3 13,6 13,13 0,9 -8,14 -20,14 -11,0 -20,-5 -23,-15l-27 0z"/>
     <path id="22" class="fil2" d="M7991 12429c0,11 8,19 18,19 10,0 18,-8 18,-19 0,-10 -8,-18 -18,-18 -10,0 -18,8 -18,18z"/>
     <path id="23" class="fil2" d="M8109 12274c-5,-2 -10,-3 -17,-3 -22,0 -39,13 -39,39l0 18 -21 0 0 22 21 0 0 96 26 0 0 -96 26 0 0 -22 -26 0 0 -16c0,-12 7,-19 17,-19 4,0 9,2 13,4l0 -23z"/>
     <path id="24" class="fil2" d="M8110 12429c0,11 8,19 18,19 10,0 18,-8 18,-19 0,-10 -8,-18 -18,-18 -10,0 -18,8 -18,18z"/>
     <line class="fil1 str1" x1="7284" y1="12187" x2="8270" y2= "12187" />
    </g>
   </g>
   <g>
    <rect class="fil0 str0" x="8805" y="9341" width="2021" height="4841"/>
    <path class="fil1 str0" d="M10224 14182c16,-262 162,-442 468,-477l0 477"/>
    <g>
     <polygon class="fil2" points="9601,11181 9580,11181 9517,11212 9517,11248 9566,11223 9566,11390 9601,11390 "/>
     <path id="1" class="fil2" d="M9688 11298l14 0c22,0 38,13 38,33 0,19 -15,32 -37,32 -24,0 -37,-15 -40,-36l-34 0c2,39 32,66 75,66 43,0 69,-27 69,-63 0,-19 -10,-38 -31,-47 16,-7 27,-25 27,-47 0,-34 -24,-59 -66,-59 -39,0 -65,27 -70,64l35 0c2,-19 14,-33 36,-33 20,0 32,13 32,30 0,20 -15,30 -35,30l-13 0 0 30z"/>
     <polygon id="2" class="fil2" points="9906,11181 9870,11181 9792,11322 9792,11346 9886,11346 9886,11390 9919,11390 9919,11346 9953,11346 9953,11317 9919,11317 9919,11268 9886,11268 9886,11317 9830,11317 "/>
     <path id="3" class="fil2" d="M10083 11247c0,26 -15,42 -39,42 -24,0 -39,-17 -39,-42 0,-24 15,-40 39,-40 24,0 39,16 39,40zm-109 93c9,34 29,53 68,53 48,0 78,-47 78,-112 0,-26 -4,-45 -13,-64 -14,-28 -37,-40 -63,-40 -46,0 -72,33 -72,71 0,37 26,70 68,70 22,0 41,-12 48,-27l0 3c0,36 -18,70 -46,70 -17,0 -28,-9 -33,-24l-35 0z"/>
     <polygon id="4" class="fil2" points="9304,11562 9304,11724 9411,11724 9411,11700 9331,11700 9331,11653 9403,11653 9403,11629 9331,11629 9331,11586 9411,11586 9411,11562 "/>
     <path id="5" class="fil2" d="M9569 11606c0,14 -14,28 -31,47l-49 53 0 18 109 0 0 -24 -71 0 35 -39c17,-19 33,-35 33,-55 0,-29 -19,-47 -51,-47 -31,0 -52,21 -55,51l29 0c1,-15 9,-27 26,-27 15,0 25,10 25,23z"/>
     <polygon id="6" class="fil2" points="9676,11562 9660,11562 9611,11586 9611,11614 9649,11595 9649,11724 9676,11724 "/>
     <path id="7" class="fil2" d="M9702 11690c3,23 22,37 50,37 26,0 46,-14 46,-38 0,-17 -10,-28 -30,-33l-25 -6c-9,-2 -13,-5 -13,-11 0,-9 10,-13 19,-13 12,0 19,5 22,13l26 0c-4,-22 -20,-35 -47,-35 -26,0 -45,16 -45,37 0,19 12,28 29,32l25 6c9,2 13,6 13,12 0,10 -8,14 -20,14 -11,0 -20,-5 -23,-15l-27 0z"/>
     <path id="8" class="fil2" d="M9830 11693c0,23 15,34 36,34 8,0 15,-2 20,-4l0 -24c-4,2 -10,4 -15,4 -9,0 -14,-4 -14,-13l0 -61 26 0 0 -22 -26 0 0 -32 -27 0 0 32 -19 0 0 22 19 0 0 64z"/>
     <path id="9" class="fil2" d="M10023 11562l-63 162 28 0 17 -45 63 0 16 45 28 0 -62 -162 -27 0zm13 33l22 60 -44 0 22 -60z"/>
     <polygon id="10" class="fil2" points="10188,11724 10233,11607 10205,11607 10175,11693 10144,11607 10116,11607 10161,11724 "/>
     <path id="11" class="fil2" d="M10324 11688c-3,11 -12,17 -25,17 -17,0 -29,-13 -30,-33l81 0 0 -10c0,-34 -18,-58 -52,-58 -32,0 -55,27 -55,62 0,36 23,61 56,61 28,0 46,-16 50,-39l-25 0zm-25 -62c16,0 24,12 24,26l-53 0c3,-17 14,-26 29,-26z"/>
     <path id="12" class="fil2" d="M9500 12033c43,0 71,-23 71,-65 0,-44 -28,-66 -71,-66l-81 0 0 209 35 0 0 -78 46 0zm36 -65c0,20 -12,34 -37,34l-45 0 0 -69 45 0c25,0 37,14 37,35z"/>
     <polygon id="13" class="fil2" points="9637,11890 9603,11890 9603,12111 9637,12111 "/>
     <path id="14" class="fil2" d="M9796 12111l0 -99c0,-34 -22,-56 -61,-56 -31,0 -55,20 -59,46l33 0c3,-11 12,-17 26,-17 19,0 29,12 29,28l0 12c-6,-4 -22,-9 -35,-9 -34,0 -60,20 -60,48 0,32 26,50 57,50 17,0 33,-6 38,-11l0 8 32 0zm-32 -40c-4,10 -18,15 -31,15 -16,0 -32,-6 -32,-22 0,-15 16,-21 32,-21 13,0 27,6 31,15l0 13z"/>
     <path id="15" class="fil2" d="M9836 12111l35 0 0 -99c3,-15 17,-25 31,-25 20,0 29,13 29,31l0 93 34 0 0 -98c0,-34 -19,-57 -53,-57 -18,0 -33,9 -41,18l0 -14 -35 0 0 151z"/>
     <path id="16" class="fil2" d="M10200 12003c16,-5 28,-22 28,-44 0,-38 -28,-57 -71,-57l-74 0 0 209 80 0c44,0 71,-21 71,-60 0,-22 -14,-41 -34,-48zm-82 -13l0 -57 38 0c24,0 37,8 37,28 0,20 -13,29 -37,29l-38 0zm0 29l45 0c24,0 37,12 37,31 0,19 -13,31 -37,31l-45 0 0 -62z"/>
     <polygon id="17" class="fil2" points="9509,12283 9493,12283 9444,12308 9444,12335 9483,12316 9483,12446 9509,12446 "/>
     <path id="18" class="fil2" d="M9577 12374l11 0c17,0 29,10 29,26 0,15 -11,25 -28,25 -19,0 -29,-12 -31,-28l-27 0c2,30 25,51 58,51 34,0 54,-21 54,-49 0,-15 -7,-30 -24,-37 13,-5 21,-19 21,-36 0,-27 -19,-46 -51,-46 -30,0 -51,21 -54,50l27 0c1,-15 10,-26 27,-26 16,0 25,10 25,23 0,16 -11,24 -27,24l-10 0 0 23z"/>
     <path id="19" class="fil2" d="M9746 12335c0,19 -12,32 -31,32 -18,0 -30,-13 -30,-32 0,-19 12,-32 30,-32 19,0 31,13 31,32zm-85 72c6,26 23,41 52,41 38,0 61,-37 61,-87 0,-20 -3,-35 -10,-49 -10,-22 -29,-32 -49,-32 -35,0 -56,26 -56,55 0,29 20,54 53,54 18,0 32,-8 38,-20l0 2c0,28 -15,55 -37,55 -13,0 -21,-7 -25,-19l-27 0z"/>
     <path id="20" class="fil2" d="M9823 12394c0,-20 12,-33 31,-33 18,0 30,13 30,33 0,19 -12,31 -30,31 -19,0 -31,-12 -31,-31zm85 -72c-7,-27 -23,-42 -53,-42 -37,0 -61,37 -61,88 0,20 3,35 10,49 11,22 29,31 49,31 36,0 56,-25 56,-55 0,-29 -20,-54 -53,-54 -17,0 -31,9 -37,21l0 -3c0,-27 14,-54 36,-54 14,0 22,7 25,19l28 0z"/>
     <path id="21" class="fil2" d="M9927 12412c3,23 22,36 50,36 27,0 46,-14 46,-37 0,-18 -10,-29 -30,-34l-25 -6c-9,-2 -13,-5 -13,-10 0,-10 10,-14 19,-14 13,0 19,5 22,13l26 0c-4,-21 -20,-35 -47,-35 -26,0 -45,16 -45,37 0,20 12,29 29,33l25 5c9,3 13,6 13,13 0,9 -8,14 -20,14 -11,0 -20,-5 -23,-15l-27 0z"/>
     <path id="22" class="fil2" d="M10041 12429c0,11 8,19 18,19 10,0 18,-8 18,-19 0,-10 -8,-18 -18,-18 -10,0 -18,8 -18,18z"/>
     <path id="23" class="fil2" d="M10159 12274c-5,-2 -10,-3 -17,-3 -22,0 -39,13 -39,39l0 18 -21 0 0 22 21 0 0 96 26 0 0 -96 26 0 0 -22 -26 0 0 -16c0,-12 7,-19 17,-19 4,0 9,2 13,4l0 -23z"/>
     <path id="24" class="fil2" d="M10160 12429c0,11 8,19 18,19 10,0 18,-8 18,-19 0,-10 -8,-18 -18,-18 -10,0 -18,8 -18,18z"/>
     <line class="fil1 str1" x1="9333" y1="12187" x2="10320" y2= "12187" />
    </g>
   </g>
   <g>
    <rect class="fil0 str0" x="10840" y="9341" width="2020" height="4841"/>
    <path class="fil1 str0" d="M11442 14182c-17,-262 -162,-442 -469,-477l0 477"/>
    <g>
     <polygon class="fil2" points="11686,11181 11665,11181 11603,11212 11603,11248 11652,11223 11652,11390 11686,11390 "/>
     <path id="1" class="fil2" d="M11774 11298l13 0c22,0 38,13 38,33 0,19 -15,32 -36,32 -24,0 -38,-15 -41,-36l-34 0c2,39 32,66 75,66 43,0 69,-27 69,-63 0,-19 -9,-38 -31,-47 17,-7 27,-25 27,-47 0,-34 -24,-59 -65,-59 -40,0 -66,27 -70,64l35 0c1,-19 13,-33 35,-33 20,0 32,13 32,30 0,20 -15,30 -35,30l-12 0 0 30z"/>
     <path id="2" class="fil2" d="M11952 11282c23,0 37,17 37,40 0,24 -14,41 -36,41 -24,0 -36,-15 -39,-36l-35 0c4,40 32,66 74,66 40,0 69,-29 69,-71 0,-41 -27,-70 -66,-70 -16,0 -30,6 -36,11l0 -51 89 0 0 -31 -118 0 0 118 27 0c7,-9 19,-17 34,-17z"/>
     <polygon id="3" class="fil2" points="12122,11181 12101,11181 12038,11212 12038,11248 12088,11223 12088,11390 12122,11390 "/>
     <polygon id="4" class="fil2" points="11352,11562 11352,11724 11459,11724 11459,11700 11380,11700 11380,11653 11452,11653 11452,11629 11380,11629 11380,11586 11459,11586 11459,11562 "/>
     <path id="5" class="fil2" d="M11617 11606c0,14 -14,28 -31,47l-48 53 0 18 109 0 0 -24 -71 0 35 -39c16,-19 33,-35 33,-55 0,-29 -19,-47 -52,-47 -30,0 -51,21 -54,51l28 0c1,-15 10,-27 26,-27 16,0 25,10 25,23z"/>
     <polygon id="6" class="fil2" points="11725,11562 11708,11562 11660,11586 11660,11614 11698,11595 11698,11724 11725,11724 "/>
     <path id="7" class="fil2" d="M11750 11690c4,23 23,37 50,37 27,0 46,-14 46,-38 0,-17 -10,-28 -30,-33l-25 -6c-8,-2 -12,-5 -12,-11 0,-9 9,-13 19,-13 12,0 19,5 21,13l26 0c-4,-22 -19,-35 -47,-35 -26,0 -45,16 -45,37 0,19 13,28 30,32l24 6c10,2 14,6 14,12 0,10 -8,14 -20,14 -12,0 -21,-5 -24,-15l-27 0z"/>
     <path id="8" class="fil2" d="M11878 11693c0,23 15,34 36,34 9,0 16,-2 20,-4l0 -24c-3,2 -10,4 -15,4 -9,0 -14,-4 -14,-13l0 -61 27 0 0 -22 -27 0 0 -32 -27 0 0 32 -18 0 0 22 18 0 0 64z"/>
     <path id="9" class="fil2" d="M12072 11562l-63 162 28 0 17 -45 62 0 17 45 28 0 -63 -162 -26 0zm13 33l22 60 -45 0 23 -60z"/>
     <polygon id="10" class="fil2" points="12236,11724 12281,11607 12254,11607 12223,11693 12193,11607 12164,11607 12209,11724 "/>
     <path id="11" class="fil2" d="M12373 11688c-3,11 -13,17 -26,17 -17,0 -29,-13 -29,-33l80 0 0 -10c0,-34 -18,-58 -51,-58 -32,0 -55,27 -55,62 0,36 22,61 55,61 29,0 46,-16 50,-39l-24 0zm-26 -62c16,0 25,12 25,26l-54 0c4,-17 14,-26 29,-26z"/>
     <path id="12" class="fil2" d="M11548 12033c44,0 72,-23 72,-65 0,-44 -28,-66 -72,-66l-81 0 0 209 36 0 0 -78 45 0zm37 -65c0,20 -13,34 -38,34l-44 0 0 -69 44 0c25,0 38,14 38,35z"/>
     <polygon id="13" class="fil2" points="11685,11890 11651,11890 11651,12111 11685,12111 "/>
     <path id="14" class="fil2" d="M11845 12111l0 -99c0,-34 -23,-56 -61,-56 -31,0 -55,20 -60,46l33 0c4,-11 12,-17 26,-17 20,0 29,12 29,28l0 12c-6,-4 -21,-9 -35,-9 -33,0 -59,20 -59,48 0,32 26,50 57,50 17,0 32,-6 37,-11l0 8 33 0zm-33 -40c-4,10 -17,15 -31,15 -15,0 -31,-6 -31,-22 0,-15 16,-21 31,-21 14,0 27,6 31,15l0 13z"/>
     <path id="15" class="fil2" d="M11885 12111l34 0 0 -99c4,-15 17,-25 32,-25 19,0 29,13 29,31l0 93 34 0 0 -98c0,-34 -19,-57 -54,-57 -18,0 -33,9 -41,18l0 -14 -34 0 0 151z"/>
     <path id="16" class="fil2" d="M12249 12003c15,-5 27,-22 27,-44 0,-38 -27,-57 -71,-57l-73 0 0 209 80 0c44,0 71,-21 71,-60 0,-22 -14,-41 -34,-48zm-83 -13l0 -57 39 0c24,0 37,8 37,28 0,20 -13,29 -37,29l-39 0zm0 29l45 0c24,0 37,12 37,31 0,19 -13,31 -37,31l-45 0 0 -62z"/>
     <polygon id="17" class="fil2" points="11558,12283 11542,12283 11493,12308 11493,12335 11531,12316 11531,12446 11558,12446 "/>
     <path id="18" class="fil2" d="M11626 12374l10 0c17,0 30,10 30,26 0,15 -12,25 -28,25 -19,0 -30,-12 -32,-28l-27 0c2,30 25,51 59,51 34,0 54,-21 54,-49 0,-15 -8,-30 -25,-37 13,-5 22,-19 22,-36 0,-27 -19,-46 -51,-46 -31,0 -51,21 -55,50l27 0c1,-15 11,-26 28,-26 15,0 25,10 25,23 0,16 -12,24 -28,24l-9 0 0 23z"/>
     <path id="19" class="fil2" d="M11794 12335c0,19 -12,32 -31,32 -18,0 -30,-13 -30,-32 0,-19 12,-32 30,-32 19,0 31,13 31,32zm-85 72c7,26 23,41 53,41 37,0 61,-37 61,-87 0,-20 -3,-35 -10,-49 -11,-22 -29,-32 -49,-32 -36,0 -56,26 -56,55 0,29 20,54 53,54 17,0 31,-8 37,-20l0 2c0,28 -14,55 -36,55 -13,0 -21,-7 -25,-19l-28 0z"/>
     <path id="20" class="fil2" d="M11871 12394c0,-20 13,-33 31,-33 18,0 30,13 30,33 0,19 -12,31 -30,31 -18,0 -31,-12 -31,-31zm85 -72c-6,-27 -23,-42 -52,-42 -38,0 -61,37 -61,88 0,20 3,35 10,49 11,22 29,31 49,31 35,0 56,-25 56,-55 0,-29 -20,-54 -53,-54 -17,0 -32,9 -38,21l0 -3c0,-27 15,-54 37,-54 13,0 21,7 25,19l27 0z"/>
     <path id="21" class="fil2" d="M11975 12412c4,23 23,36 50,36 27,0 46,-14 46,-37 0,-18 -10,-29 -30,-34l-25 -6c-8,-2 -12,-5 -12,-10 0,-10 9,-14 19,-14 12,0 19,5 21,13l26 0c-4,-21 -19,-35 -47,-35 -26,0 -45,16 -45,37 0,20 13,29 30,33l24 5c10,3 14,6 14,13 0,9 -8,14 -20,14 -12,0 -21,-5 -24,-15l-27 0z"/>
     <path id="22" class="fil2" d="M12089 12429c0,11 8,19 18,19 11,0 19,-8 19,-19 0,-10 -8,-18 -19,-18 -10,0 -18,8 -18,18z"/>
     <path id="23" class="fil2" d="M12208 12274c-5,-2 -10,-3 -18,-3 -22,0 -39,13 -39,39l0 18 -20 0 0 22 20 0 0 96 26 0 0 -96 26 0 0 -22 -26 0 0 -16c0,-12 7,-19 18,-19 4,0 9,2 13,4l0 -23z"/>
     <path id="24" class="fil2" d="M12208 12429c0,11 8,19 18,19 10,0 18,-8 18,-19 0,-10 -8,-18 -18,-18 -10,0 -18,8 -18,18z"/>
     <line class="fil1 str1" x1="11382" y1="12187" x2="12369" y2= "12187" />
    </g>
   </g>
   <g>
    <rect class="fil0 str0" x="12882" y="9341" width="2021" height="4841"/>
    <path class="fil1 str0" d="M14284 14182c16,-262 162,-442 468,-477l0 477"/>
    <g>
     <polygon class="fil2" points="13717,11181 13696,11181 13633,11212 13633,11248 13683,11223 13683,11390 13717,11390 "/>
     <path id="1" class="fil2" d="M13804 11298l14 0c22,0 38,13 38,33 0,19 -15,32 -36,32 -25,0 -38,-15 -41,-36l-34 0c2,39 32,66 75,66 43,0 69,-27 69,-63 0,-19 -10,-38 -31,-47 17,-7 27,-25 27,-47 0,-34 -24,-59 -65,-59 -40,0 -66,27 -71,64l35 0c2,-19 14,-33 36,-33 20,0 32,13 32,30 0,20 -15,30 -35,30l-13 0 0 30z"/>
     <path id="2" class="fil2" d="M13983 11282c23,0 37,17 37,40 0,24 -14,41 -37,41 -23,0 -36,-15 -38,-36l-35 0c3,40 32,66 73,66 41,0 70,-29 70,-71 0,-41 -27,-70 -66,-70 -17,0 -30,6 -36,11l0 -51 89 0 0 -31 -118 0 0 118 27 0c7,-9 18,-17 34,-17z"/>
     <path id="3" class="fil2" d="M14131 11298l14 0c22,0 38,13 38,33 0,19 -15,32 -37,32 -24,0 -38,-15 -40,-36l-34 0c2,39 32,66 75,66 43,0 69,-27 69,-63 0,-19 -10,-38 -31,-47 16,-7 27,-25 27,-47 0,-34 -24,-59 -66,-59 -39,0 -65,27 -70,64l35 0c2,-19 14,-33 36,-33 20,0 32,13 32,30 0,20 -15,30 -35,30l-13 0 0 30z"/>
     <polygon id="4" class="fil2" points="13409,11562 13409,11724 13516,11724 13516,11700 13436,11700 13436,11653 13508,11653 13508,11629 13436,11629 13436,11586 13516,11586 13516,11562 "/>
     <path id="5" class="fil2" d="M13674 11606c0,14 -14,28 -31,47l-49 53 0 18 109 0 0 -24 -71 0 35 -39c17,-19 33,-35 33,-55 0,-29 -19,-47 -51,-47 -31,0 -52,21 -55,51l29 0c1,-15 9,-27 26,-27 15,0 25,10 25,23z"/>
     <polygon id="6" class="fil2" points="13781,11562 13765,11562 13716,11586 13716,11614 13754,11595 13754,11724 13781,11724 "/>
     <path id="7" class="fil2" d="M13807 11690c3,23 22,37 50,37 26,0 46,-14 46,-38 0,-17 -10,-28 -30,-33l-25 -6c-9,-2 -13,-5 -13,-11 0,-9 10,-13 19,-13 12,0 19,5 22,13l26 0c-4,-22 -20,-35 -47,-35 -26,0 -45,16 -45,37 0,19 12,28 29,32l25 6c9,2 13,6 13,12 0,10 -8,14 -20,14 -12,0 -20,-5 -23,-15l-27 0z"/>
     <path id="8" class="fil2" d="M13935 11693c0,23 15,34 36,34 8,0 15,-2 20,-4l0 -24c-4,2 -10,4 -15,4 -9,0 -14,-4 -14,-13l0 -61 26 0 0 -22 -26 0 0 -32 -27 0 0 32 -19 0 0 22 19 0 0 64z"/>
     <path id="9" class="fil2" d="M14128 11562l-63 162 28 0 17 -45 63 0 16 45 28 0 -62 -162 -27 0zm13 33l22 60 -44 0 22 -60z"/>
     <polygon id="10" class="fil2" points="14293,11724 14338,11607 14310,11607 14280,11693 14249,11607 14221,11607 14265,11724 "/>
     <path id="11" class="fil2" d="M14429 11688c-3,11 -12,17 -25,17 -17,0 -29,-13 -30,-33l81 0 0 -10c0,-34 -18,-58 -52,-58 -32,0 -55,27 -55,62 0,36 23,61 56,61 28,0 46,-16 50,-39l-25 0zm-25 -62c16,0 24,12 24,26l-53 0c3,-17 14,-26 29,-26z"/>
     <path id="12" class="fil2" d="M13605 12033c43,0 71,-23 71,-65 0,-44 -28,-66 -71,-66l-81 0 0 209 35 0 0 -78 46 0zm36 -65c0,20 -12,34 -37,34l-45 0 0 -69 45 0c25,0 37,14 37,35z"/>
     <polygon id="13" class="fil2" points="13742,11890 13708,11890 13708,12111 13742,12111 "/>
     <path id="14" class="fil2" d="M13901 12111l0 -99c0,-34 -22,-56 -61,-56 -31,0 -55,20 -59,46l33 0c3,-11 12,-17 26,-17 19,0 29,12 29,28l0 12c-6,-4 -22,-9 -35,-9 -34,0 -60,20 -60,48 0,32 26,50 57,50 17,0 33,-6 38,-11l0 8 32 0zm-32 -40c-4,10 -18,15 -31,15 -16,0 -32,-6 -32,-22 0,-15 16,-21 32,-21 13,0 27,6 31,15l0 13z"/>
     <path id="15" class="fil2" d="M13941 12111l35 0 0 -99c3,-15 17,-25 31,-25 20,0 29,13 29,31l0 93 34 0 0 -98c0,-34 -19,-57 -53,-57 -18,0 -33,9 -41,18l0 -14 -35 0 0 151z"/>
     <path id="16" class="fil2" d="M14305 12003c16,-5 28,-22 28,-44 0,-38 -28,-57 -71,-57l-74 0 0 209 80 0c44,0 71,-21 71,-60 0,-22 -14,-41 -34,-48zm-82 -13l0 -57 38 0c24,0 37,8 37,28 0,20 -13,29 -37,29l-38 0zm0 29l45 0c24,0 37,12 37,31 0,19 -13,31 -37,31l-45 0 0 -62z"/>
     <polygon id="17" class="fil2" points="13624,12283 13607,12283 13559,12308 13559,12335 13597,12316 13597,12446 13624,12446 "/>
     <path id="18" class="fil2" d="M13692 12374l10 0c17,0 30,10 30,26 0,15 -12,25 -29,25 -19,0 -29,-12 -31,-28l-27 0c2,30 25,51 59,51 33,0 54,-21 54,-49 0,-15 -8,-30 -25,-37 13,-5 21,-19 21,-36 0,-27 -19,-46 -51,-46 -30,0 -51,21 -54,50l27 0c1,-15 10,-26 28,-26 15,0 25,10 25,23 0,16 -12,24 -28,24l-9 0 0 23z"/>
     <path id="19" class="fil2" d="M13860 12335c0,19 -12,32 -31,32 -18,0 -30,-13 -30,-32 0,-19 12,-32 30,-32 19,0 31,13 31,32zm-85 72c7,26 23,41 53,41 37,0 61,-37 61,-87 0,-20 -3,-35 -10,-49 -11,-22 -30,-32 -49,-32 -36,0 -56,26 -56,55 0,29 20,54 53,54 17,0 31,-8 37,-20l0 2c0,28 -14,55 -36,55 -14,0 -22,-7 -25,-19l-28 0z"/>
     <polygon id="20" class="fil2" points="14007,12304 14007,12283 13899,12283 13899,12307 13979,12307 13923,12446 13950,12446 "/>
     <path id="21" class="fil2" d="M14022 12412c4,23 23,36 51,36 26,0 46,-14 46,-37 0,-18 -11,-29 -31,-34l-25 -6c-8,-2 -12,-5 -12,-10 0,-10 10,-14 19,-14 12,0 19,5 21,13l27 0c-4,-21 -20,-35 -48,-35 -26,0 -44,16 -44,37 0,20 12,29 29,33l24 5c10,3 14,6 14,13 0,9 -8,14 -20,14 -12,0 -21,-5 -23,-15l-28 0z"/>
     <path id="22" class="fil2" d="M14137 12429c0,11 8,19 18,19 10,0 18,-8 18,-19 0,-10 -8,-18 -18,-18 -10,0 -18,8 -18,18z"/>
     <path id="23" class="fil2" d="M14255 12274c-5,-2 -10,-3 -18,-3 -22,0 -38,13 -38,39l0 18 -21 0 0 22 21 0 0 96 26 0 0 -96 25 0 0 -22 -25 0 0 -16c0,-12 6,-19 17,-19 4,0 9,2 13,4l0 -23z"/>
     <path id="24" class="fil2" d="M14255 12429c0,11 8,19 18,19 11,0 19,-8 19,-19 0,-10 -8,-18 -19,-18 -10,0 -18,8 -18,18z"/>
     <line class="fil1 str1" x1="13438" y1="12187" x2="14425" y2= "12187" />
    </g>
   </g>
  </g>
  <g id="plan_a">
   <g>
    <polygon class="fil0 str0" points="2716,9341 1403,9341 555,9341 555,10689 3,10689 3,13490 1403,13490 1403,14182 2716,14182 2716,13490 2716,13434 2716,10689 "/>
    <path class="fil1 str0" d="M2112 14182c17,-261 163,-441 472,-477l0 477"/>
    <g>
     <polygon class="fil2" points="1229,11181 1208,11181 1145,11212 1145,11248 1194,11223 1194,11390 1229,11390 "/>
     <path id="1" class="fil2" d="M1317 11298l13 0c23,0 39,13 39,33 0,19 -16,32 -37,32 -24,0 -38,-15 -40,-36l-35 0c2,40 32,67 75,67 44,0 70,-28 70,-64 0,-19 -10,-38 -31,-47 16,-7 27,-25 27,-47 0,-34 -24,-59 -66,-59 -39,0 -66,27 -70,64l35 0c1,-19 13,-33 35,-33 21,0 33,13 33,30 0,20 -15,30 -36,30l-12 0 0 30z"/>
     <polygon id="2" class="fil2" points="1536,11181 1500,11181 1421,11322 1421,11346 1516,11346 1516,11390 1549,11390 1549,11346 1584,11346 1584,11317 1549,11317 1549,11268 1516,11268 1516,11317 1460,11317 "/>
     <polygon id="3" class="fil2" points="1678,11181 1657,11181 1594,11212 1594,11248 1643,11223 1643,11390 1678,11390 "/>
     <polygon id="4" class="fil2" points="898,11562 898,11725 1005,11725 1005,11700 925,11700 925,11653 998,11653 998,11629 925,11629 925,11586 1005,11586 1005,11562 "/>
     <path id="5" class="fil2" d="M1164 11607c0,14 -14,27 -31,46l-48 54 0 18 109 0 0 -25 -71 0 35 -39c17,-18 33,-35 33,-55 0,-29 -19,-47 -52,-47 -30,0 -51,21 -55,52l29 0c1,-16 10,-27 26,-27 16,0 25,9 25,23z"/>
     <polygon id="6" class="fil2" points="1273,11562 1256,11562 1207,11586 1207,11614 1246,11595 1246,11725 1273,11725 "/>
     <path id="7" class="fil2" d="M1298 11691c4,22 23,36 51,36 27,0 46,-14 46,-37 0,-18 -10,-29 -30,-34l-25 -6c-9,-2 -13,-5 -13,-11 0,-9 10,-13 19,-13 13,0 20,5 22,13l26 0c-4,-22 -20,-35 -47,-35 -26,0 -45,16 -45,37 0,19 12,28 29,32l25 6c10,3 14,6 14,12 0,10 -8,15 -21,15 -12,0 -20,-6 -23,-15l-28 0z"/>
     <path id="8" class="fil2" d="M1428 11693c0,23 15,34 36,34 8,0 15,-1 20,-4l0 -24c-4,3 -10,5 -15,5 -9,0 -15,-5 -15,-14l0 -61 27 0 0 -22 -27 0 0 -32 -26 0 0 32 -19 0 0 22 19 0 0 64z"/>
     <path id="9" class="fil2" d="M1622 11562l-63 163 28 0 17 -45 63 0 17 45 28 0 -63 -163 -27 0zm13 33l23 61 -45 0 22 -61z"/>
     <polygon id="10" class="fil2" points="1788,11725 1833,11607 1805,11607 1775,11693 1744,11607 1715,11607 1760,11725 "/>
     <path id="11" class="fil2" d="M1925 11688c-3,11 -12,17 -25,17 -17,0 -29,-12 -30,-33l81 0 0 -10c0,-34 -18,-58 -52,-58 -32,0 -55,27 -55,62 0,36 23,61 56,61 28,0 46,-16 50,-39l-25 0zm-25 -62c16,0 24,12 24,26l-53 0c3,-17 14,-26 29,-26z"/>
     <path id="12" class="fil2" d="M1084 12033c44,0 73,-23 73,-65 0,-43 -29,-66 -73,-66l-81 0 0 209 36 0 0 -78 45 0zm37 -65c0,20 -12,35 -37,35l-45 0 0 -70 45 0c25,0 37,14 37,35z"/>
     <polygon id="13" class="fil2" points="1223,11890 1188,11890 1188,12111 1223,12111 "/>
     <path id="14" class="fil2" d="M1383 12111l0 -99c0,-34 -23,-55 -61,-55 -32,0 -56,19 -60,45l33 0c4,-11 12,-16 26,-16 20,0 29,12 29,27l0 12c-6,-4 -21,-9 -35,-9 -34,0 -60,20 -60,49 0,31 26,49 57,49 18,0 33,-6 38,-11l0 8 33 0zm-33 -40c-3,10 -17,15 -31,15 -15,0 -32,-6 -32,-21 0,-15 17,-22 32,-22 14,0 28,6 31,16l0 12z"/>
     <path id="15" class="fil2" d="M1424 12111l34 0 0 -99c4,-15 17,-24 32,-24 20,0 29,12 29,31l0 92 34 0 0 -98c0,-34 -19,-56 -54,-56 -18,0 -33,8 -41,17l0 -14 -34 0 0 151z"/>
     <path id="16" class="fil2" d="M1737 11902l-82 209 37 0 21 -58 81 0 22 58 36 0 -81 -209 -34 0zm16 43l29 78 -57 0 28 -78z"/>
     <polygon id="17" class="fil2" points="1102,12283 1086,12283 1037,12308 1037,12336 1075,12316 1075,12446 1102,12446 "/>
     <polygon id="18" class="fil2" points="1216,12283 1188,12283 1126,12393 1126,12412 1200,12412 1200,12446 1226,12446 1226,12412 1253,12412 1253,12389 1226,12389 1226,12351 1200,12351 1200,12389 1156,12389 "/>
     <path id="19" class="fil2" d="M1346 12328c0,14 -14,28 -31,46l-49 54 0 18 110 0 0 -24 -72 0 36 -39c17,-19 33,-35 33,-55 0,-29 -19,-48 -52,-48 -31,0 -52,22 -55,52l29 0c1,-16 10,-27 26,-27 16,0 25,9 25,23z"/>
     <path id="20" class="fil2" d="M1423 12394c0,-20 12,-32 31,-32 18,0 30,13 30,32 0,19 -12,31 -30,31 -19,0 -31,-12 -31,-31zm85 -72c-6,-26 -23,-42 -53,-42 -37,0 -61,37 -61,88 0,20 3,35 10,49 11,22 29,32 49,32 36,0 57,-26 57,-56 0,-29 -20,-54 -54,-54 -17,0 -31,9 -37,21l0 -3c0,-27 14,-54 36,-54 14,0 22,7 25,19l28 0z"/>
     <path id="21" class="fil2" d="M1527 12412c4,23 23,37 51,37 27,0 46,-15 46,-38 0,-17 -10,-29 -30,-34l-26 -5c-8,-2 -12,-6 -12,-11 0,-10 10,-14 19,-14 12,0 19,6 22,13l26 0c-4,-21 -20,-35 -48,-35 -26,0 -45,16 -45,37 0,20 13,29 30,33l24 6c10,2 14,5 14,12 0,9 -8,14 -20,14 -12,0 -21,-5 -23,-15l-28 0z"/>
     <path id="22" class="fil2" d="M1642 12429c0,11 8,19 18,19 11,0 19,-8 19,-19 0,-10 -8,-18 -19,-18 -10,0 -18,8 -18,18z"/>
     <path id="23" class="fil2" d="M1761 12274c-4,-2 -10,-3 -17,-3 -23,0 -39,14 -39,39l0 18 -21 0 0 22 21 0 0 96 26 0 0 -96 26 0 0 -22 -26 0 0 -16c0,-12 7,-18 17,-18 4,0 9,1 13,3l0 -23z"/>
     <path id="24" class="fil2" d="M1762 12429c0,11 8,19 18,19 10,0 18,-8 18,-19 0,-10 -8,-18 -18,-18 -10,0 -18,8 -18,18z"/>
     <line class="fil1 str1" x1="928" y1="12188" x2="1921" y2= "12188" />
    </g>
   </g>
   <g>
    <polygon class="fil0 str0" points="17589,13472 16205,13472 16205,14182 14903,14182 14903,9341 17049,9341 17049,10689 17589,10689 "/>
    <path class="fil1 str0" d="M15505 14182c-16,-262 -162,-442 -468,-477l0 477"/>
    <g>
     <polygon class="fil2" points="16064,11181 16043,11181 15980,11212 15980,11248 16029,11223 16029,11390 16064,11390 "/>
     <path id="1" class="fil2" d="M16151 11298l14 0c22,0 38,13 38,33 0,19 -16,32 -37,32 -24,0 -38,-15 -40,-36l-35 0c3,39 33,66 76,66 43,0 69,-27 69,-63 0,-19 -10,-38 -31,-47 16,-7 27,-25 27,-47 0,-34 -24,-59 -66,-59 -39,0 -65,27 -70,64l35 0c1,-19 13,-33 36,-33 20,0 32,13 32,30 0,20 -15,30 -35,30l-13 0 0 30z"/>
     <path id="2" class="fil2" d="M16330 11282c22,0 36,17 36,40 0,24 -14,41 -36,41 -23,0 -36,-15 -39,-36l-34 0c3,40 32,66 73,66 41,0 70,-29 70,-71 0,-41 -27,-70 -67,-70 -16,0 -29,6 -36,11l0 -51 90 0 0 -31 -119 0 0 118 27 0c8,-9 19,-17 35,-17z"/>
     <path id="3" class="fil2" d="M16493 11282c22,0 36,17 36,40 0,24 -14,41 -36,41 -23,0 -36,-15 -39,-36l-34 0c3,40 32,66 73,66 41,0 70,-29 70,-71 0,-41 -27,-70 -67,-70 -16,0 -29,6 -36,11l0 -51 90 0 0 -31 -119 0 0 118 27 0c8,-9 19,-17 35,-17z"/>
     <polygon id="4" class="fil2" points="15755,11562 15755,11724 15862,11724 15862,11700 15782,11700 15782,11653 15854,11653 15854,11629 15782,11629 15782,11586 15862,11586 15862,11562 "/>
     <path id="5" class="fil2" d="M16020 11606c0,14 -14,28 -31,47l-48 53 0 18 108 0 0 -24 -71 0 35 -39c17,-18 34,-35 34,-55 0,-29 -19,-47 -52,-47 -30,0 -51,21 -55,51l29 0c1,-15 10,-27 26,-27 15,0 25,10 25,23z"/>
     <polygon id="6" class="fil2" points="16127,11562 16111,11562 16062,11586 16062,11614 16101,11595 16101,11724 16127,11724 "/>
     <path id="7" class="fil2" d="M16153 11690c3,23 23,37 50,37 27,0 46,-14 46,-38 0,-17 -10,-28 -30,-33l-25 -6c-9,-2 -12,-5 -12,-11 0,-9 9,-13 19,-13 12,0 19,5 21,13l26 0c-4,-22 -20,-35 -47,-35 -26,0 -45,16 -45,37 0,19 13,28 29,32l25 6c10,2 14,6 14,12 0,10 -8,14 -21,14 -11,0 -20,-5 -23,-15l-27 0z"/>
     <path id="8" class="fil2" d="M16281 11693c0,23 15,34 36,34 8,0 16,-2 20,-4l0 -24c-4,2 -10,4 -15,4 -9,0 -14,-4 -14,-13l0 -61 26 0 0 -22 -26 0 0 -32 -27 0 0 32 -18 0 0 22 18 0 0 64z"/>
     <path id="9" class="fil2" d="M16474 11562l-62 162 28 0 16 -45 63 0 17 45 28 0 -63 -162 -27 0zm13 33l23 60 -45 0 22 -60z"/>
     <polygon id="10" class="fil2" points="16639,11724 16684,11607 16656,11607 16626,11693 16596,11607 16567,11607 16612,11724 "/>
     <path id="11" class="fil2" d="M16775 11688c-3,11 -12,17 -25,17 -17,0 -29,-13 -30,-33l81 0 0 -10c0,-34 -18,-58 -51,-58 -32,0 -56,27 -56,62 0,36 23,61 56,61 29,0 46,-16 50,-39l-25 0zm-25 -62c16,0 24,12 25,26l-54 0c3,-17 14,-26 29,-26z"/>
     <path id="12" class="fil2" d="M15941 12033c43,0 71,-23 71,-65 0,-44 -28,-66 -71,-66l-81 0 0 209 35 0 0 -78 46 0zm36 -65c0,20 -13,34 -37,34l-45 0 0 -69 45 0c24,0 37,14 37,35z"/>
     <polygon id="13" class="fil2" points="16078,11890 16044,11890 16044,12111 16078,12111 "/>
     <path id="14" class="fil2" d="M16237 12111l0 -99c0,-34 -23,-56 -61,-56 -31,0 -55,20 -59,46l33 0c3,-11 12,-17 26,-17 19,0 29,12 29,28l0 12c-7,-4 -22,-9 -36,-9 -33,0 -59,20 -59,48 0,32 26,50 57,50 17,0 32,-6 38,-11l0 8 32 0zm-32 -40c-4,10 -18,15 -32,15 -15,0 -31,-6 -31,-22 0,-15 16,-21 31,-21 14,0 28,6 32,15l0 13z"/>
     <path id="15" class="fil2" d="M16277 12111l34 0 0 -99c4,-15 18,-25 32,-25 20,0 29,13 29,31l0 93 34 0 0 -98c0,-34 -19,-57 -54,-57 -17,0 -32,9 -41,18l0 -14 -34 0 0 151z"/>
     <path id="16" class="fil2" d="M16588 11902l-80 209 35 0 22 -58 80 0 22 58 36 0 -81 -209 -34 0zm17 43l29 78 -58 0 29 -78z"/>
     <polygon id="17" class="fil2" points="15958,12283 15942,12283 15893,12308 15893,12335 15932,12316 15932,12446 15958,12446 "/>
     <polygon id="18" class="fil2" points="16071,12283 16043,12283 15982,12393 15982,12412 16055,12412 16055,12446 16081,12446 16081,12412 16108,12412 16108,12389 16081,12389 16081,12351 16055,12351 16055,12389 16012,12389 "/>
     <path id="19" class="fil2" d="M16200 12328c0,14 -14,28 -30,46l-49 54 0 18 109 0 0 -24 -71 0 35 -39c17,-19 33,-36 33,-56 0,-28 -19,-47 -52,-47 -30,0 -51,21 -54,52l28 0c1,-16 10,-27 26,-27 16,0 25,9 25,23z"/>
     <path id="20" class="fil2" d="M16276 12394c0,-20 13,-33 31,-33 18,0 30,13 30,33 0,19 -12,31 -30,31 -18,0 -31,-12 -31,-31zm85 -72c-6,-27 -22,-42 -52,-42 -38,0 -61,37 -61,88 0,20 3,35 10,49 11,22 29,31 49,31 36,0 56,-25 56,-55 0,-29 -20,-54 -53,-54 -17,0 -32,9 -38,21l0 -3c0,-27 15,-54 37,-54 13,0 21,7 25,19l27 0z"/>
     <path id="21" class="fil2" d="M16380 12412c4,23 23,36 50,36 27,0 46,-14 46,-37 0,-18 -10,-29 -30,-34l-25 -6c-8,-2 -12,-5 -12,-10 0,-10 9,-14 19,-14 12,0 19,5 21,13l26 0c-4,-21 -19,-35 -47,-35 -26,0 -45,16 -45,37 0,20 13,29 30,33l24 5c10,3 14,6 14,13 0,9 -8,14 -20,14 -12,0 -21,-5 -24,-15l-27 0z"/>
     <path id="22" class="fil2" d="M16494 12429c0,11 8,19 19,19 10,0 18,-8 18,-19 0,-10 -8,-18 -18,-18 -11,0 -19,8 -19,18z"/>
     <path id="23" class="fil2" d="M16613 12274c-5,-2 -10,-3 -18,-3 -22,0 -39,13 -39,39l0 18 -20 0 0 22 20 0 0 96 26 0 0 -96 26 0 0 -22 -26 0 0 -16c0,-12 7,-19 18,-19 4,0 9,2 13,4l0 -23z"/>
     <path id="24" class="fil2" d="M16613 12429c0,11 8,19 18,19 10,0 18,-8 18,-19 0,-10 -8,-18 -18,-18 -10,0 -18,8 -18,18z"/>
     <line class="fil1 str1" x1="15785" y1="12187" x2="16771" y2= "12187" />
    </g>
   </g>
  </g>
  <g id="plan_e">
   <polygon class="fil0 str0" points="12873,4812 10815,4812 10815,5 10911,4 10910,292 12840,292 12841,5 12873,5 "/>
   <path class="fil1 str0" d="M12325 4812c17,-265 164,-447 474,-483l0 483"/>
   <g>
    <polygon class="fil2" points="11605,1924 11584,1924 11520,1956 11520,1992 11570,1967 11570,2136 11605,2136 "/>
    <path id="1" class="fil2" d="M11693 2043l14 0c22,0 38,12 38,33 0,20 -15,33 -37,33 -24,0 -38,-15 -40,-37l-35 0c2,40 32,67 76,67 44,0 70,-28 70,-64 0,-19 -10,-39 -32,-47 17,-8 28,-26 28,-48 0,-35 -25,-59 -67,-59 -39,0 -66,27 -71,64l36 0c1,-19 13,-33 36,-33 20,0 32,13 32,30 0,20 -15,31 -35,31l-13 0 0 30z"/>
    <path id="2" class="fil2" d="M11840 2068c0,-25 16,-42 40,-42 23,0 39,17 39,42 0,25 -16,41 -39,41 -24,0 -40,-16 -40,-41zm110 -94c-8,-34 -29,-53 -68,-53 -49,0 -79,47 -79,113 0,27 4,46 13,65 14,28 38,40 64,40 46,0 72,-33 72,-71 0,-38 -26,-71 -69,-71 -22,0 -41,12 -48,27l0 -3c0,-36 18,-71 47,-71 17,0 28,9 32,24l36 0z"/>
    <polygon id="3" class="fil2" points="12108,1951 12108,1924 11969,1924 11969,1956 12072,1956 11999,2136 12035,2136 "/>
    <polygon id="4" class="fil2" points="11292,2310 11292,2474 11399,2474 11399,2450 11319,2450 11319,2402 11392,2402 11392,2378 11319,2378 11319,2334 11399,2334 11399,2310 "/>
    <path id="5" class="fil2" d="M11559 2355c0,14 -14,28 -31,47l-49 54 0 18 110 0 0 -24 -72 0 36 -39c17,-19 34,-36 34,-56 0,-29 -20,-48 -53,-48 -31,0 -52,21 -55,52l29 0c1,-15 10,-27 26,-27 16,0 25,9 25,23z"/>
    <polygon id="6" class="fil2" points="11668,2310 11652,2310 11602,2335 11602,2363 11641,2343 11641,2474 11668,2474 "/>
    <path id="7" class="fil2" d="M11694 2440c4,23 23,37 51,37 27,0 47,-14 47,-38 0,-17 -11,-29 -31,-34l-25 -6c-9,-2 -13,-5 -13,-11 0,-9 10,-13 19,-13 13,0 20,5 22,13l26 0c-4,-22 -19,-35 -47,-35 -27,0 -46,15 -46,37 0,20 13,29 30,33l25 6c10,2 14,5 14,12 0,9 -8,14 -21,14 -12,0 -20,-5 -23,-15l-28 0z"/>
    <path id="8" class="fil2" d="M11824 2442c0,24 15,35 36,35 9,0 16,-1 21,-4l0 -25c-4,3 -10,5 -16,5 -9,0 -14,-4 -14,-14l0 -61 27 0 0 -23 -27 0 0 -32 -27 0 0 32 -19 0 0 23 19 0 0 64z"/>
    <path id="9" class="fil2" d="M12020 2310l-64 164 28 0 17 -45 63 0 17 45 29 0 -64 -164 -26 0zm13 34l22 61 -45 0 23 -61z"/>
    <polygon id="10" class="fil2" points="12186,2474 12232,2355 12204,2355 12173,2443 12142,2355 12113,2355 12159,2474 "/>
    <path id="11" class="fil2" d="M12324 2437c-3,12 -12,18 -25,18 -17,0 -30,-13 -30,-34l81 0 0 -10c0,-34 -18,-58 -52,-58 -32,0 -56,26 -56,62 0,37 23,62 57,62 29,0 46,-16 50,-40l-25 0zm-26 -62c17,0 25,12 25,26l-54 0c4,-17 15,-26 29,-26z"/>
    <path id="12" class="fil2" d="M11496 2787c44,0 73,-23 73,-66 0,-44 -29,-67 -73,-67l-82 0 0 212 36 0 0 -79 46 0zm37 -66c0,20 -13,35 -38,35l-45 0 0 -71 45 0c25,0 38,15 38,36z"/>
    <polygon id="13" class="fil2" points="11635,2642 11600,2642 11600,2866 11635,2866 "/>
    <path id="14" class="fil2" d="M11796 2866l0 -100c0,-35 -23,-57 -61,-57 -32,0 -56,20 -61,46l34 0c3,-10 12,-16 26,-16 20,0 29,12 29,27l0 13c-6,-5 -21,-10 -35,-10 -34,0 -60,21 -60,50 0,31 26,50 57,50 18,0 33,-6 38,-12l0 9 33 0zm-33 -41c-3,10 -17,16 -31,16 -16,0 -32,-7 -32,-22 0,-15 16,-22 32,-22 14,0 28,6 31,16l0 12z"/>
    <path id="15" class="fil2" d="M11837 2866l35 0 0 -101c3,-15 17,-24 32,-24 19,0 29,12 29,31l0 94 34 0 0 -100c0,-34 -19,-57 -54,-57 -18,0 -33,9 -41,18l0 -14 -35 0 0 153z"/>
    <polygon id="16" class="fil2" points="12087,2654 12087,2866 12225,2866 12225,2834 12122,2834 12122,2773 12216,2773 12216,2742 12122,2742 12122,2686 12225,2686 12225,2654 "/>
    <path id="17" class="fil2" d="M11541 3185c-17,0 -30,-10 -30,-27 0,-18 13,-27 30,-27 17,0 30,9 30,27 0,17 -13,27 -30,27zm0 -78c-13,0 -25,-8 -25,-23 0,-16 12,-25 25,-25 14,0 26,9 26,25 0,15 -12,23 -26,23zm0 100c32,0 57,-17 57,-47 0,-22 -14,-37 -30,-41 14,-5 25,-18 25,-37 0,-29 -24,-45 -52,-45 -27,0 -52,16 -52,45 0,19 12,32 26,37 -16,4 -31,19 -31,41 0,30 26,47 57,47z"/>
    <path id="18" class="fil2" d="M11703 3092c0,20 -12,33 -31,33 -19,0 -31,-13 -31,-33 0,-19 12,-32 31,-32 19,0 31,13 31,32zm-86 73c7,27 23,42 53,42 38,0 62,-37 62,-88 0,-21 -3,-36 -10,-50 -11,-22 -30,-32 -50,-32 -36,0 -57,26 -57,56 0,29 21,55 54,55 17,0 32,-9 38,-21l0 2c0,28 -15,56 -37,56 -13,0 -21,-8 -25,-20l-28 0z"/>
    <path id="19" class="fil2" d="M11792 3132l10 0c18,0 30,10 30,26 0,15 -12,25 -28,25 -19,0 -30,-11 -32,-28l-27 0c2,31 25,52 59,52 34,0 55,-21 55,-49 0,-16 -8,-31 -25,-38 13,-5 21,-20 21,-37 0,-27 -19,-46 -51,-46 -31,0 -52,21 -55,50l27 0c1,-14 11,-26 28,-26 16,0 25,11 25,24 0,15 -12,24 -27,24l-10 0 0 23z"/>
    <path id="20" class="fil2" d="M11875 3170c4,23 23,37 51,37 27,0 47,-14 47,-38 0,-17 -11,-29 -31,-34l-25 -6c-9,-2 -13,-5 -13,-11 0,-9 10,-13 19,-13 13,0 20,5 22,13l27 0c-4,-22 -20,-35 -48,-35 -26,0 -45,16 -45,37 0,20 12,29 29,33l25 6c10,2 14,6 14,12 0,9 -8,14 -21,14 -11,0 -20,-5 -23,-15l-28 0z"/>
    <path id="21" class="fil2" d="M11991 3188c0,10 8,19 18,19 10,0 19,-9 19,-19 0,-10 -9,-19 -19,-19 -10,0 -18,9 -18,19z"/>
    <path id="22" class="fil2" d="M12111 3031c-5,-2 -10,-4 -18,-4 -22,0 -39,14 -39,40l0 18 -21 0 0 23 21 0 0 97 26 0 0 -97 26 0 0 -23 -26 0 0 -16c0,-12 7,-18 17,-18 5,0 10,1 14,3l0 -23z"/>
    <path id="23" class="fil2" d="M12111 3188c0,10 8,19 18,19 11,0 19,-9 19,-19 0,-10 -8,-19 -19,-19 -10,0 -18,9 -18,19z"/>
    <line class="fil1 str1" x1="11364" y1="2940" x2="12363" y2= "2940" />
   </g>
  </g>
  <g id="plan_d">
   <g>
    <polygon class="fil0 str0" points="4755,4812 2710,4812 2710,4 4755,9 "/>
    <path class="fil1 str0" d="M3315 4812c-17,-265 -164,-447 -474,-483l0 483"/>
    <g>
     <polygon class="fil2" points="3502,1926 3481,1926 3418,1958 3418,1994 3467,1969 3467,2138 3502,2138 "/>
     <path id="1" class="fil2" d="M3591 2044l13 0c23,0 38,13 38,34 0,19 -15,32 -36,32 -25,0 -38,-14 -41,-36l-35 0c3,40 33,67 76,67 44,0 70,-28 70,-64 0,-19 -10,-39 -31,-48 16,-7 27,-25 27,-47 0,-35 -24,-60 -66,-60 -40,0 -66,28 -71,65l35 0c2,-19 14,-34 36,-34 21,0 33,14 33,31 0,20 -16,30 -36,30l-12 0 0 30z"/>
     <path id="2" class="fil2" d="M3771 2029c23,0 37,16 37,40 0,24 -14,41 -36,41 -24,0 -37,-14 -40,-36l-35 0c4,41 33,67 75,67 41,0 70,-30 70,-72 0,-42 -27,-71 -67,-71 -16,0 -30,6 -36,11l0 -51 90 0 0 -32 -120 0 0 119 27 0c8,-9 19,-16 35,-16z"/>
     <path id="3" class="fil2" d="M3976 1993c0,26 -16,42 -40,42 -23,0 -39,-16 -39,-42 0,-24 16,-41 39,-41 24,0 40,17 40,41zm-110 94c8,34 29,54 68,54 49,0 79,-48 79,-114 0,-26 -4,-45 -13,-64 -14,-28 -38,-41 -63,-41 -47,0 -73,33 -73,72 0,38 26,70 69,70 22,0 41,-11 48,-27l0 4c0,36 -18,71 -47,71 -17,0 -27,-10 -32,-25l-36 0z"/>
     <polygon id="4" class="fil2" points="3195,2311 3195,2476 3303,2476 3303,2451 3222,2451 3222,2404 3295,2404 3295,2379 3222,2379 3222,2336 3303,2336 3303,2311 "/>
     <path id="5" class="fil2" d="M3463 2357c0,14 -15,28 -32,47l-49 54 0 18 110 0 0 -24 -71 0 35 -40c17,-19 34,-36 34,-56 0,-29 -20,-47 -53,-47 -30,0 -52,21 -55,52l29 0c1,-16 10,-28 26,-28 16,0 26,10 26,24z"/>
     <polygon id="6" class="fil2" points="3571,2311 3555,2311 3506,2336 3506,2364 3544,2345 3544,2476 3571,2476 "/>
     <path id="7" class="fil2" d="M3597 2442c4,23 23,37 51,37 27,0 46,-15 46,-38 0,-18 -10,-29 -30,-34l-25 -6c-9,-2 -13,-6 -13,-11 0,-10 10,-14 19,-14 13,0 20,6 22,13l26 0c-4,-21 -19,-35 -47,-35 -26,0 -46,16 -46,37 0,20 13,29 30,33l25 6c10,3 14,6 14,12 0,10 -8,15 -21,15 -12,0 -20,-5 -23,-15l-28 0z"/>
     <path id="8" class="fil2" d="M3727 2444c0,23 15,35 36,35 9,0 16,-2 20,-5l0 -24c-3,3 -9,5 -15,5 -9,0 -14,-5 -14,-14l0 -62 27 0 0 -22 -27 0 0 -32 -27 0 0 32 -19 0 0 22 19 0 0 65z"/>
     <path id="9" class="fil2" d="M3922 2311l-63 165 28 0 17 -46 63 0 17 46 29 0 -64 -165 -27 0zm14 34l22 61 -45 0 23 -61z"/>
     <polygon id="10" class="fil2" points="4089,2476 4134,2357 4107,2357 4076,2444 4045,2357 4016,2357 4061,2476 "/>
     <path id="11" class="fil2" d="M4227 2439c-3,11 -13,17 -26,17 -17,0 -29,-12 -30,-33l82 0 0 -10c0,-35 -19,-59 -52,-59 -33,0 -56,27 -56,63 0,36 23,62 56,62 29,0 47,-16 51,-40l-25 0zm-26 -62c17,0 25,12 25,26l-54 0c3,-17 14,-26 29,-26z"/>
     <path id="12" class="fil2" d="M3383 2788c44,0 73,-23 73,-66 0,-44 -29,-67 -73,-67l-82 0 0 212 36 0 0 -79 46 0zm37 -66c0,20 -13,35 -38,35l-45 0 0 -70 45 0c25,0 38,14 38,35z"/>
     <polygon id="13" class="fil2" points="3522,2643 3487,2643 3487,2867 3522,2867 "/>
     <path id="14" class="fil2" d="M3683 2867l0 -100c0,-35 -23,-56 -62,-56 -31,0 -55,19 -60,46l33 0c4,-11 13,-17 27,-17 19,0 29,12 29,28l0 12c-6,-4 -22,-9 -35,-9 -34,0 -60,20 -60,49 0,31 26,50 57,50 17,0 33,-6 38,-11l0 8 33 0zm-33 -40c-4,9 -18,15 -31,15 -16,0 -32,-6 -32,-22 0,-15 16,-22 32,-22 13,0 27,6 31,16l0 13z"/>
     <path id="15" class="fil2" d="M3724 2867l34 0 0 -100c4,-16 18,-25 32,-25 20,0 29,12 29,31l0 94 35 0 0 -99c0,-34 -19,-57 -54,-57 -18,0 -33,8 -42,18l0 -15 -34 0 0 153z"/>
     <path id="16" class="fil2" d="M4009 2835l0 -148 34 0c45,0 69,29 69,74 0,46 -24,74 -69,74l-34 0zm-36 32l72 0c62,0 103,-41 103,-106 0,-64 -41,-106 -103,-106l-72 0 0 212z"/>
     <polygon id="17" class="fil2" points="3421,3041 3404,3041 3355,3066 3355,3094 3393,3074 3393,3206 3421,3206 "/>
     <polygon id="18" class="fil2" points="3535,3041 3506,3041 3444,3152 3444,3171 3519,3171 3519,3206 3545,3206 3545,3171 3572,3171 3572,3148 3545,3148 3545,3110 3519,3110 3519,3148 3475,3148 "/>
     <polygon id="19" class="fil2" points="3645,3041 3629,3041 3579,3066 3579,3094 3618,3074 3618,3206 3645,3206 "/>
     <path id="20" class="fil2" d="M3760 3094c0,19 -13,32 -32,32 -18,0 -30,-13 -30,-32 0,-20 12,-32 30,-32 19,0 32,12 32,32zm-86 72c6,27 23,42 53,42 38,0 61,-37 61,-88 0,-21 -3,-36 -10,-50 -11,-22 -29,-32 -49,-32 -36,0 -57,26 -57,56 0,29 20,55 54,55 17,0 32,-9 38,-21l0 3c0,27 -15,55 -37,55 -14,0 -22,-8 -26,-20l-27 0z"/>
     <path id="21" class="fil2" d="M3807 3171c3,23 23,37 51,37 27,0 46,-14 46,-38 0,-17 -10,-29 -31,-34l-25 -5c-8,-3 -12,-6 -12,-11 0,-10 10,-14 19,-14 12,0 19,5 22,13l26 0c-4,-22 -20,-35 -48,-35 -26,0 -45,16 -45,37 0,20 13,29 30,33l24 6c10,2 14,6 14,12 0,9 -8,14 -20,14 -12,0 -21,-5 -24,-15l-27 0z"/>
     <path id="22" class="fil2" d="M3922 3189c0,10 8,19 19,19 10,0 18,-9 18,-19 0,-10 -8,-19 -18,-19 -11,0 -19,9 -19,19z"/>
     <path id="23" class="fil2" d="M4042 3032c-5,-2 -10,-3 -18,-3 -22,0 -39,14 -39,39l0 19 -21 0 0 22 21 0 0 97 26 0 0 -97 26 0 0 -22 -26 0 0 -17c0,-12 7,-18 18,-18 4,0 9,1 13,3l0 -23z"/>
     <path id="24" class="fil2" d="M4043 3189c0,10 8,19 18,19 10,0 18,-9 18,-19 0,-10 -8,-19 -18,-19 -10,0 -18,9 -18,19z"/>
     <line class="fil1 str1" x1="3225" y1="2941" x2="4223" y2= "2941" />
    </g>
   </g>
   <g>
    <rect class="fil0 str0" x="4721" y="4" width="2039" height="4803"/>
    <path class="fil1 str0" d="M6150 4807c17,-265 165,-447 474,-483l0 483"/>
    <g>
     <polygon class="fil2" points="5524,1921 5503,1921 5439,1953 5439,1989 5489,1964 5489,2133 5524,2133 "/>
     <path id="1" class="fil2" d="M5612 2039l14 0c22,0 38,13 38,34 0,19 -15,32 -37,32 -24,0 -38,-14 -40,-36l-35 0c2,40 32,67 76,67 44,0 70,-28 70,-64 0,-19 -10,-39 -32,-48 17,-7 28,-25 28,-47 0,-35 -25,-60 -67,-60 -39,0 -66,28 -70,65l35 0c1,-19 13,-34 36,-34 20,0 32,14 32,31 0,20 -15,30 -35,30l-13 0 0 30z"/>
     <path id="2" class="fil2" d="M5759 2065c0,-26 16,-42 40,-42 23,0 39,17 39,42 0,24 -16,41 -39,41 -24,0 -40,-17 -40,-41zm110 -94c-8,-34 -29,-54 -68,-54 -49,0 -79,48 -79,114 0,26 4,46 13,64 14,29 38,41 64,41 46,0 72,-33 72,-72 0,-37 -26,-70 -69,-70 -22,0 -41,11 -48,27l0 -4c0,-35 18,-70 47,-70 17,0 28,9 32,24l36 0z"/>
     <polygon id="3" class="fil2" points="5974,1921 5953,1921 5890,1953 5890,1989 5940,1964 5940,2133 5974,2133 "/>
     <polygon id="4" class="fil2" points="5191,2306 5191,2471 5299,2471 5299,2446 5218,2446 5218,2399 5291,2399 5291,2374 5218,2374 5218,2331 5299,2331 5299,2306 "/>
     <path id="5" class="fil2" d="M5459 2352c0,14 -15,28 -32,47l-48 54 0 18 109 0 0 -24 -71 0 35 -40c17,-19 34,-36 34,-56 0,-29 -20,-47 -53,-47 -30,0 -52,21 -55,52l29 0c1,-16 10,-28 26,-28 16,0 26,10 26,24z"/>
     <polygon id="6" class="fil2" points="5567,2306 5551,2306 5502,2331 5502,2359 5540,2340 5540,2471 5567,2471 "/>
     <path id="7" class="fil2" d="M5593 2437c4,23 23,37 51,37 27,0 47,-15 47,-38 0,-18 -11,-29 -31,-34l-25 -6c-9,-2 -13,-6 -13,-11 0,-10 10,-14 19,-14 13,0 20,6 22,13l26 0c-4,-21 -19,-35 -47,-35 -26,0 -46,16 -46,37 0,20 13,29 30,33l25 6c10,3 14,6 14,12 0,10 -8,15 -21,15 -12,0 -20,-5 -23,-15l-28 0z"/>
     <path id="8" class="fil2" d="M5723 2439c0,23 15,35 36,35 9,0 16,-2 21,-5l0 -24c-4,3 -10,5 -16,5 -9,0 -14,-5 -14,-14l0 -62 27 0 0 -22 -27 0 0 -32 -27 0 0 32 -19 0 0 22 19 0 0 65z"/>
     <path id="9" class="fil2" d="M5918 2306l-63 165 28 0 17 -46 63 0 17 46 29 0 -64 -165 -27 0zm14 34l22 61 -45 0 23 -61z"/>
     <polygon id="10" class="fil2" points="6085,2471 6131,2352 6103,2352 6072,2439 6041,2352 6012,2352 6057,2471 "/>
     <path id="11" class="fil2" d="M6223 2434c-3,11 -13,17 -26,17 -17,0 -29,-12 -30,-33l82 0 0 -10c0,-35 -19,-59 -52,-59 -33,0 -56,27 -56,63 0,36 23,62 56,62 29,0 47,-16 51,-40l-25 0zm-26 -62c17,0 25,12 25,26l-54 0c3,-17 14,-26 29,-26z"/>
     <path id="12" class="fil2" d="M5379 2783c44,0 73,-23 73,-66 0,-44 -29,-67 -73,-67l-82 0 0 212 36 0 0 -79 46 0zm37 -66c0,20 -13,35 -38,35l-45 0 0 -70 45 0c25,0 38,14 38,35z"/>
     <polygon id="13" class="fil2" points="5518,2638 5483,2638 5483,2862 5518,2862 "/>
     <path id="14" class="fil2" d="M5679 2862l0 -100c0,-35 -23,-56 -62,-56 -31,0 -55,19 -60,46l34 0c3,-11 12,-17 26,-17 19,0 29,12 29,28l0 12c-6,-4 -22,-9 -35,-9 -34,0 -60,20 -60,49 0,31 26,50 57,50 17,0 33,-6 38,-11l0 8 33 0zm-33 -40c-4,9 -17,15 -31,15 -16,0 -32,-6 -32,-22 0,-15 16,-22 32,-22 14,0 27,6 31,16l0 13z"/>
     <path id="15" class="fil2" d="M5720 2862l34 0 0 -100c4,-16 18,-25 32,-25 20,0 29,12 29,31l0 94 35 0 0 -99c0,-34 -19,-57 -54,-57 -18,0 -33,8 -42,18l0 -15 -34 0 0 153z"/>
     <path id="16" class="fil2" d="M6005 2830l0 -148 34 0c45,0 69,29 69,74 0,46 -24,74 -69,74l-34 0zm-36 32l72 0c62,0 103,-41 103,-106 0,-64 -41,-106 -103,-106l-72 0 0 212z"/>
     <polygon id="17" class="fil2" points="5417,3036 5400,3036 5351,3061 5351,3089 5390,3069 5390,3201 5417,3201 "/>
     <polygon id="18" class="fil2" points="5531,3036 5502,3036 5440,3147 5440,3166 5515,3166 5515,3201 5541,3201 5541,3166 5568,3166 5568,3143 5541,3143 5541,3105 5515,3105 5515,3143 5471,3143 "/>
     <polygon id="19" class="fil2" points="5641,3036 5625,3036 5576,3061 5576,3089 5614,3069 5614,3201 5641,3201 "/>
     <path id="20" class="fil2" d="M5756 3089c0,19 -13,32 -32,32 -18,0 -30,-13 -30,-32 0,-20 12,-32 30,-32 19,0 32,12 32,32zm-86 72c6,27 23,42 53,42 38,0 61,-37 61,-88 0,-21 -3,-36 -10,-50 -11,-22 -29,-32 -49,-32 -36,0 -57,26 -57,56 0,29 20,55 54,55 17,0 32,-9 38,-21l0 3c0,27 -15,55 -37,55 -14,0 -22,-8 -25,-20l-28 0z"/>
     <path id="21" class="fil2" d="M5803 3166c3,23 23,37 51,37 27,0 46,-14 46,-38 0,-17 -10,-29 -30,-34l-26 -5c-8,-3 -12,-6 -12,-11 0,-10 10,-14 19,-14 12,0 19,5 22,13l26 0c-4,-22 -20,-35 -48,-35 -26,0 -45,16 -45,37 0,20 13,29 30,33l24 6c10,2 14,6 14,12 0,9 -8,14 -20,14 -12,0 -21,-5 -24,-15l-27 0z"/>
     <path id="22" class="fil2" d="M5918 3184c0,10 9,19 19,19 10,0 18,-9 18,-19 0,-10 -8,-19 -18,-19 -10,0 -19,9 -19,19z"/>
     <path id="23" class="fil2" d="M6038 3027c-5,-2 -10,-3 -18,-3 -22,0 -39,14 -39,39l0 19 -21 0 0 22 21 0 0 97 26 0 0 -97 26 0 0 -22 -26 0 0 -17c0,-12 7,-18 18,-18 4,0 9,1 13,3l0 -23z"/>
     <path id="24" class="fil2" d="M6039 3184c0,10 8,19 18,19 10,0 18,-9 18,-19 0,-10 -8,-19 -18,-19 -10,0 -18,9 -18,19z"/>
     <line class="fil1 str1" x1="5249" y1="2936" x2="6248" y2= "2936" />
    </g>
   </g>
   <g>
    <polygon class="fil0 str0" points="8812,4807 6768,4807 6768,4 8812,4 "/>
    <path class="fil1 str0" d="M7377 4807c-17,-265 -164,-447 -474,-483l0 483"/>
    <g>
     <polygon class="fil2" points="7608,1921 7587,1921 7523,1953 7523,1989 7573,1964 7573,2133 7608,2133 "/>
     <path id="1" class="fil2" d="M7696 2039l14 0c22,0 38,13 38,34 0,19 -15,32 -36,32 -25,0 -39,-14 -41,-36l-35 0c2,40 32,67 76,67 44,0 70,-28 70,-64 0,-19 -10,-39 -32,-48 17,-7 28,-25 28,-47 0,-35 -25,-60 -66,-60 -40,0 -67,28 -71,65l35 0c1,-19 13,-34 36,-34 20,0 32,14 32,31 0,20 -15,30 -35,30l-13 0 0 30z"/>
     <path id="2" class="fil2" d="M7843 2065c0,-26 16,-42 40,-42 23,0 39,17 39,42 0,24 -16,41 -39,41 -24,0 -40,-17 -40,-41zm110 -94c-8,-34 -29,-54 -68,-54 -49,0 -79,48 -79,114 0,26 4,46 13,64 14,29 38,41 64,41 46,0 72,-33 72,-72 0,-37 -26,-70 -69,-70 -22,0 -41,11 -48,27l0 -4c0,-35 18,-70 47,-70 17,0 28,9 32,24l36 0z"/>
     <path id="3" class="fil2" d="M8035 2039l13 0c23,0 39,13 39,34 0,19 -15,32 -37,32 -24,0 -38,-14 -41,-36l-34 0c2,40 32,67 76,67 43,0 70,-28 70,-64 0,-19 -10,-39 -32,-48 17,-7 28,-25 28,-47 0,-35 -25,-60 -67,-60 -40,0 -66,28 -71,65l36 0c1,-19 13,-34 36,-34 20,0 32,14 32,31 0,20 -15,30 -36,30l-12 0 0 30z"/>
     <polygon id="4" class="fil2" points="7300,2306 7300,2471 7408,2471 7408,2446 7328,2446 7328,2399 7400,2399 7400,2374 7328,2374 7328,2331 7408,2331 7408,2306 "/>
     <path id="5" class="fil2" d="M7568 2352c0,14 -14,28 -31,47l-49 54 0 18 110 0 0 -24 -72 0 35 -40c17,-19 34,-36 34,-56 0,-29 -19,-47 -52,-47 -31,0 -52,21 -55,52l28 0c1,-16 10,-28 27,-28 15,0 25,10 25,24z"/>
     <polygon id="6" class="fil2" points="7677,2306 7660,2306 7611,2331 7611,2359 7650,2340 7650,2471 7677,2471 "/>
     <path id="7" class="fil2" d="M7703 2437c3,23 22,37 50,37 27,0 47,-15 47,-38 0,-18 -10,-29 -31,-34l-25 -6c-9,-2 -12,-6 -12,-11 0,-10 9,-14 19,-14 12,0 19,6 21,13l27 0c-4,-21 -20,-35 -48,-35 -26,0 -45,16 -45,37 0,20 12,29 29,33l25 6c10,3 14,6 14,12 0,10 -8,15 -20,15 -12,0 -21,-5 -24,-15l-27 0z"/>
     <path id="8" class="fil2" d="M7832 2439c0,23 15,35 37,35 8,0 15,-2 20,-5l0 -24c-4,3 -10,5 -16,5 -8,0 -14,-5 -14,-14l0 -62 27 0 0 -22 -27 0 0 -32 -27 0 0 32 -18 0 0 22 18 0 0 65z"/>
     <path id="9" class="fil2" d="M8028 2306l-64 165 29 0 16 -46 64 0 17 46 28 0 -63 -165 -27 0zm13 34l22 61 -45 0 23 -61z"/>
     <polygon id="10" class="fil2" points="8194,2471 8240,2352 8212,2352 8181,2439 8150,2352 8122,2352 8167,2471 "/>
     <path id="11" class="fil2" d="M8332 2434c-3,11 -12,17 -25,17 -17,0 -30,-12 -30,-33l81 0 0 -10c0,-35 -18,-59 -52,-59 -32,0 -56,27 -56,63 0,36 23,62 57,62 28,0 46,-16 50,-40l-25 0zm-26 -62c17,0 25,12 25,26l-54 0c4,-17 15,-26 29,-26z"/>
     <path id="12" class="fil2" d="M7488 2783c44,0 73,-23 73,-66 0,-44 -29,-67 -73,-67l-82 0 0 212 36 0 0 -79 46 0zm37 -66c0,20 -13,35 -37,35l-46 0 0 -70 46 0c24,0 37,14 37,35z"/>
     <polygon id="13" class="fil2" points="7627,2638 7593,2638 7593,2862 7627,2862 "/>
     <path id="14" class="fil2" d="M7788 2862l0 -100c0,-35 -23,-56 -61,-56 -32,0 -56,19 -60,46l33 0c4,-11 12,-17 26,-17 20,0 29,12 29,28l0 12c-6,-4 -21,-9 -35,-9 -34,0 -60,20 -60,49 0,31 26,50 57,50 18,0 33,-6 38,-11l0 8 33 0zm-33 -40c-3,9 -17,15 -31,15 -16,0 -32,-6 -32,-22 0,-15 16,-22 32,-22 14,0 28,6 31,16l0 13z"/>
     <path id="15" class="fil2" d="M7829 2862l35 0 0 -100c3,-16 17,-25 32,-25 19,0 29,12 29,31l0 94 34 0 0 -99c0,-34 -19,-57 -54,-57 -18,0 -33,8 -41,18l0 -15 -35 0 0 153z"/>
     <path id="16" class="fil2" d="M8114 2830l0 -148 35 0c44,0 68,29 68,74 0,46 -24,74 -68,74l-35 0zm-35 32l71 0c63,0 103,-41 103,-106 0,-64 -40,-106 -103,-106l-71 0 0 212z"/>
     <polygon id="17" class="fil2" points="7526,3036 7510,3036 7460,3061 7460,3089 7499,3069 7499,3201 7526,3201 "/>
     <polygon id="18" class="fil2" points="7640,3036 7612,3036 7550,3147 7550,3166 7624,3166 7624,3201 7650,3201 7650,3166 7677,3166 7677,3143 7650,3143 7650,3105 7624,3105 7624,3143 7580,3143 "/>
     <polygon id="19" class="fil2" points="7751,3036 7734,3036 7685,3061 7685,3089 7723,3069 7723,3201 7751,3201 "/>
     <path id="20" class="fil2" d="M7865 3089c0,19 -12,32 -31,32 -19,0 -31,-13 -31,-32 0,-20 12,-32 31,-32 19,0 31,12 31,32zm-86 72c7,27 23,42 53,42 38,0 62,-37 62,-88 0,-21 -3,-36 -10,-50 -11,-22 -30,-32 -50,-32 -36,0 -56,26 -56,56 0,29 20,55 53,55 17,0 32,-9 38,-21l0 3c0,27 -15,55 -37,55 -13,0 -21,-8 -25,-20l-28 0z"/>
     <path id="21" class="fil2" d="M7912 3166c4,23 23,37 51,37 27,0 46,-14 46,-38 0,-17 -10,-29 -30,-34l-25 -5c-9,-3 -13,-6 -13,-11 0,-10 10,-14 19,-14 13,0 20,5 22,13l26 0c-4,-22 -19,-35 -47,-35 -27,0 -46,16 -46,37 0,20 13,29 30,33l25 6c10,2 14,6 14,12 0,9 -8,14 -21,14 -12,0 -20,-5 -23,-15l-28 0z"/>
     <path id="22" class="fil2" d="M8028 3184c0,10 8,19 18,19 10,0 18,-9 18,-19 0,-10 -8,-19 -18,-19 -10,0 -18,9 -18,19z"/>
     <path id="23" class="fil2" d="M8147 3027c-4,-2 -10,-3 -17,-3 -23,0 -40,14 -40,39l0 19 -20 0 0 22 20 0 0 97 27 0 0 -97 26 0 0 -22 -26 0 0 -17c0,-12 6,-18 17,-18 4,0 9,1 13,3l0 -23z"/>
     <path id="24" class="fil2" d="M8148 3184c0,10 8,19 18,19 10,0 18,-9 18,-19 0,-10 -8,-19 -18,-19 -10,0 -18,9 -18,19z"/>
     <line class="fil1 str1" x1="7287" y1="2936" x2="8285" y2= "2936" />
    </g>
   </g>
   <g>
    <rect class="fil0 str0" x="8804" y="4" width="2044" height="4803"/>
    <path class="fil1 str0" d="M9414 4807c-17,-265 -164,-447 -474,-483l0 483"/>
    <g>
     <polygon class="fil2" points="9630,1921 9609,1921 9546,1953 9546,1989 9595,1964 9595,2133 9630,2133 "/>
     <path id="1" class="fil2" d="M9719 2039l13 0c23,0 39,13 39,34 0,19 -16,32 -37,32 -25,0 -38,-14 -41,-36l-35 0c3,40 33,67 76,67 44,0 71,-28 71,-64 0,-19 -11,-39 -32,-48 17,-7 27,-25 27,-47 0,-35 -24,-60 -66,-60 -40,0 -66,28 -71,65l35 0c2,-19 14,-34 36,-34 21,0 33,14 33,31 0,20 -15,30 -36,30l-12 0 0 30z"/>
     <path id="2" class="fil2" d="M9865 2065c0,-26 16,-42 40,-42 24,0 40,17 40,42 0,24 -16,41 -40,41 -24,0 -40,-17 -40,-41zm111 -94c-9,-34 -30,-54 -69,-54 -48,0 -79,48 -79,114 0,26 4,46 13,64 14,29 38,41 64,41 46,0 73,-33 73,-72 0,-37 -26,-70 -69,-70 -23,0 -41,11 -49,27l0 -4c0,-35 19,-70 47,-70 18,0 28,9 33,24l36 0z"/>
     <path id="3" class="fil2" d="M10074 2024c23,0 37,16 37,40 0,24 -14,41 -37,41 -23,0 -36,-14 -39,-36l-35 0c4,41 32,67 74,67 42,0 71,-30 71,-72 0,-42 -28,-71 -68,-71 -16,0 -29,6 -36,11l0 -51 90 0 0 -32 -119 0 0 119 27 0c7,-9 19,-16 35,-16z"/>
     <polygon id="4" class="fil2" points="9323,2306 9323,2471 9431,2471 9431,2446 9350,2446 9350,2399 9423,2399 9423,2374 9350,2374 9350,2331 9431,2331 9431,2306 "/>
     <path id="5" class="fil2" d="M9591 2352c0,14 -15,28 -31,47l-49 54 0 18 110 0 0 -24 -72 0 35 -40c17,-19 34,-36 34,-56 0,-29 -20,-47 -53,-47 -30,0 -51,21 -55,52l29 0c1,-16 10,-28 26,-28 16,0 26,10 26,24z"/>
     <polygon id="6" class="fil2" points="9700,2306 9683,2306 9634,2331 9634,2359 9672,2340 9672,2471 9700,2471 "/>
     <path id="7" class="fil2" d="M9725 2437c4,23 23,37 51,37 27,0 47,-15 47,-38 0,-18 -11,-29 -31,-34l-25 -6c-9,-2 -13,-6 -13,-11 0,-10 10,-14 19,-14 13,0 20,6 22,13l27 0c-4,-21 -20,-35 -48,-35 -26,0 -45,16 -45,37 0,20 12,29 29,33l25 6c10,3 14,6 14,12 0,10 -8,15 -21,15 -11,0 -20,-5 -23,-15l-28 0z"/>
     <path id="8" class="fil2" d="M9855 2439c0,23 15,35 36,35 9,0 16,-2 21,-5l0 -24c-4,3 -10,5 -16,5 -9,0 -14,-5 -14,-14l0 -62 27 0 0 -22 -27 0 0 -32 -27 0 0 32 -19 0 0 22 19 0 0 65z"/>
     <path id="9" class="fil2" d="M10051 2306l-64 165 28 0 17 -46 63 0 17 46 29 0 -64 -165 -26 0zm13 34l22 61 -45 0 23 -61z"/>
     <polygon id="10" class="fil2" points="10217,2471 10263,2352 10235,2352 10204,2439 10173,2352 10144,2352 10190,2471 "/>
     <path id="11" class="fil2" d="M10355 2434c-3,11 -13,17 -25,17 -18,0 -30,-12 -31,-33l82 0 0 -10c0,-35 -18,-59 -52,-59 -33,0 -56,27 -56,63 0,36 23,62 57,62 28,0 46,-16 50,-40l-25 0zm-26 -62c17,0 25,12 25,26l-54 0c3,-17 14,-26 29,-26z"/>
     <path id="12" class="fil2" d="M9511 2783c44,0 73,-23 73,-66 0,-44 -29,-67 -73,-67l-82 0 0 212 36 0 0 -79 46 0zm37 -66c0,20 -13,35 -38,35l-45 0 0 -70 45 0c25,0 38,14 38,35z"/>
     <polygon id="13" class="fil2" points="9650,2638 9615,2638 9615,2862 9650,2862 "/>
     <path id="14" class="fil2" d="M9811 2862l0 -100c0,-35 -23,-56 -61,-56 -32,0 -56,19 -61,46l34 0c3,-11 12,-17 26,-17 20,0 29,12 29,28l0 12c-6,-4 -22,-9 -35,-9 -34,0 -60,20 -60,49 0,31 26,50 57,50 18,0 33,-6 38,-11l0 8 33 0zm-33 -40c-4,9 -17,15 -31,15 -16,0 -32,-6 -32,-22 0,-15 16,-22 32,-22 14,0 27,6 31,16l0 13z"/>
     <path id="15" class="fil2" d="M9852 2862l34 0 0 -100c4,-16 18,-25 33,-25 19,0 29,12 29,31l0 94 34 0 0 -99c0,-34 -19,-57 -54,-57 -18,0 -33,8 -42,18l0 -15 -34 0 0 153z"/>
     <path id="16" class="fil2" d="M10137 2830l0 -148 34 0c45,0 69,29 69,74 0,46 -24,74 -69,74l-34 0zm-36 32l72 0c62,0 103,-41 103,-106 0,-64 -41,-106 -103,-106l-72 0 0 212z"/>
     <polygon id="17" class="fil2" points="9530,3036 9514,3036 9464,3061 9464,3089 9503,3069 9503,3201 9530,3201 "/>
     <polygon id="18" class="fil2" points="9644,3036 9616,3036 9554,3147 9554,3166 9628,3166 9628,3201 9654,3201 9654,3166 9681,3166 9681,3143 9654,3143 9654,3105 9628,3105 9628,3143 9584,3143 "/>
     <path id="19" class="fil2" d="M9775 3081c0,14 -14,28 -31,47l-49 54 0 19 110 0 0 -25 -72 0 36 -39c17,-19 33,-36 33,-56 0,-29 -19,-48 -52,-48 -31,0 -52,22 -55,52l28 0c2,-15 10,-27 27,-27 15,0 25,10 25,23z"/>
     <path id="20" class="fil2" d="M9879 3181c-17,0 -30,-10 -30,-27 0,-17 13,-27 30,-27 17,0 30,10 30,27 0,17 -13,27 -30,27zm0 -78c-13,0 -25,-8 -25,-23 0,-16 12,-24 25,-24 14,0 25,8 25,24 0,15 -11,23 -25,23zm0 100c32,0 57,-17 57,-47 0,-22 -14,-37 -30,-41 14,-5 25,-18 25,-37 0,-29 -24,-45 -52,-45 -28,0 -52,16 -52,45 0,19 12,32 25,37 -16,4 -30,19 -30,41 0,30 25,47 57,47z"/>
     <path id="21" class="fil2" d="M9954 3166c3,23 22,37 50,37 27,0 47,-14 47,-38 0,-17 -10,-29 -31,-34l-25 -5c-9,-3 -12,-6 -12,-11 0,-10 9,-14 19,-14 12,0 19,5 21,13l27 0c-4,-22 -20,-35 -48,-35 -26,0 -45,16 -45,37 0,20 12,29 29,33l25 6c10,2 14,6 14,12 0,9 -8,14 -20,14 -12,0 -21,-5 -24,-15l-27 0z"/>
     <path id="22" class="fil2" d="M10069 3184c0,10 8,19 18,19 11,0 19,-9 19,-19 0,-10 -8,-19 -19,-19 -10,0 -18,9 -18,19z"/>
     <path id="23" class="fil2" d="M10189 3027c-5,-2 -10,-3 -18,-3 -22,0 -39,14 -39,39l0 19 -21 0 0 22 21 0 0 97 26 0 0 -97 26 0 0 -22 -26 0 0 -17c0,-12 7,-18 18,-18 4,0 9,1 13,3l0 -23z"/>
     <path id="24" class="fil2" d="M10189 3184c0,10 8,19 19,19 10,0 18,-9 18,-19 0,-10 -8,-19 -18,-19 -11,0 -19,9 -19,19z"/>
     <line class="fil1 str1" x1="9338" y1="2936" x2="10337" y2= "2936" />
    </g>
   </g>
   <g>
    <rect class="fil0 str0" x="12852" y="4" width="2100" height="4803"/>
    <path class="fil1 str0" d="M14348 4807c17,-265 164,-447 474,-483l0 483"/>
    <g>
     <polygon class="fil2" points="13718,1921 13697,1921 13634,1953 13634,1989 13683,1964 13683,2133 13718,2133 "/>
     <path id="1" class="fil2" d="M13807 2039l13 0c23,0 38,13 38,34 0,19 -15,32 -36,32 -25,0 -39,-14 -41,-36l-35 0c3,40 33,67 76,67 44,0 70,-28 70,-64 0,-19 -10,-39 -31,-48 16,-7 27,-25 27,-47 0,-35 -24,-60 -66,-60 -40,0 -66,28 -71,65l35 0c2,-19 14,-34 36,-34 21,0 33,14 33,31 0,20 -16,30 -36,30l-12 0 0 30z"/>
     <path id="2" class="fil2" d="M13953 2065c0,-26 16,-42 40,-42 24,0 40,17 40,42 0,24 -16,41 -40,41 -24,0 -40,-17 -40,-41zm111 -94c-9,-34 -30,-54 -69,-54 -48,0 -79,48 -79,114 0,26 4,46 13,64 14,29 38,41 64,41 46,0 72,-33 72,-72 0,-37 -25,-70 -68,-70 -23,0 -41,11 -49,27l0 -4c0,-35 19,-70 47,-70 18,0 28,9 33,24l36 0z"/>
     <path id="3" class="fil2" d="M14202 1988c0,26 -16,42 -40,42 -24,0 -40,-16 -40,-42 0,-24 16,-41 40,-41 24,0 40,17 40,41zm-111 94c9,34 30,54 69,54 49,0 79,-48 79,-114 0,-26 -4,-45 -13,-64 -14,-28 -38,-41 -64,-41 -46,0 -72,33 -72,72 0,38 26,70 68,70 23,0 42,-11 49,-27l0 4c0,36 -19,71 -47,71 -17,0 -28,-10 -33,-25l-36 0z"/>
     <polygon id="4" class="fil2" points="13416,2306 13416,2471 13523,2471 13523,2446 13443,2446 13443,2399 13516,2399 13516,2374 13443,2374 13443,2331 13523,2331 13523,2306 "/>
     <path id="5" class="fil2" d="M13683 2352c0,14 -14,28 -31,47l-49 54 0 18 110 0 0 -24 -72 0 36 -40c17,-19 34,-36 34,-56 0,-29 -20,-47 -53,-47 -31,0 -52,21 -55,52l29 0c1,-16 10,-28 26,-28 16,0 25,10 25,24z"/>
     <polygon id="6" class="fil2" points="13792,2306 13776,2306 13726,2331 13726,2359 13765,2340 13765,2471 13792,2471 "/>
     <path id="7" class="fil2" d="M13818 2437c4,23 23,37 51,37 27,0 46,-15 46,-38 0,-18 -10,-29 -30,-34l-26 -6c-8,-2 -12,-6 -12,-11 0,-10 10,-14 19,-14 13,0 20,6 22,13l26 0c-4,-21 -20,-35 -48,-35 -26,0 -45,16 -45,37 0,20 13,29 30,33l25 6c10,3 14,6 14,12 0,10 -9,15 -21,15 -12,0 -21,-5 -24,-15l-27 0z"/>
     <path id="8" class="fil2" d="M13948 2439c0,23 15,35 36,35 8,0 16,-2 20,-5l0 -24c-3,3 -10,5 -15,5 -9,0 -14,-5 -14,-14l0 -62 27 0 0 -22 -27 0 0 -32 -27 0 0 32 -19 0 0 22 19 0 0 65z"/>
     <path id="9" class="fil2" d="M14143 2306l-63 165 28 0 17 -46 63 0 17 46 29 0 -64 -165 -27 0zm13 34l23 61 -45 0 22 -61z"/>
     <polygon id="10" class="fil2" points="14310,2471 14355,2352 14327,2352 14297,2439 14266,2352 14237,2352 14282,2471 "/>
     <path id="11" class="fil2" d="M14448 2434c-3,11 -13,17 -26,17 -17,0 -29,-12 -30,-33l82 0 0 -10c0,-35 -19,-59 -52,-59 -33,0 -56,27 -56,63 0,36 23,62 56,62 29,0 46,-16 50,-40l-24 0zm-26 -62c16,0 25,12 25,26l-54 0c3,-17 14,-26 29,-26z"/>
     <path id="12" class="fil2" d="M13604 2783c44,0 72,-23 72,-66 0,-44 -28,-67 -72,-67l-82 0 0 212 36 0 0 -79 46 0zm37 -66c0,20 -13,35 -38,35l-45 0 0 -70 45 0c25,0 38,14 38,35z"/>
     <polygon id="13" class="fil2" points="13743,2638 13708,2638 13708,2862 13743,2862 "/>
     <path id="14" class="fil2" d="M13904 2862l0 -100c0,-35 -23,-56 -62,-56 -31,0 -55,19 -60,46l33 0c4,-11 13,-17 27,-17 19,0 29,12 29,28l0 12c-6,-4 -22,-9 -36,-9 -34,0 -59,20 -59,49 0,31 25,50 57,50 17,0 33,-6 38,-11l0 8 33 0zm-33 -40c-4,9 -18,15 -32,15 -15,0 -31,-6 -31,-22 0,-15 16,-22 31,-22 14,0 28,6 32,16l0 13z"/>
     <path id="15" class="fil2" d="M13945 2862l34 0 0 -100c4,-16 17,-25 32,-25 20,0 29,12 29,31l0 94 35 0 0 -99c0,-34 -20,-57 -54,-57 -18,0 -34,8 -42,18l0 -15 -34 0 0 153z"/>
     <path id="16" class="fil2" d="M14230 2830l0 -148 34 0c45,0 69,29 69,74 0,46 -24,74 -69,74l-34 0zm-36 32l72 0c62,0 103,-41 103,-106 0,-64 -41,-106 -103,-106l-72 0 0 212z"/>
     <polygon id="17" class="fil2" points="13621,3036 13605,3036 13555,3061 13555,3089 13594,3069 13594,3201 13621,3201 "/>
     <polygon id="18" class="fil2" points="13735,3036 13707,3036 13645,3147 13645,3166 13719,3166 13719,3201 13745,3201 13745,3166 13772,3166 13772,3143 13745,3143 13745,3105 13719,3105 13719,3143 13675,3143 "/>
     <path id="19" class="fil2" d="M13866 3081c0,14 -14,28 -31,47l-49 54 0 19 110 0 0 -25 -72 0 36 -39c16,-19 33,-36 33,-56 0,-29 -19,-48 -52,-48 -31,0 -52,22 -55,52l28 0c1,-15 10,-27 27,-27 15,0 25,10 25,23z"/>
     <path id="20" class="fil2" d="M14001 3089c0,19 -13,32 -32,32 -18,0 -30,-13 -30,-32 0,-20 12,-32 30,-32 19,0 32,12 32,32zm-86 72c6,27 23,42 53,42 38,0 61,-37 61,-88 0,-21 -3,-36 -10,-50 -11,-22 -29,-32 -49,-32 -36,0 -57,26 -57,56 0,29 20,55 54,55 17,0 32,-9 38,-21l0 3c0,27 -15,55 -37,55 -14,0 -22,-8 -25,-20l-28 0z"/>
     <path id="21" class="fil2" d="M14048 3166c3,23 23,37 51,37 27,0 46,-14 46,-38 0,-17 -10,-29 -30,-34l-26 -5c-8,-3 -12,-6 -12,-11 0,-10 10,-14 19,-14 12,0 19,5 22,13l26 0c-4,-22 -20,-35 -48,-35 -26,0 -45,16 -45,37 0,20 13,29 30,33l24 6c10,2 14,6 14,12 0,9 -8,14 -20,14 -12,0 -21,-5 -24,-15l-27 0z"/>
     <path id="22" class="fil2" d="M14164 3184c0,10 8,19 18,19 10,0 18,-9 18,-19 0,-10 -8,-19 -18,-19 -10,0 -18,9 -18,19z"/>
     <path id="23" class="fil2" d="M14283 3027c-5,-2 -10,-3 -18,-3 -22,0 -39,14 -39,39l0 19 -21 0 0 22 21 0 0 97 26 0 0 -97 27 0 0 -22 -27 0 0 -17c0,-12 7,-18 18,-18 4,0 9,1 13,3l0 -23z"/>
     <path id="24" class="fil2" d="M14284 3184c0,10 8,19 18,19 10,0 18,-9 18,-19 0,-10 -8,-19 -18,-19 -10,0 -18,9 -18,19z"/>
     <line class="fil1 str1" x1="13445" y1="2936" x2="14444" y2= "2936" />
    </g>
   </g>
  </g>
  <g id="plan_c">
   <g>
    <polygon class="fil0 str0" points="2706,4812 13,4812 13,746 1848,749 1848,4 2706,4 "/>
    <path class="fil1 str0" d="M2096 4812c17,-265 163,-447 471,-483l0 483"/>
    <g>
     <polygon class="fil2" points="1200,1926 1179,1926 1116,1958 1116,1994 1166,1969 1166,2138 1200,2138 "/>
     <path id="1" class="fil2" d="M1288 2045l14 0c22,0 38,12 38,33 0,19 -15,32 -36,32 -25,0 -39,-14 -41,-36l-35 0c3,40 33,67 76,67 44,0 70,-28 70,-64 0,-19 -10,-39 -32,-48 17,-7 28,-25 28,-47 0,-35 -25,-60 -66,-60 -40,0 -66,28 -71,65l35 0c2,-19 14,-34 36,-34 20,0 32,14 32,31 0,20 -15,31 -35,31l-13 0 0 30z"/>
     <path id="2" class="fil2" d="M1468 2029c23,0 37,17 37,40 0,24 -14,41 -37,41 -23,0 -36,-14 -39,-36l-34 0c3,41 32,67 73,67 41,0 70,-30 70,-72 0,-42 -27,-71 -66,-71 -17,0 -30,6 -36,11l0 -51 89 0 0 -32 -119 0 0 119 27 0c8,-9 19,-16 35,-16z"/>
     <polygon id="3" class="fil2" points="1693,1953 1693,1926 1554,1926 1554,1958 1657,1958 1585,2138 1620,2138 "/>
     <polygon id="4" class="fil2" points="885,2311 885,2476 993,2476 993,2451 913,2451 913,2404 985,2404 985,2379 913,2379 913,2336 993,2336 993,2311 "/>
     <path id="5" class="fil2" d="M1152 2357c0,14 -15,28 -31,47l-49 54 0 18 109 0 0 -24 -71 0 35 -40c17,-19 34,-35 34,-56 0,-29 -20,-47 -53,-47 -30,0 -51,21 -54,52l28 0c1,-16 10,-28 26,-28 16,0 26,10 26,24z"/>
     <polygon id="6" class="fil2" points="1260,2311 1244,2311 1194,2336 1194,2364 1233,2345 1233,2476 1260,2476 "/>
     <path id="7" class="fil2" d="M1285 2442c4,23 23,37 51,37 27,0 46,-15 46,-38 0,-18 -10,-29 -30,-34l-25 -6c-9,-2 -13,-6 -13,-11 0,-9 10,-14 19,-14 13,0 20,6 22,13l26 0c-4,-21 -20,-35 -47,-35 -26,0 -45,16 -45,38 0,19 12,28 29,32l25 6c10,3 14,6 14,13 0,9 -8,14 -21,14 -11,0 -20,-5 -23,-15l-28 0z"/>
     <path id="8" class="fil2" d="M1415 2444c0,23 15,35 36,35 8,0 15,-2 20,-5l0 -24c-4,3 -10,5 -16,5 -8,0 -14,-4 -14,-14l0 -62 27 0 0 -22 -27 0 0 -32 -26 0 0 32 -19 0 0 22 19 0 0 65z"/>
     <path id="9" class="fil2" d="M1609 2311l-63 165 28 0 17 -46 63 0 16 46 29 0 -63 -165 -27 0zm13 34l22 61 -44 0 22 -61z"/>
     <polygon id="10" class="fil2" points="1775,2476 1820,2357 1792,2357 1761,2444 1731,2357 1702,2357 1747,2476 "/>
     <path id="11" class="fil2" d="M1912 2439c-3,12 -13,17 -26,17 -17,0 -29,-12 -30,-33l81 0 0 -10c0,-35 -18,-59 -51,-59 -33,0 -56,27 -56,63 0,37 23,62 56,62 29,0 46,-16 50,-40l-24 0zm-26 -62c16,0 25,12 25,26l-54 0c3,-17 14,-26 29,-26z"/>
     <path id="12" class="fil2" d="M1074 2788c44,0 72,-23 72,-66 0,-44 -28,-66 -72,-66l-81 0 0 211 36 0 0 -79 45 0zm37 -66c0,20 -13,35 -37,35l-45 0 0 -70 45 0c24,0 37,14 37,35z"/>
     <polygon id="13" class="fil2" points="1212,2643 1178,2643 1178,2867 1212,2867 "/>
     <path id="14" class="fil2" d="M1373 2867l0 -100c0,-35 -23,-56 -62,-56 -31,0 -55,19 -59,46l33 0c3,-11 12,-17 26,-17 19,0 29,12 29,28l0 12c-6,-4 -22,-9 -35,-9 -34,0 -60,20 -60,49 0,31 26,50 57,50 17,0 33,-6 38,-11l0 8 33 0zm-33 -40c-4,9 -18,15 -31,15 -16,0 -32,-6 -32,-22 0,-15 16,-22 32,-22 13,0 27,6 31,16l0 13z"/>
     <path id="15" class="fil2" d="M1413 2867l35 0 0 -100c3,-16 17,-25 31,-25 20,0 29,13 29,32l0 93 35 0 0 -99c0,-34 -20,-57 -54,-57 -18,0 -33,8 -41,18l0 -15 -35 0 0 153z"/>
     <path id="16" class="fil2" d="M1650 2761c0,66 42,110 96,110 47,0 78,-28 86,-71l-35 0c-9,23 -23,38 -51,38 -38,0 -60,-32 -60,-77 0,-44 23,-76 60,-76 28,0 42,15 51,37l35 0c-8,-42 -38,-70 -86,-70 -54,0 -96,44 -96,109z"/>
     <polygon id="17" class="fil2" points="1101,3041 1085,3041 1036,3066 1036,3094 1074,3075 1074,3206 1101,3206 "/>
     <path id="18" class="fil2" d="M1183 3121c18,0 29,13 29,32 0,18 -11,31 -28,31 -19,0 -28,-11 -31,-28l-27 0c3,32 25,52 58,52 32,0 54,-23 54,-55 0,-33 -21,-56 -52,-56 -12,0 -23,5 -28,9l0 -40 70 0 0 -25 -92 0 0 93 21 0c5,-7 14,-13 26,-13z"/>
     <path id="19" class="fil2" d="M1300 3133l10 0c17,0 30,10 30,26 0,15 -12,26 -29,26 -19,0 -29,-12 -31,-29l-27 0c2,31 25,52 59,52 34,0 54,-21 54,-49 0,-15 -8,-30 -25,-37 13,-6 22,-20 22,-37 0,-27 -19,-47 -52,-47 -30,0 -51,22 -54,50l27 0c1,-14 10,-25 28,-25 15,0 25,10 25,23 0,16 -12,24 -28,24l-9 0 0 23z"/>
     <polygon id="20" class="fil2" points="1487,3062 1487,3041 1379,3041 1379,3066 1459,3066 1403,3206 1430,3206 "/>
     <path id="21" class="fil2" d="M1503 3171c3,23 22,37 50,37 27,0 47,-14 47,-38 0,-17 -11,-29 -31,-33l-25 -6c-9,-2 -12,-6 -12,-11 0,-10 9,-14 19,-14 12,0 19,5 21,13l26 0c-4,-22 -19,-35 -47,-35 -26,0 -45,16 -45,37 0,20 13,29 29,33l25 6c10,2 14,6 14,12 0,10 -8,14 -20,14 -12,0 -21,-5 -24,-15l-27 0z"/>
     <path id="22" class="fil2" d="M1618 3189c0,11 8,19 18,19 10,0 18,-8 18,-19 0,-10 -8,-18 -18,-18 -10,0 -18,8 -18,18z"/>
     <path id="23" class="fil2" d="M1737 3032c-5,-2 -10,-3 -18,-3 -22,0 -39,14 -39,39l0 19 -21 0 0 22 21 0 0 97 26 0 0 -97 26 0 0 -22 -26 0 0 -17c0,-12 7,-18 18,-18 4,0 9,1 13,4l0 -24z"/>
     <path id="24" class="fil2" d="M1737 3189c0,11 8,19 18,19 10,0 19,-8 19,-19 0,-10 -9,-18 -19,-18 -10,0 -18,8 -18,18z"/>
     <line class="fil1 str1" x1="915" y1="2941" x2="1908" y2= "2941" />
    </g>
   </g>
   <g>
    <polygon class="fil0 str0" points="15829,4 14967,4 14967,4809 15675,4809 15675,4812 17683,4812 17683,809 17682,730 16460,739 15829,739 "/>
    <path class="fil1 str0" d="M15582 4809c-16,-264 -164,-447 -474,-483l0 483"/>
    <g>
     <polygon class="fil2" points="16219,1922 16197,1922 16134,1954 16134,1990 16184,1965 16184,2134 16219,2134 "/>
     <path id="1" class="fil2" d="M16307 2040l14 0c22,0 38,13 38,34 0,19 -15,32 -37,32 -24,0 -38,-14 -41,-36l-34 0c2,40 32,67 76,67 44,0 70,-28 70,-64 0,-19 -10,-39 -32,-48 17,-7 28,-25 28,-47 0,-35 -25,-60 -67,-60 -39,0 -66,28 -71,65l36 0c1,-19 13,-34 36,-34 20,0 32,14 32,31 0,20 -15,30 -35,30l-13 0 0 30z"/>
     <polygon id="2" class="fil2" points="16549,1949 16549,1922 16410,1922 16410,1954 16513,1954 16440,2134 16476,2134 "/>
     <polygon id="3" class="fil2" points="16650,1922 16629,1922 16566,1954 16566,1990 16615,1965 16615,2134 16650,2134 "/>
     <polygon id="4" class="fil2" points="15876,2307 15876,2472 15984,2472 15984,2447 15903,2447 15903,2400 15976,2400 15976,2376 15903,2376 15903,2332 15984,2332 15984,2307 "/>
     <path id="5" class="fil2" d="M16144 2353c0,14 -14,28 -31,47l-49 54 0 18 110 0 0 -24 -72 0 35 -40c17,-19 34,-35 34,-55 0,-30 -19,-48 -52,-48 -31,0 -52,21 -56,52l29 0c1,-16 10,-28 27,-28 15,0 25,10 25,24z"/>
     <polygon id="6" class="fil2" points="16253,2307 16236,2307 16187,2332 16187,2361 16226,2341 16226,2472 16253,2472 "/>
     <path id="7" class="fil2" d="M16279 2438c3,23 22,37 50,37 27,0 47,-15 47,-38 0,-18 -10,-29 -31,-34l-25 -6c-9,-2 -12,-6 -12,-11 0,-9 9,-14 19,-14 12,0 19,6 21,14l27 0c-4,-22 -20,-36 -48,-36 -26,0 -45,16 -45,38 0,19 12,28 29,32l25 6c10,3 14,6 14,13 0,9 -8,14 -20,14 -12,0 -21,-5 -24,-15l-27 0z"/>
     <path id="8" class="fil2" d="M16408 2440c0,24 15,35 37,35 8,0 15,-2 20,-4l0 -25c-4,3 -10,5 -15,5 -9,0 -15,-4 -15,-14l0 -62 27 0 0 -22 -27 0 0 -32 -27 0 0 32 -18 0 0 22 18 0 0 65z"/>
     <path id="9" class="fil2" d="M16604 2307l-64 165 29 0 17 -45 63 0 17 45 28 0 -63 -165 -27 0zm13 35l23 60 -46 0 23 -60z"/>
     <polygon id="10" class="fil2" points="16771,2472 16816,2353 16788,2353 16757,2440 16727,2353 16698,2353 16743,2472 "/>
     <path id="11" class="fil2" d="M16909 2435c-3,12 -13,17 -26,17 -17,0 -29,-12 -30,-33l81 0 0 -10c0,-35 -18,-59 -52,-59 -32,0 -55,27 -55,63 0,37 23,62 56,62 29,0 46,-16 50,-40l-24 0zm-26 -62c16,0 24,12 25,26l-54 0c3,-17 14,-26 29,-26z"/>
     <path id="12" class="fil2" d="M16066 2785c44,0 73,-23 73,-67 0,-43 -29,-66 -73,-66l-82 0 0 212 36 0 0 -79 46 0zm37 -67c0,21 -13,36 -38,36l-45 0 0 -71 45 0c25,0 38,14 38,35z"/>
     <polygon id="13" class="fil2" points="16205,2639 16170,2639 16170,2864 16205,2864 "/>
     <path id="14" class="fil2" d="M16366 2864l0 -101c0,-35 -23,-56 -61,-56 -32,0 -56,20 -61,46l34 0c3,-11 12,-17 26,-17 20,0 29,12 29,28l0 12c-6,-4 -21,-9 -35,-9 -34,0 -60,20 -60,49 0,32 26,50 57,50 18,0 33,-6 38,-11l0 9 33 0zm-33 -41c-3,10 -17,16 -31,16 -16,0 -32,-7 -32,-23 0,-15 16,-21 32,-21 14,0 28,6 31,15l0 13z"/>
     <path id="15" class="fil2" d="M16407 2864l35 0 0 -101c3,-15 17,-25 32,-25 19,0 29,13 29,32l0 94 34 0 0 -100c0,-34 -19,-57 -54,-57 -18,0 -33,8 -41,18l0 -15 -35 0 0 154z"/>
     <path id="16" class="fil2" d="M16645 2758c0,65 42,109 97,109 47,0 78,-27 86,-70l-35 0c-8,23 -23,38 -51,38 -38,0 -61,-33 -61,-77 0,-45 23,-77 61,-77 28,0 43,15 51,37l35 0c-8,-42 -38,-70 -86,-70 -55,0 -97,45 -97,110z"/>
     <polygon id="17" class="fil2" points="16093,3037 16077,3037 16027,3062 16027,3091 16066,3071 16066,3202 16093,3202 "/>
     <path id="18" class="fil2" d="M16176 3117c18,0 29,14 29,32 0,19 -11,32 -29,32 -18,0 -28,-11 -30,-28l-27 0c2,32 25,52 57,52 32,0 55,-23 55,-56 0,-33 -21,-55 -52,-55 -13,0 -23,4 -28,8l0 -40 70 0 0 -25 -93 0 0 93 21 0c6,-7 15,-13 27,-13z"/>
     <path id="19" class="fil2" d="M16293 3130l10 0c18,0 30,10 30,26 0,15 -12,25 -28,25 -19,0 -30,-11 -32,-28l-27 0c2,31 25,52 59,52 34,0 54,-22 54,-50 0,-15 -7,-30 -24,-37 13,-6 21,-20 21,-37 0,-27 -19,-46 -51,-46 -31,0 -52,21 -56,50l28 0c1,-15 10,-26 28,-26 16,0 25,10 25,24 0,15 -12,23 -28,23l-9 0 0 24z"/>
     <polygon id="20" class="fil2" points="16481,3059 16481,3037 16373,3037 16373,3062 16453,3062 16396,3202 16424,3202 "/>
     <path id="21" class="fil2" d="M16497 3168c4,23 23,37 51,37 27,0 46,-15 46,-38 0,-18 -10,-29 -30,-34l-25 -6c-9,-2 -13,-6 -13,-11 0,-9 10,-14 19,-14 13,0 20,6 22,14l26 0c-4,-22 -19,-36 -47,-36 -27,0 -46,16 -46,38 0,19 13,28 30,32l25 6c10,3 14,6 14,13 0,9 -8,14 -21,14 -12,0 -20,-5 -23,-15l-28 0z"/>
     <path id="22" class="fil2" d="M16613 3186c0,10 8,18 18,18 10,0 18,-8 18,-18 0,-11 -8,-19 -18,-19 -10,0 -18,8 -18,19z"/>
     <path id="23" class="fil2" d="M16732 3028c-4,-2 -10,-3 -17,-3 -23,0 -40,14 -40,40l0 18 -20 0 0 22 20 0 0 97 27 0 0 -97 26 0 0 -22 -26 0 0 -17c0,-11 6,-18 17,-18 5,0 9,1 13,4l0 -24z"/>
     <path id="24" class="fil2" d="M16733 3186c0,10 8,18 18,18 10,0 19,-8 19,-18 0,-11 -9,-19 -19,-19 -10,0 -18,8 -18,19z"/>
     <line class="fil1 str1" x1="15906" y1="2937" x2="16905" y2= "2937" />
    </g>
   </g>
  </g>
 </g>
</svg>
