<?xml version="1.0" encoding="UTF-8"?>
<!DOCTYPE svg PUBLIC "-//W3C//DTD SVG 1.1//EN" "http://www.w3.org/Graphics/SVG/1.1/DTD/svg11.dtd">
<!-- Creator: CorelDRAW X8 -->
<svg xmlns="http://www.w3.org/2000/svg" xml:space="preserve" width="0.777402in" height="0.42837in" version="1.1" style="shape-rendering:geometricPrecision; text-rendering:geometricPrecision; image-rendering:optimizeQuality; fill-rule:evenodd; clip-rule:evenodd"
viewBox="0 0 3727 2054"
 xmlns:xlink="http://www.w3.org/1999/xlink">
 <defs>
  <style type="text/css">
   <![CDATA[
    .fil1 {fill:#585655}
    .fil0 {fill:#585655;fill-rule:nonzero}
   ]]>
  </style>
 </defs>
 <g id="Layer_x0020_1">
  <metadata id="CorelCorpID_0Corel-Layer"/>
  <g id="_2395259734816">
   <g>
    <path class="fil0" d="M3629 98l0 880 -302 0 0 -880 302 0zm-302 1858l0 -880 302 0 0 880 -302 0zm-1470 0c-54,-68 -86,-171 -86,-281 0,-116 36,-224 95,-291 17,-19 17,-47 0,-66 -59,-67 -95,-176 -95,-291 0,-116 36,-225 95,-292 17,-18 17,-46 0,-65 -59,-67 -95,-176 -95,-291 0,-110 32,-213 86,-281l117 0 0 1858 -117 0zm973 -1858l0 1858 -758 0 0 -1858 758 0zm400 1858l-302 0 0 -391 302 0 0 391zm0 -489l-302 0 0 -880 302 0 0 880zm0 -1369l0 391 -302 0 0 -391 302 0zm-1431 -82c-79,84 -126,220 -126,363 0,124 34,239 94,324 -60,84 -94,200 -94,324 0,124 34,240 94,324 -60,84 -94,200 -94,324 0,143 47,279 126,363 9,10 22,16 36,16l1843 0c27,0 49,-22 49,-49l0 -1956c0,-27 -22,-49 -49,-49l-1843 0c-14,0 -27,6 -36,16z"/>
    <path class="fil0" d="M2380 1676c0,-39 -32,-70 -71,-70 -39,0 -70,31 -70,70 0,39 31,71 70,71 39,0 71,-32 71,-71z"/>
    <path class="fil0" d="M2380 1027c0,-39 -32,-71 -71,-71 -39,0 -70,32 -70,71 0,39 31,70 70,70 39,0 71,-31 71,-70z"/>
    <path class="fil0" d="M2380 378c0,-39 -32,-71 -71,-71 -39,0 -70,32 -70,71 0,39 31,70 70,70 39,0 71,-31 71,-70z"/>
    <path class="fil0" d="M2663 1352c0,-39 -31,-71 -70,-71 -39,0 -71,32 -71,71 0,39 32,70 71,70 39,0 70,-31 70,-70z"/>
    <path class="fil0" d="M2663 702c0,-39 -31,-70 -70,-70 -39,0 -71,31 -71,70 0,39 32,71 71,71 39,0 70,-32 70,-71z"/>
   </g>
   <path class="fil1" d="M471 104c130,0 248,53 333,138 85,85 138,203 138,333 0,130 -53,247 -138,333 -85,85 -203,138 -333,138 -130,0 -248,-53 -333,-138 -85,-86 -138,-203 -138,-333 0,-130 53,-248 138,-333 85,-85 203,-138 333,-138zm156 291l-47 0 -184 93 0 81 154 -79 0 484c-26,5 -52,8 -79,8 -113,0 -214,-46 -288,-119 -74,-74 -119,-176 -119,-288 0,-113 45,-215 119,-288 74,-74 175,-119 288,-119 112,0 214,45 288,119 73,73 119,175 119,288 0,112 -46,214 -119,288 -38,37 -82,67 -132,88l0 -556z"/>
  </g>
 </g>
</svg>
