<?xml version="1.0" encoding="UTF-8"?>
<!DOCTYPE svg PUBLIC "-//W3C//DTD SVG 1.1//EN" "http://www.w3.org/Graphics/SVG/1.1/DTD/svg11.dtd">
<!-- Creator: CorelDRAW X8 -->
<svg xmlns="http://www.w3.org/2000/svg" xml:space="preserve" width="0.84139in" height="0.450028in" version="1.1" style="shape-rendering:geometricPrecision; text-rendering:geometricPrecision; image-rendering:optimizeQuality; fill-rule:evenodd; clip-rule:evenodd"
viewBox="0 0 5257 2812"
 xmlns:xlink="http://www.w3.org/1999/xlink">
 <defs>
  <style type="text/css">
   <![CDATA[
    .fil1 {fill:#585655}
    .fil0 {fill:#585655;fill-rule:nonzero}
   ]]>
  </style>
 </defs>
 <g id="Layer_x0020_1">
  <metadata id="CorelCorpID_0Corel-Layer"/>
  <g id="_2395259732096">
   <g>
    <g>
     <path class="fil0" d="M3457 641l858 707 0 1015 -452 0 0 -745c0,-43 -35,-78 -78,-78l-656 0c-44,0 -78,35 -78,78l0 745 -453 0 0 -1015 859 -707zm-250 1722l0 -667 500 0 0 667 -500 0zm-687 155l1873 0c43,0 78,-34 78,-78l0 -963 126 104c14,12 32,18 50,18 22,0 44,-10 60,-28 27,-34 22,-83 -11,-110l-1190 -981c-28,-24 -70,-24 -99,0l-1190 981c-33,27 -37,76 -10,110 27,33 77,37 110,10l125 -104 0 963c0,44 36,78 78,78z"/>
     <path class="fil0" d="M2362 2668l2190 0c42,1 76,-5 95,-19 14,-9 21,-29 19,-61l0 -655c0,-32 11,-63 29,-88 18,-25 44,-44 75,-54 54,-18 100,-52 132,-96 31,-44 50,-98 50,-155 0,-46 -12,-89 -32,-127 -20,-37 -50,-70 -86,-94l-8 -5c-5,-3 -9,-7 -13,-10l-1356 -1119 -1360 1122c-5,4 -11,8 -16,11 -37,25 -67,58 -88,95 -20,38 -31,81 -31,127 0,57 18,111 50,155 32,44 77,78 132,96 30,10 56,29 74,55 19,24 29,55 29,87l0 635c4,35 13,60 30,76 17,16 45,24 85,24zm2189 143l-2189 1c-78,-1 -139,-22 -183,-63 -45,-42 -69,-100 -75,-173l0 -643c0,-1 -1,-2 -1,-3 -1,-1 -2,-2 -4,-3 -84,-27 -154,-80 -203,-148 -50,-68 -78,-151 -78,-239 0,-69 18,-136 50,-195 32,-59 78,-110 136,-148l2 -1 1451 -1196c373,307 1091,975 1452,1197 58,38 105,89 137,148 32,59 49,126 49,195 0,88 -28,171 -77,239 -50,68 -120,121 -204,148 -1,1 -3,2 -3,2l-1 4 0 652c2,85 -26,142 -78,180 -47,34 -109,47 -181,46z"/>
    </g>
    <g>
     <path class="fil0" d="M2517 630c-131,144 -355,154 -499,22l-232 -211 5 110c1,17 -5,33 -16,44 -10,12 -26,19 -43,20 -33,2 -62,-25 -64,-59l-11 -259c-2,-33 24,-62 58,-64l259 -11c34,-2 63,25 64,59 2,34 -24,62 -58,64l-111 5 232 212c94,85 240,79 325,-15 86,-94 80,-240 -14,-325 -25,-23 -27,-62 -4,-87 23,-25 62,-27 87,-4 144,132 154,355 22,499z"/>
     <path class="fil0" d="M4396 630c132,144 356,154 500,22l231 -211 -5 110c-1,17 6,33 16,44 11,12 26,19 43,20 34,2 63,-25 64,-59l12 -259c1,-33 -25,-62 -59,-64l-259 -11c-34,-2 -63,25 -64,59 -1,34 25,62 59,64l110 5 -232 212c-93,85 -239,79 -325,-15 -86,-94 -79,-240 15,-325 25,-23 26,-62 3,-87 -23,-25 -61,-27 -86,-4 -144,132 -154,355 -23,499z"/>
    </g>
   </g>
   <path class="fil1" d="M614 135c169,0 322,69 433,180 112,111 180,265 180,434 0,169 -68,323 -179,434 -112,111 -265,180 -434,180 -170,0 -323,-69 -434,-180 -111,-111 -180,-265 -180,-434 0,-169 69,-323 180,-434 111,-111 264,-180 434,-180zm274 492c0,76 -66,143 -150,235l-260 287 0 68 386 0c-75,40 -160,62 -250,62 -147,0 -280,-59 -376,-155 -95,-96 -155,-228 -155,-375 0,-147 60,-279 155,-375 96,-96 229,-156 376,-156 146,0 279,60 375,156 96,96 155,228 155,375 0,147 -59,279 -155,375l-1 1 -368 0 205 -225c81,-92 163,-172 163,-274 0,-138 -92,-228 -246,-228 -149,0 -249,104 -264,254l106 0c8,-93 61,-162 158,-162 89,0 146,54 146,137z"/>
  </g>
 </g>
</svg>
