<?xml version="1.0" encoding="UTF-8"?>
<!DOCTYPE svg PUBLIC "-//W3C//DTD SVG 1.1//EN" "http://www.w3.org/Graphics/SVG/1.1/DTD/svg11.dtd">
<!-- Creator: CorelDRAW X8 -->
<svg xmlns="http://www.w3.org/2000/svg" xml:space="preserve" width="0.714358in" height="0.449028in" version="1.1" style="shape-rendering:geometricPrecision; text-rendering:geometricPrecision; image-rendering:optimizeQuality; fill-rule:evenodd; clip-rule:evenodd"
viewBox="0 0 4833 3038"
 xmlns:xlink="http://www.w3.org/1999/xlink">
 <defs>
  <style type="text/css">
   <![CDATA[
    .fil1 {fill:#585655}
    .fil0 {fill:#585655;fill-rule:nonzero}
   ]]>
  </style>
 </defs>
 <g id="Layer_x0020_1">
  <metadata id="CorelCorpID_0Corel-Layer"/>
  <g id="_2395259730464">
   <g>
    <path class="fil0" d="M4696 2901l-2755 0 0 -130c0,-55 45,-100 100,-100l2555 0c55,0 100,45 100,100l0 130zm-2589 -2764l2424 0 0 2397 -2424 0 0 -2397zm2561 2408l0 -2476c0,-38 -31,-69 -69,-69l-2561 0c-38,0 -68,31 -68,69l0 2476c-96,31 -165,120 -165,226l0 198c0,38 30,69 68,69l2891 0c38,0 69,-31 69,-69l0 -198c0,-106 -70,-195 -165,-226z"/>
    <path class="fil0" d="M4226 2230l-687 0 0 -1789 687 0 0 1789zm69 -1926l-824 0c-38,0 -69,31 -69,69l0 1925c0,38 31,69 69,69l824 0c38,0 68,-31 68,-69l0 -1925c0,-38 -30,-69 -68,-69z"/>
    <path class="fil0" d="M3098 2230l-687 0 0 -1789 687 0 0 1789zm68 -1926l-824 0c-37,0 -68,31 -68,69l0 1925c0,38 31,69 68,69l824 0c38,0 69,-31 69,-69l0 -1925c0,-38 -31,-69 -69,-69z"/>
    <path class="fil0" d="M2620 1268c11,0 22,-2 33,-8l269 -148c33,-19 45,-60 27,-93 -18,-33 -60,-46 -93,-27l-269 148c-34,18 -46,59 -27,93 12,23 35,35 60,35z"/>
    <path class="fil0" d="M2620 1688c11,0 22,-3 33,-9l269 -148c33,-18 45,-60 27,-93 -18,-33 -60,-45 -93,-27l-269 148c-34,18 -46,60 -27,93 12,23 35,36 60,36z"/>
    <path class="fil0" d="M3748 1268c12,0 23,-2 33,-8l270 -148c33,-19 45,-60 27,-93 -18,-33 -60,-46 -93,-27l-270 148c-33,18 -45,59 -27,93 13,23 36,35 60,35z"/>
    <path class="fil0" d="M3985 1411l-270 148c-33,18 -45,60 -27,93 13,23 36,36 60,36 12,0 23,-3 33,-9l270 -148c33,-18 45,-60 27,-93 -18,-33 -60,-45 -93,-27z"/>
   </g>
   <path class="fil1" d="M665 313c183,0 349,74 469,194 121,121 195,287 195,470 0,184 -74,350 -195,470 -120,120 -286,195 -469,195 -184,0 -350,-75 -470,-195 -121,-120 -195,-286 -195,-470 0,-183 74,-349 195,-470 120,-120 286,-194 470,-194zm69 814l61 0c100,0 178,58 178,156 0,97 -71,160 -175,160 -110,0 -177,-64 -192,-165l-110 0c14,153 125,255 288,261 -38,8 -78,13 -119,13 -159,0 -303,-65 -407,-169 -104,-103 -168,-247 -168,-406 0,-159 64,-302 168,-406 104,-104 248,-168 407,-168 158,0 302,64 406,168 104,104 168,247 168,406 0,159 -64,303 -168,406 -6,7 -13,13 -20,19 19,-36 28,-77 28,-120 0,-98 -59,-177 -153,-204 79,-24 136,-102 136,-199 0,-139 -99,-239 -266,-239 -155,0 -261,104 -283,252l110 0c13,-91 75,-155 173,-155 99,0 160,64 160,148 0,94 -71,146 -164,146l-58 0 0 96z"/>
  </g>
 </g>
</svg>
