<?xml version="1.0" encoding="UTF-8"?>
<!DOCTYPE svg PUBLIC "-//W3C//DTD SVG 1.1//EN" "http://www.w3.org/Graphics/SVG/1.1/DTD/svg11.dtd">
<!-- Creator: CorelDRAW X8 -->
<svg xmlns="http://www.w3.org/2000/svg" xml:space="preserve" width="0.768295in" height="0.448488in" version="1.1" style="shape-rendering:geometricPrecision; text-rendering:geometricPrecision; image-rendering:optimizeQuality; fill-rule:evenodd; clip-rule:evenodd"
viewBox="0 0 8019 4681"
 xmlns:xlink="http://www.w3.org/1999/xlink">
 <defs>
  <style type="text/css">
   <![CDATA[
    .fil1 {fill:#585655}
    .fil0 {fill:#585655;fill-rule:nonzero}
   ]]>
  </style>
 </defs>
 <g id="Layer_x0020_1">
  <metadata id="CorelCorpID_0Corel-Layer"/>
  <g id="_2395259720768">
   <g>
    <path class="fil0" d="M7807 3965c0,278 -226,504 -504,504 -279,0 -505,-226 -505,-504 0,-189 104,-360 272,-448 35,-18 57,-54 57,-94l0 -2618c0,-97 79,-176 176,-176 97,0 176,79 176,176l0 2618c0,40 22,76 57,94 167,88 271,259 271,448zm106 -2070c59,0 106,-47 106,-105 0,-59 -47,-106 -106,-106l-223 0 0 -385 223 0c59,0 106,-47 106,-106 0,-58 -47,-106 -106,-106l-223 0 0 -282c0,-214 -174,-388 -387,-388 -214,0 -388,174 -388,388l0 2557c-204,132 -329,357 -329,603 0,395 322,716 717,716 395,0 716,-321 716,-716 0,-246 -124,-471 -329,-603l0 -274 223 0c59,0 106,-47 106,-106 0,-58 -47,-106 -106,-106l-223 0 0 -384 223 0c59,0 106,-48 106,-106 0,-59 -47,-106 -106,-106l-223 0 0 -385 223 0z"/>
    <path class="fil0" d="M6184 1726c0,148 -121,268 -269,268l-143 0c-32,0 -62,15 -82,39l-216 264 -209 0 0 -189c0,-58 -47,-105 -106,-105 -58,0 -106,47 -106,105l0 189 -373 0 0 -189c0,-58 -47,-105 -106,-105 -58,0 -105,47 -105,105l0 189 -210 0 -216 -264c-20,-24 -50,-39 -81,-39l-144 0c-148,0 -268,-120 -268,-268l0 -1246c0,-148 120,-268 268,-268l2097 0c148,0 269,120 269,268l0 1246zm-269 -1726l-2097 0c-265,0 -480,215 -480,480l0 1246c0,265 215,480 480,480l93 0 216 264c20,24 50,39 82,39l1315 0c32,0 62,-15 82,-39l216 -264 93 0c265,0 481,-215 481,-480l0 -1246c0,-265 -216,-480 -481,-480z"/>
    <path class="fil0" d="M5713 1524l-1693 0 0 -842 1693 0 0 842zm106 -1054l-1905 0c-58,0 -106,48 -106,106l0 1054c0,58 48,106 106,106l1905 0c59,0 106,-48 106,-106l0 -1054c0,-58 -47,-106 -106,-106z"/>
    <path class="fil0" d="M5558 4169l-232 -144 0 -1152c0,-58 -48,-106 -106,-106 -59,0 -106,48 -106,106l0 1211c0,37 19,71 50,90l232 144 0 151 -1059 0 0 -151 232 -144c32,-19 51,-53 51,-90l0 -1211c0,-58 -48,-106 -106,-106 -59,0 -106,48 -106,106l0 1152 -232 144c-31,19 -50,53 -50,90l0 316c0,59 47,106 105,106l1271 0c58,0 106,-47 106,-106l0 -316c0,-37 -19,-71 -50,-90z"/>
   </g>
   <path class="fil1" d="M1025 737c283,0 539,114 725,300 186,186 300,442 300,725 0,283 -114,539 -300,724 -186,186 -442,301 -725,301 -283,0 -539,-115 -724,-300 -186,-186 -301,-442 -301,-725 0,-283 115,-539 300,-725 186,-186 442,-300 725,-300zm315 557l-176 0 -518 919 0 123 621 0 0 279c-77,21 -158,33 -242,33 -245,0 -466,-99 -627,-259 -160,-161 -259,-382 -259,-627 0,-245 99,-467 259,-627 161,-160 382,-259 627,-259 245,0 467,99 627,259 160,160 259,382 259,627 0,245 -99,466 -259,627 -65,65 -141,120 -225,163l0 -216 237 0 0 -144 -237 0 0 -325 -160 0 0 325 -430 0 503 -898z"/>
  </g>
 </g>
</svg>
