<?xml version="1.0" encoding="UTF-8"?>
<!DOCTYPE svg PUBLIC "-//W3C//DTD SVG 1.1//EN" "http://www.w3.org/Graphics/SVG/1.1/DTD/svg11.dtd">
<!-- Creator: CorelDRAW X8 -->
<svg xmlns="http://www.w3.org/2000/svg" xml:space="preserve" width="0.765693in" height="0.435874in" version="1.1" style="shape-rendering:geometricPrecision; text-rendering:geometricPrecision; image-rendering:optimizeQuality; fill-rule:evenodd; clip-rule:evenodd"
viewBox="0 0 16669 9489"
 xmlns:xlink="http://www.w3.org/1999/xlink">
 <defs>
  <style type="text/css">
   <![CDATA[
    .fil1 {fill:#585655}
    .fil0 {fill:#585655;fill-rule:nonzero}
   ]]>
  </style>
 </defs>
 <g id="Layer_x0020_1">
  <metadata id="CorelCorpID_0Corel-Layer"/>
  <g id="_2395259725056">
   <g>
    <path class="fil0" d="M9817 7344c119,0 215,-96 215,-214l0 -807c0,-119 -96,-215 -215,-215 -119,0 -215,96 -215,215l0 807c0,118 96,214 215,214z"/>
    <path class="fil0" d="M10870 7344c119,0 215,-96 215,-214l0 -807c0,-119 -96,-215 -215,-215 -118,0 -215,96 -215,215l0 807c0,118 97,214 215,214z"/>
    <path class="fil0" d="M11924 7344c118,0 214,-96 214,-214l0 -807c0,-119 -96,-215 -214,-215 -118,0 -215,96 -215,215l0 807c0,118 97,214 215,214z"/>
    <path class="fil0" d="M12977 7344c119,0 215,-96 215,-214l0 -807c0,-119 -96,-215 -215,-215 -118,0 -215,96 -215,215l0 807c0,118 97,214 215,214z"/>
    <path class="fil0" d="M14030 7344c118,0 215,-96 215,-214l0 -807c0,-119 -97,-215 -215,-215 -119,0 -215,96 -215,215l0 807c0,118 96,214 215,214z"/>
    <path class="fil0" d="M8298 5914l0 -472 7252 0 0 472c-359,95 -626,423 -626,812 0,389 267,717 626,813l0 472 -7252 0 0 -472c359,-96 626,-424 626,-813 0,-389 -267,-717 -626,-812zm-215 1223c-119,0 -215,96 -215,215l0 873c0,119 96,215 215,215l7681 0c119,0 215,-96 215,-215l0 -873c0,-119 -96,-215 -215,-215 -227,0 -411,-184 -411,-411 0,-226 184,-411 411,-411 119,0 215,-96 215,-214l0 -874c0,-118 -96,-214 -215,-214l-7681 0c-119,0 -215,96 -215,214l0 874c0,118 96,214 215,214 227,0 411,185 411,411 0,227 -184,411 -411,411z"/>
    <path class="fil0" d="M16454 9060l-9060 0c-119,0 -214,96 -214,214 0,119 95,215 214,215l9060 0c118,0 215,-96 215,-215 0,-118 -97,-214 -215,-214z"/>
    <path class="fil0" d="M16454 3964l-9060 0c-119,0 -214,96 -214,215 0,118 95,214 214,214l9060 0c118,0 215,-96 215,-214 0,-119 -97,-215 -215,-215z"/>
    <path class="fil0" d="M11437 1005l272 -272 0 2110c0,119 97,215 215,215 118,0 214,-96 214,-215l0 -2110 271 272c42,42 98,62 153,62 55,0 110,-20 151,-62 84,-84 84,-220 0,-303l-638 -639c-84,-84 -220,-84 -304,0l-637 639c-84,83 -84,219 0,303 84,83 219,83 303,0z"/>
    <path class="fil0" d="M8410 3058c680,0 1232,-552 1232,-1232l0 -1093 271 272c42,42 98,62 153,62 54,0 109,-20 151,-62 84,-84 84,-220 0,-303l-638 -639c-84,-84 -219,-84 -304,0l-637 639c-84,83 -84,219 0,303 84,83 219,83 303,0l272 -272 0 1093c0,443 -361,802 -803,802 -443,0 -802,-359 -802,-802 0,-118 -96,-214 -214,-214 -119,0 -214,96 -214,214 0,680 552,1232 1230,1232z"/>
    <path class="fil0" d="M13782 1067c55,0 109,-20 151,-62l272 -272 0 1093c0,680 553,1232 1232,1232 678,0 1232,-552 1232,-1232 0,-118 -97,-214 -215,-214 -120,0 -215,96 -215,214 0,443 -360,802 -802,802 -443,0 -803,-359 -803,-802l0 -1093 271 272c85,83 221,83 305,0 83,-84 83,-220 0,-303l-639 -639c-84,-84 -220,-84 -303,0l-639 639c-84,83 -84,219 0,303 42,42 98,62 153,62z"/>
   </g>
   <path class="fil1" d="M2138 1086c590,0 1125,239 1512,626 387,388 627,922 627,1512 0,591 -240,1125 -627,1512 -387,387 -922,627 -1512,627 -590,0 -1124,-240 -1511,-627 -388,-387 -627,-921 -627,-1512 0,-590 239,-1124 626,-1511 388,-388 922,-627 1512,-627zm465 2375c344,0 577,270 577,623 0,352 -233,618 -572,618 -353,0 -554,-202 -614,-531l-352 0c64,521 430,842 964,842 -149,39 -306,60 -468,60 -510,0 -973,-207 -1307,-541 -334,-335 -541,-797 -541,-1308 0,-510 207,-973 541,-1307 334,-334 797,-541 1307,-541 511,0 973,207 1308,541 334,334 541,797 541,1307 0,511 -207,973 -541,1308 -21,20 -42,40 -63,60 87,-144 136,-318 136,-508 0,-541 -366,-934 -884,-934 -229,0 -416,91 -512,178l0 -847 1236 0 0 -320 -1539 0 0 1543 284 0c106,-129 275,-243 499,-243z"/>
  </g>
 </g>
</svg>
